{"glyphs":{"0":{"ha":720,"x_min":66,"x_max":675,"o":"m 338 52 q 421 78 380 52 q 492 148 462 104 q 556 360 556 240 q 513 489 556 439 q 397 539 469 539 q 243 448 307 539 q 179 262 179 357 q 220 110 179 168 q 338 52 261 52 m 66 240 q 159 491 66 384 q 404 604 258 604 q 602 529 529 604 q 675 342 675 454 q 574 94 675 201 q 332 -13 474 -13 q 139 60 213 -13 q 66 240 66 132 z "},"1":{"ha":419,"x_min":4,"x_max":334,"o":"m 231 112 q 320 47 231 51 l 311 0 l 4 0 l 17 46 q 83 58 63 46 q 136 138 123 83 l 207 473 q 210 491 210 481 q 192 512 210 508 q 114 515 174 515 l 124 564 l 299 604 l 334 604 l 233 131 q 231 112 231 121 z "},"2":{"ha":652,"x_min":-7,"x_max":560,"o":"m 362 605 q 560 456 560 605 q 464 287 560 369 q 367 214 419 249 q 289 159 315 179 l 151 81 l 408 81 q 502 152 458 81 q 518 165 510 165 l 555 165 q 528 115 555 161 q 436 -50 500 69 l 406 -50 q 401 -42 401 -50 q 400 -25 401 -35 q 378 0 397 0 l 28 0 q -7 9 -7 0 q 37 66 -7 28 l 277 244 q 297 259 283 249 q 330 283 311 269 q 408 362 378 323 q 438 434 438 401 q 409 509 438 486 q 349 531 380 531 q 239 503 296 531 q 157 449 183 474 q 120 423 131 423 q 97 451 97 423 q 120 497 97 478 q 243 574 177 544 q 362 605 309 605 z "},"3":{"ha":519,"x_min":-83,"x_max":463,"o":"m 262 254 q 402 86 402 187 q 307 -92 402 -15 q 84 -169 212 -169 q -75 -121 -45 -169 q -83 -92 -83 -108 q -68 -61 -83 -77 q -37 -46 -54 -46 q 14 -58 -5 -46 q 76 -117 33 -71 q 118 -119 86 -119 q 184 -104 151 -119 q 240 -62 217 -88 q 287 72 287 -10 q 213 208 287 154 q 153 237 188 227 q 330 381 277 298 q 350 444 350 414 q 327 517 350 496 q 273 539 303 539 q 178 519 224 539 q 113 479 132 498 q 80 459 93 459 q 62 477 62 459 q 74 505 62 490 q 296 604 158 604 q 450 528 410 604 q 463 475 463 505 q 262 254 463 361 z "},"4":{"ha":682,"x_min":-3,"x_max":619,"o":"m 81 125 l 347 125 l 437 502 l 81 125 m 44 55 q -3 81 -3 55 q 20 125 -3 100 l 419 549 q 440 572 433 564 q 457 586 448 581 q 492 591 465 591 l 564 591 l 454 126 l 619 126 l 602 56 l 440 56 l 393 -168 l 281 -168 l 332 56 l 44 55 z "},"5":{"ha":559,"x_min":-12,"x_max":537,"o":"m 133 225 q 102 238 102 225 q 104 254 102 246 l 198 584 q 208 601 202 598 q 227 604 213 604 q 258 602 240 604 q 434 591 352 591 q 502 638 476 591 l 537 638 l 511 531 q 485 495 504 501 q 410 488 466 488 l 233 488 q 214 469 220 488 q 194 400 203 434 q 177 342 184 367 l 173 326 l 207 326 q 384 273 326 326 q 443 138 443 220 q 418 42 443 91 q 349 -47 393 -7 q 111 -140 248 -140 q -5 -83 17 -140 q -12 -51 -12 -68 q 3 -19 -12 -34 q 41 -3 17 -3 q 149 -75 85 -3 q 176 -77 149 -77 q 239 -63 203 -77 q 300 -25 275 -48 q 351 83 351 22 q 308 187 351 145 q 181 229 264 229 l 133 225 z "},"6":{"ha":635,"x_min":65,"x_max":590,"o":"m 288 47 q 358 75 323 47 q 419 145 393 102 q 475 331 475 238 q 420 453 475 425 q 372 463 400 463 q 232 369 292 463 q 171 178 171 275 q 288 47 171 47 m 220 420 q 418 534 302 534 q 538 478 486 534 q 590 348 590 422 q 501 97 590 206 q 295 -13 412 -13 q 118 60 178 -13 q 65 234 65 122 q 131 472 65 347 q 304 693 196 598 q 534 820 413 788 q 549 821 541 821 q 566 814 558 821 q 574 793 574 806 q 556 770 574 780 q 279 531 374 675 q 220 420 247 481 z "},"7":{"ha":570,"x_min":64,"x_max":585,"o":"m 585 572 l 220 -120 q 152 -168 193 -168 q 110 -151 127 -168 q 92 -105 92 -134 q 115 -41 92 -76 l 474 492 l 227 492 q 126 416 172 492 q 115 402 117 402 l 64 402 l 181 644 l 212 645 q 215 603 212 614 q 237 591 218 591 l 573 591 l 585 572 z "},"8":{"ha":625,"x_min":28,"x_max":582,"o":"m 494 535 q 494 558 494 535 q 467 607 494 582 q 395 633 441 633 q 277 597 315 633 q 240 496 240 562 q 298 365 240 431 q 337 330 316 345 q 409 381 377 351 q 457 435 441 412 q 494 535 494 488 m 302 241 q 127 5 127 146 q 159 -72 127 -45 q 236 -98 191 -98 q 362 -50 313 -98 q 410 53 410 -1 q 385 149 410 106 q 302 241 359 191 m 582 526 q 452 334 582 424 q 382 294 411 305 q 401 277 388 287 q 431 252 414 267 q 528 85 528 170 q 372 -127 528 -60 q 155 -143 264 -173 q 28 2 28 -108 q 80 141 28 71 q 254 286 140 223 q 151 416 188 333 q 136 490 136 450 q 212 627 136 570 q 388 684 287 684 q 535 646 489 684 q 582 526 582 608 z "},"9":{"ha":656,"x_min":65,"x_max":590,"o":"m 366 545 q 297 517 332 545 q 236 446 262 489 q 180 260 180 353 q 235 138 180 166 q 289 128 254 128 q 360 156 323 128 q 425 225 397 183 q 484 414 484 316 q 366 545 484 545 m 435 171 q 236 57 351 57 q 117 113 170 57 q 65 243 65 169 q 154 495 65 385 q 360 604 243 604 q 537 532 477 604 q 590 357 590 469 q 525 119 590 245 q 350 -102 459 -7 q 120 -229 241 -198 q 105 -230 113 -230 q 89 -222 96 -230 q 81 -202 81 -215 q 98 -179 81 -189 q 375 60 280 -83 q 435 171 408 111 z "},"\r":{"ha":306,"x_min":0,"x_max":0,"o":""},"\u0000":{"ha":0,"x_min":0,"x_max":0,"o":""},"\u0001":{"ha":306,"x_min":0,"x_max":0,"o":""},"\u0002":{"ha":306,"x_min":0,"x_max":0,"o":""},"\u0003":{"ha":306,"x_min":0,"x_max":0,"o":""},"\u0004":{"ha":306,"x_min":0,"x_max":0,"o":""},"\u0005":{"ha":306,"x_min":0,"x_max":0,"o":""},"\u0006":{"ha":306,"x_min":0,"x_max":0,"o":""},"\u0007":{"ha":306,"x_min":0,"x_max":0,"o":""},"\b":{"ha":306,"x_min":0,"x_max":0,"o":""},"\t":{"ha":306,"x_min":0,"x_max":0,"o":""},"\n":{"ha":306,"x_min":0,"x_max":0,"o":""},"\u0010":{"ha":306,"x_min":0,"x_max":0,"o":""},"\u0011":{"ha":306,"x_min":0,"x_max":0,"o":""},"\u0012":{"ha":306,"x_min":0,"x_max":0,"o":""},"\u0013":{"ha":306,"x_min":0,"x_max":0,"o":""},"\u0014":{"ha":306,"x_min":0,"x_max":0,"o":""},"\u0015":{"ha":306,"x_min":0,"x_max":0,"o":""},"\u0016":{"ha":306,"x_min":0,"x_max":0,"o":""},"\u0017":{"ha":306,"x_min":0,"x_max":0,"o":""},"\u0018":{"ha":306,"x_min":0,"x_max":0,"o":""},"\u0019":{"ha":306,"x_min":0,"x_max":0,"o":""}," ":{"ha":306,"x_min":0,"x_max":0,"o":""},"!":{"ha":384,"x_min":20,"x_max":352,"o":"m 94 0 q 20 61 20 0 q 57 141 20 112 q 128 171 93 171 q 183 155 163 171 q 203 109 203 139 q 167 30 203 59 q 94 0 130 0 m 161 294 l 143 294 l 197 734 q 220 791 200 766 q 294 838 257 838 q 341 823 331 838 q 352 784 352 808 q 344 739 352 760 l 161 294 z "},"\"":{"ha":497,"x_min":119,"x_max":459,"o":"m 335 530 q 336 531 335 530 q 336 530 336 530 l 335 530 m 122 530 q 122 531 122 530 q 123 530 123 531 l 122 530 m 336 531 q 332 629 332 560 l 332 711 q 342 820 332 792 q 370 860 353 848 q 414 872 386 872 q 459 835 459 872 q 409 673 459 789 q 336 531 359 558 m 123 532 q 119 629 119 561 l 119 714 q 130 820 119 793 q 156 860 140 848 q 200 871 172 871 q 245 834 245 871 q 172 618 245 772 q 123 532 143 556 z "},"#":{"ha":791,"x_min":-18,"x_max":792,"o":"m 526 468 l 314 468 l 247 328 l 460 328 l 526 468 m 576 273 l 493 277 l 486 277 q 403 92 440 186 q 326 -96 366 -2 q 262 -150 303 -150 q 246 -139 252 -150 q 240 -117 240 -129 q 252 -79 240 -106 q 282 -14 264 -52 q 323 66 300 23 q 366 149 345 110 q 402 218 386 188 q 425 260 418 248 l 433 276 l 222 275 q 139 89 176 182 q 77 -63 102 -5 q 39 -136 52 -121 q 10 -151 26 -151 q -18 -113 -18 -151 q 30 1 -18 -94 q 93 127 77 96 q 122 184 109 158 q 145 231 135 211 q 160 260 155 250 l 168 276 l 150 276 l 98 274 q 43 294 43 274 q 127 330 43 330 l 186 328 l 194 328 l 262 469 l 244 469 l 182 466 q 121 488 121 466 q 212 524 121 524 l 281 521 l 289 521 q 455 888 401 724 q 509 912 463 912 q 532 908 528 912 q 535 894 535 904 q 523 858 535 884 q 493 796 511 831 q 453 721 475 761 q 411 645 431 681 q 374 579 391 608 q 351 538 358 551 l 342 521 l 551 521 q 698 861 644 708 q 720 902 708 891 q 756 912 732 912 q 786 906 781 912 q 792 890 792 901 q 781 853 792 880 q 752 793 770 827 q 714 719 735 758 q 673 644 693 680 q 638 579 654 608 q 616 538 623 551 l 607 522 l 626 522 l 680 523 q 746 504 746 523 q 660 466 746 466 l 587 469 l 579 469 l 511 329 l 529 329 l 589 331 q 667 307 667 331 q 576 273 667 273 z "},"$":{"ha":664,"x_min":5,"x_max":622,"o":"m 280 560 l 346 511 l 398 783 l 384 781 q 274 741 322 775 q 226 653 226 707 q 280 560 226 600 m 340 341 l 337 325 q 310 185 323 259 q 279 23 297 112 l 292 23 q 452 103 407 23 q 467 165 467 132 q 440 255 467 219 q 353 332 414 291 l 340 341 m 425 918 q 445 945 431 945 q 459 922 459 945 q 458 913 459 915 l 439 814 q 622 776 545 809 l 607 618 q 602 617 604 617 q 599 617 602 617 q 591 631 597 617 q 585 670 585 646 q 543 747 585 721 q 433 783 501 774 l 373 498 l 448 444 q 577 294 560 362 q 583 241 583 269 q 491 60 583 121 q 275 0 399 0 l 254 -94 q 232 -126 248 -126 q 216 -96 216 -126 q 217 -89 216 -93 l 236 3 q 5 70 96 10 l 56 250 q 61 250 57 250 q 68 218 68 243 l 66 193 q 117 85 66 128 q 245 28 168 43 l 309 357 l 226 414 q 127 564 127 483 q 173 701 127 645 q 284 785 219 756 q 404 814 349 814 l 425 918 z "},"%":{"ha":1058,"x_min":76,"x_max":1005,"o":"m 272 10 q 161 -93 207 -93 q 124 -83 137 -93 q 159 -39 141 -60 q 193 6 176 -17 l 674 688 q 712 758 686 705 q 788 892 762 857 q 866 946 828 946 q 924 937 904 946 l 272 10 m 233 399 q 117 449 157 399 q 76 579 76 500 q 145 791 76 693 q 259 886 192 858 q 332 900 293 900 q 441 847 404 900 q 479 718 479 794 q 411 503 479 607 q 233 399 342 399 m 753 -4 q 641 46 680 -4 q 602 160 602 96 q 672 385 602 284 q 851 486 743 486 q 966 435 926 486 q 1005 306 1005 384 q 933 97 1005 197 q 753 -4 861 -4 m 388 821 q 384 829 388 821 q 363 847 379 837 q 318 857 347 857 q 266 840 290 857 q 222 795 241 823 q 170 673 189 747 q 151 566 151 600 q 172 472 151 505 q 232 439 193 439 q 296 457 272 439 q 338 502 320 474 q 387 626 370 551 q 404 735 404 702 q 401 787 404 768 q 388 821 397 806 m 910 410 q 905 417 910 410 q 884 434 901 425 q 839 444 867 444 q 787 427 810 444 q 745 384 763 410 q 693 261 711 332 q 676 157 676 190 q 754 36 676 36 q 817 53 793 36 q 859 96 841 70 q 910 218 892 145 q 927 324 927 290 q 923 376 927 358 q 910 410 920 395 z "},"&":{"ha":1107,"x_min":66,"x_max":1143,"o":"m 218 528 q 119 355 119 485 q 137 278 119 317 q 184 211 155 239 q 328 135 239 159 q 484 111 417 111 q 595 115 551 111 q 682 132 639 120 q 839 213 780 158 q 899 367 899 268 q 831 528 899 467 q 651 589 764 589 q 526 553 581 589 q 471 460 471 517 q 506 366 471 403 q 586 328 541 328 q 631 366 631 328 l 627 417 q 642 458 627 443 q 675 474 656 474 q 729 454 710 474 q 747 405 747 434 q 703 314 747 349 q 612 279 659 279 q 474 324 526 279 q 422 434 422 369 q 505 618 422 553 q 701 684 587 684 q 850 662 752 684 q 983 639 949 639 q 1065 663 1038 639 q 1093 727 1093 686 q 1061 793 1093 768 q 1037 801 1050 801 q 1016 792 1025 801 q 997 772 1006 783 q 952 742 972 742 q 899 756 918 742 q 880 793 880 771 q 904 846 880 829 q 962 863 928 863 q 1090 826 1038 863 q 1143 716 1143 789 q 1093 598 1143 643 q 974 553 1044 553 q 926 556 950 553 q 879 560 903 559 q 942 422 930 481 q 947 368 947 397 q 807 91 947 192 q 513 0 684 0 q 212 88 342 0 q 85 237 122 148 q 66 338 66 283 q 197 570 66 483 q 176 668 176 614 q 242 822 176 762 q 393 882 309 882 q 479 861 446 882 q 539 772 539 823 q 520 728 539 749 q 479 708 501 708 q 382 736 449 708 q 283 764 316 764 q 222 669 222 764 q 238 587 222 627 q 304 601 281 601 q 346 586 327 601 q 366 542 366 572 q 347 493 366 513 q 300 474 328 474 q 218 528 250 474 z "},"'":{"ha":294,"x_min":114,"x_max":254,"o":"m 209 871 q 254 834 254 871 q 223 724 254 813 q 168 580 192 635 q 126 522 144 525 l 126 521 q 114 574 114 527 q 122 714 114 648 q 136 810 130 781 q 209 871 149 871 z "},"(":{"ha":431,"x_min":63,"x_max":460,"o":"m 433 890 l 435 890 q 447 880 438 890 q 460 857 455 869 l 460 857 q 180 163 180 562 q 229 -169 180 5 q 200 -182 207 -182 q 191 -179 193 -182 q 73 116 104 -77 q 63 255 63 179 q 144 590 63 435 q 433 890 239 773 z "},")":{"ha":437,"x_min":-42,"x_max":355,"o":"m -14 -179 l -16 -180 q -28 -169 -20 -180 q -42 -146 -37 -158 l -41 -146 q 238 548 238 153 q 189 880 238 705 q 218 892 212 892 q 227 890 225 892 q 345 595 315 785 q 355 456 355 532 q 275 120 355 277 q -14 -179 180 -64 z "},"*":{"ha":769,"x_min":91,"x_max":781,"o":"m 410 498 q 174 212 242 212 q 146 223 159 212 q 133 252 133 235 q 220 363 133 283 q 388 509 272 414 l 119 570 q 99 584 107 574 q 91 606 91 594 q 112 652 91 631 q 160 673 133 673 q 404 537 188 673 q 427 829 404 746 q 451 863 432 850 q 491 876 469 876 q 530 837 530 876 q 529 830 530 833 l 531 831 q 432 535 506 721 q 743 673 711 673 q 771 661 761 673 q 781 629 781 649 q 764 592 781 610 q 726 570 748 575 l 440 511 q 589 271 589 320 q 566 231 589 250 q 526 212 543 212 q 485 238 492 212 l 410 498 z "},"+":{"ha":620,"x_min":14,"x_max":595,"o":"m 31 355 q 14 377 14 367 q 18 410 14 388 l 17 412 q 135 424 56 424 l 274 424 l 302 562 q 310 601 307 580 q 320 652 313 623 q 340 682 327 682 q 391 678 367 682 q 371 567 386 635 l 342 423 l 484 423 q 595 418 555 423 q 593 390 593 402 q 590 370 593 378 q 543 352 582 352 l 466 355 l 328 355 l 300 216 q 293 176 296 197 q 282 126 289 155 q 262 96 275 96 q 210 101 243 96 q 231 212 216 138 l 260 355 l 31 355 z "},",":{"ha":400,"x_min":54,"x_max":288,"o":"m 102 -144 l 54 -79 l 68 -68 q 103 -45 87 -55 q 130 -25 119 -35 q 154 30 154 -4 q 136 85 154 42 q 118 141 118 129 q 139 183 118 165 q 185 201 159 201 q 260 168 233 201 q 288 94 288 135 q 238 -37 288 23 q 123 -132 188 -96 l 102 -144 z "},"-":{"ha":492,"x_min":85,"x_max":397,"o":"m 397 322 q 372 244 381 244 l 85 244 l 90 268 q 109 322 101 322 l 397 322 z "},".":{"ha":361,"x_min":76,"x_max":250,"o":"m 76 88 q 131 174 76 155 q 163 179 146 179 q 224 156 199 179 q 250 88 250 132 q 195 3 250 22 q 163 -2 180 -2 q 101 21 127 -2 q 76 88 76 45 z "},"/":{"ha":456,"x_min":20,"x_max":642,"o":"m 642 935 q 447 582 564 775 q 262 277 330 388 q 152 88 195 167 q 73 -44 108 9 q 39 -47 58 -47 l 20 -47 l 20 -43 q 62 74 20 3 l 454 739 q 480 789 464 757 q 592 951 555 934 q 642 935 623 951 z "},":":{"ha":392,"x_min":63,"x_max":307,"o":"m 63 102 q 118 187 63 168 q 151 193 134 193 q 212 169 186 193 q 237 102 237 146 q 182 17 237 36 q 151 12 167 12 q 89 35 114 12 q 63 102 63 58 m 133 526 q 188 611 133 592 q 220 616 203 616 q 282 593 256 616 q 307 526 307 570 q 252 441 307 460 q 220 435 237 435 q 159 459 184 435 q 133 526 133 482 z "},";":{"ha":402,"x_min":20,"x_max":324,"o":"m 150 526 q 205 611 150 592 q 237 616 220 616 q 299 593 273 616 q 324 526 324 570 q 269 441 324 460 q 237 435 254 435 q 176 459 201 435 q 150 526 150 482 m 68 -144 l 20 -79 l 35 -68 q 70 -45 54 -55 q 96 -25 85 -35 q 120 30 120 -4 q 102 85 120 42 q 84 141 84 129 q 105 183 84 165 q 152 201 126 201 q 226 168 199 201 q 254 94 254 135 q 204 -37 254 23 q 89 -132 154 -96 l 68 -144 z "},"<":{"ha":427,"x_min":47,"x_max":411,"o":"m 235 24 q 216 27 222 24 q 204 45 211 31 l 47 372 q 124 464 68 394 q 274 642 231 600 q 385 712 342 712 q 404 706 397 712 q 411 690 411 699 l 411 688 q 297 557 368 625 q 185 451 227 489 q 108 377 143 412 q 146 308 115 362 q 265 60 265 97 q 235 24 265 24 z "},"=":{"ha":576,"x_min":81,"x_max":487,"o":"m 155 279 l 124 279 q 81 293 81 279 q 140 319 81 317 q 381 319 140 319 q 454 302 454 319 q 401 278 454 278 l 366 279 l 155 279 m 189 444 l 159 443 q 115 457 115 443 q 174 483 115 481 l 414 483 q 487 467 487 483 q 435 442 487 442 l 401 444 l 189 444 z "},">":{"ha":454,"x_min":15,"x_max":385,"o":"m 312 374 q 263 448 292 410 q 206 526 234 486 q 140 685 140 621 q 169 711 140 703 q 188 713 176 713 q 220 698 199 713 q 264 658 241 683 q 349 533 313 603 q 385 428 385 464 q 373 377 385 391 l 79 48 q 28 24 56 24 l 28 24 q 15 37 15 24 q 34 76 15 50 q 81 135 52 102 q 146 205 111 168 q 214 276 181 243 q 274 336 247 309 q 312 374 300 362 z "},"?":{"ha":547,"x_min":137,"x_max":639,"o":"m 235 160 q 253 160 235 160 q 290 140 270 160 q 309 96 309 121 q 277 23 309 54 q 209 -9 244 -9 q 155 11 174 -9 q 137 55 137 31 q 146 97 137 79 q 169 129 155 115 q 235 160 201 160 m 256 743 q 214 795 214 743 q 235 842 214 821 q 299 883 256 864 q 399 901 342 901 q 570 841 500 901 q 639 701 639 780 q 591 554 639 622 q 453 436 544 486 q 328 349 361 386 q 286 269 295 312 l 281 243 l 226 243 q 229 313 229 267 q 234 385 229 359 q 264 429 239 410 q 323 466 289 447 q 469 556 431 525 q 547 696 547 619 q 508 788 547 750 q 414 826 469 826 q 372 813 391 826 q 334 785 353 800 q 296 756 315 769 q 256 743 277 743 z "},"@":{"ha":1159,"x_min":22,"x_max":1127,"o":"m 770 165 q 808 127 770 127 q 896 197 846 127 q 976 368 945 267 q 1006 540 1006 469 q 933 740 1006 674 q 747 806 861 806 q 508 743 632 806 q 289 563 385 680 q 163 293 194 446 q 155 202 155 251 q 177 107 155 153 q 241 30 199 60 q 474 -33 325 -33 q 728 5 585 -33 l 713 -45 q 410 -106 569 -106 q 136 -27 250 -106 q 22 203 22 53 q 85 444 22 315 q 296 705 160 596 q 438 798 363 760 q 762 878 597 878 q 1027 793 926 878 q 1127 550 1127 707 q 1048 276 1127 417 q 855 84 970 136 q 780 66 815 66 q 694 103 721 66 q 667 196 668 140 q 455 102 572 102 q 297 270 297 102 q 356 463 297 361 q 509 629 414 564 q 709 694 605 694 q 858 549 858 694 q 834 405 858 481 q 797 283 811 328 q 770 165 770 199 m 405 269 q 494 168 405 168 q 673 241 573 168 q 712 359 692 300 q 753 549 753 476 q 686 641 753 641 q 554 579 619 641 q 447 428 490 517 q 405 269 405 339 z "},"A":{"ha":867,"x_min":-51,"x_max":797,"o":"m 581 319 l 581 703 l 341 319 l 581 319 m 452 0 q 448 15 448 0 q 460 50 448 29 q 570 122 552 50 q 577 202 577 155 q 579 277 577 249 l 306 277 q 281 240 301 269 q 201 97 201 125 q 298 50 201 50 q 304 34 304 46 l 304 20 q 298 0 304 0 l -45 0 q -51 16 -51 0 q -38 50 -51 31 q 55 72 18 50 q 122 143 91 94 l 586 857 l 696 857 l 678 136 q 745 53 678 63 q 790 50 765 50 q 797 35 797 47 l 797 20 q 790 0 797 0 l 452 0 z "},"B":{"ha":843,"x_min":-41,"x_max":812,"o":"m -36 0 q -41 16 -41 0 q -28 50 -41 33 q 54 66 31 50 q 106 149 94 94 q 138 297 117 204 q 196 561 169 429 q 222 727 222 693 q 215 773 222 761 q 196 791 207 785 q 171 800 184 798 q 138 805 157 802 q 119 820 119 808 q 127 857 119 838 l 494 857 q 797 736 736 857 q 812 666 812 707 q 748 532 812 589 q 602 458 685 475 q 769 254 769 404 q 602 34 769 89 q 424 3 513 5 q 286 0 335 0 l -36 0 m 657 256 q 414 430 657 430 l 277 430 q 241 244 258 335 q 204 60 224 153 l 341 60 q 606 127 532 60 q 657 256 657 174 m 407 479 q 644 543 566 479 q 695 650 695 585 q 570 793 695 755 q 487 807 525 807 q 393 792 418 807 q 343 715 358 773 q 287 479 311 595 l 407 479 z "},"C":{"ha":821,"x_min":68,"x_max":850,"o":"m 401 -23 q 266 13 330 -23 q 158 109 202 50 q 68 389 68 227 q 129 625 68 511 q 294 811 189 740 q 522 882 399 882 q 738 829 644 882 q 850 652 850 766 q 836 612 850 629 q 800 595 822 595 q 766 604 778 595 q 746 629 753 614 q 732 664 738 644 q 718 704 726 684 q 553 813 676 813 q 289 651 387 813 q 232 526 260 604 q 203 370 203 448 q 254 147 203 224 q 433 57 314 57 q 610 113 524 57 q 745 252 696 169 l 802 206 q 636 40 741 104 q 401 -23 531 -23 z "},"D":{"ha":922,"x_min":-41,"x_max":883,"o":"m 418 60 q 601 152 520 60 q 710 350 670 230 q 749 544 749 471 q 734 661 749 617 q 690 737 720 705 q 519 807 629 807 l 460 807 q 388 795 414 807 q 352 744 362 783 l 205 60 l 418 60 m 513 857 q 774 762 666 857 q 883 517 883 667 q 824 273 883 393 q 662 76 765 153 q 431 0 558 0 l -36 0 l -41 12 l -28 50 q 52 64 29 50 q 105 144 90 89 q 235 742 235 644 q 177 802 235 795 q 141 805 162 803 q 119 820 119 808 q 134 857 119 841 l 513 857 z "},"E":{"ha":776,"x_min":-41,"x_max":808,"o":"m 808 657 q 770 640 789 640 q 739 652 751 640 q 727 703 733 675 q 627 807 702 807 l 401 807 q 350 753 361 807 l 286 477 l 492 477 q 545 492 529 477 q 569 518 562 508 q 593 545 577 529 q 644 560 608 560 l 581 323 l 550 323 q 513 415 544 389 q 481 426 500 426 l 274 426 q 253 343 265 385 q 221 228 240 300 q 202 87 202 155 q 212 67 202 75 q 237 60 221 60 l 456 60 q 624 141 568 60 q 650 201 642 167 q 694 212 677 212 q 721 210 711 212 q 738 207 730 208 l 662 0 l -36 0 l -41 13 q -26 51 -41 33 q 54 73 26 51 q 93 140 82 95 q 117 235 104 186 q 145 338 131 284 q 227 720 227 635 q 217 778 227 766 q 130 807 198 804 q 125 828 125 817 q 140 857 125 840 l 808 857 l 808 657 z "},"F":{"ha":722,"x_min":-41,"x_max":786,"o":"m 786 654 q 748 637 767 637 q 718 649 730 637 q 705 700 711 672 q 605 807 680 807 l 410 807 q 359 753 370 807 l 288 438 l 518 438 q 597 479 561 438 q 620 508 610 495 q 637 521 630 521 l 683 521 l 620 284 l 582 284 q 545 382 576 355 q 513 394 532 394 l 277 394 q 260 324 270 359 q 234 230 250 289 q 218 113 218 170 q 330 50 218 56 q 331 40 330 45 q 332 23 332 35 q 323 0 332 11 l -35 0 l -41 13 q -26 51 -41 35 q 56 66 32 51 q 106 139 95 92 q 132 234 118 185 q 160 338 145 283 q 240 722 240 637 q 232 778 240 765 q 208 797 223 790 q 144 807 193 803 q 141 833 141 819 q 151 857 141 847 l 786 857 l 786 654 z "},"G":{"ha":884,"x_min":68,"x_max":880,"o":"m 644 292 q 543 360 644 356 l 553 412 l 880 412 l 864 360 q 751 241 791 360 q 721 133 732 184 q 704 62 710 82 q 434 -23 578 -23 q 164 97 259 -23 q 68 397 68 217 q 132 635 68 522 q 412 864 230 807 q 529 882 471 882 q 736 825 651 882 q 833 650 833 760 q 819 610 833 627 q 781 593 804 593 q 746 609 757 593 q 727 650 734 625 q 710 703 719 674 q 538 813 676 813 q 361 743 438 813 q 242 569 283 673 q 200 357 200 466 q 260 156 200 248 q 445 50 330 50 q 602 94 535 50 q 616 142 608 117 q 644 292 644 237 z "},"H":{"ha":913,"x_min":-41,"x_max":1004,"o":"m 831 50 q 835 24 835 39 q 824 0 835 9 l 476 0 l 471 13 l 484 50 q 561 66 539 50 q 610 147 597 94 l 677 429 l 290 429 q 268 351 280 391 q 237 243 256 311 q 218 132 218 174 q 229 77 218 90 q 326 50 251 54 q 327 40 326 45 q 328 23 328 35 q 317 0 328 11 l -36 0 l -41 13 l -26 51 q 54 66 31 51 q 103 139 92 93 q 127 235 114 185 q 156 339 141 284 q 214 571 189 458 q 239 749 239 684 q 165 805 239 800 q 132 807 146 806 q 130 817 131 812 q 129 834 129 821 q 140 857 129 846 l 488 857 q 492 838 492 848 q 479 807 492 827 q 401 791 422 807 q 353 709 365 765 l 298 469 l 685 469 q 704 537 693 503 q 730 631 714 572 q 745 729 745 690 q 734 780 745 768 q 705 798 723 792 q 637 806 687 804 q 636 817 637 812 q 635 834 635 821 q 646 857 635 846 l 999 857 l 1004 844 l 990 806 q 909 791 931 806 q 859 710 872 765 q 838 629 851 678 q 810 521 825 579 q 724 123 724 186 q 735 77 724 89 q 831 50 757 54 z "},"I":{"ha":390,"x_min":-41,"x_max":481,"o":"m -35 0 q -41 21 -41 7 q -26 52 -41 35 q 54 66 31 52 q 103 140 92 93 q 127 236 114 186 q 153 340 140 286 q 231 725 231 640 q 221 780 231 768 q 132 807 201 804 q 131 817 132 812 q 130 834 130 821 q 140 857 130 847 l 476 857 q 481 837 481 848 q 467 807 481 826 q 385 792 408 807 q 338 719 349 766 q 313 621 326 671 q 286 517 300 572 q 210 132 210 220 q 220 78 210 90 q 246 59 229 66 q 309 50 263 52 q 310 40 309 45 q 311 23 311 35 q 301 0 311 10 l -35 0 z "},"J":{"ha":513,"x_min":-144,"x_max":604,"o":"m 600 857 q 604 841 604 857 q 590 807 604 825 q 509 792 532 807 q 459 710 469 766 l 357 176 q 216 -127 315 -47 q 52 -181 149 -181 q -47 -167 -6 -181 q -144 -87 -144 -134 q -127 -44 -144 -57 q -87 -31 -109 -31 q -46 -45 -66 -31 q -5 -75 -26 -59 q 36 -105 15 -92 q 86 -119 58 -119 q 139 -97 115 -119 q 182 -36 163 -75 q 218 87 201 3 l 351 720 q 354 753 354 738 q 256 807 354 803 q 253 831 253 813 q 263 857 253 848 l 600 857 z "},"K":{"ha":912,"x_min":-41,"x_max":936,"o":"m 131 807 q 129 817 130 812 q 128 834 128 822 q 136 857 128 846 l 488 857 l 473 807 q 392 783 421 806 q 351 709 362 760 l 301 469 q 345 499 314 478 q 413 548 375 521 q 644 753 644 713 q 600 802 644 787 q 578 806 589 805 l 589 857 l 936 857 l 920 807 q 739 711 882 803 q 540 545 596 619 q 526 516 526 526 q 539 477 526 505 q 573 410 552 448 q 618 328 593 372 q 665 245 642 285 q 705 176 688 206 q 731 131 723 146 q 775 73 752 93 q 838 51 798 52 l 828 0 l 530 0 l 544 50 q 606 75 587 54 q 614 91 614 83 q 602 127 614 99 q 571 195 590 155 q 529 281 552 235 q 486 371 507 328 q 448 446 465 413 q 426 491 432 479 l 284 393 q 267 325 277 359 q 240 232 256 290 q 224 114 224 173 q 324 51 224 55 l 315 0 l -35 0 l -41 13 l -26 51 q 56 66 32 51 q 109 146 95 92 q 121 199 113 166 q 139 272 130 231 q 160 359 149 313 q 182 452 171 405 q 237 724 237 688 q 227 773 237 760 q 131 807 205 804 z "},"L":{"ha":676,"x_min":-41,"x_max":664,"o":"m 578 202 l 600 210 q 664 206 645 210 l 587 0 l -35 0 l -41 12 l -26 50 q 55 65 32 50 q 108 145 93 90 q 235 739 235 634 q 205 790 235 775 q 130 807 176 805 q 127 833 127 819 q 138 857 127 848 l 501 857 l 486 807 q 404 791 429 807 q 347 711 360 763 q 324 613 341 686 q 295 490 307 541 q 272 388 283 439 q 213 88 213 122 q 322 50 213 50 q 474 71 431 50 q 540 121 516 91 q 578 201 564 151 l 578 202 z "},"M":{"ha":1109,"x_min":-56,"x_max":1191,"o":"m 187 111 q 304 50 187 50 q 307 25 307 39 q 296 0 307 11 l -51 0 l -56 13 l -41 51 q 40 66 16 51 q 95 146 80 92 q 108 198 100 165 q 127 272 117 231 q 149 359 137 313 q 171 454 160 406 q 213 641 198 567 q 228 738 228 715 q 189 795 228 779 q 117 808 159 808 l 116 827 q 127 857 115 844 l 457 857 l 520 195 l 894 857 l 1186 857 q 1191 837 1191 848 q 1177 807 1191 826 q 1095 784 1122 807 q 1057 716 1067 762 q 1032 622 1046 671 q 1004 518 1019 572 q 945 288 970 401 q 920 109 920 174 q 998 53 920 61 q 1031 50 1018 51 q 1033 40 1032 45 q 1034 23 1034 35 q 1023 0 1034 11 l 671 0 l 667 13 l 680 50 q 761 66 738 50 q 812 147 799 92 l 967 795 q 942 750 959 781 q 900 677 924 720 q 846 583 876 635 q 784 477 817 532 q 719 366 752 422 q 653 256 685 309 q 537 78 588 150 q 471 5 486 5 q 441 50 446 5 l 346 788 q 320 691 336 747 q 287 572 304 635 q 213 287 238 397 q 187 111 187 176 z "},"N":{"ha":939,"x_min":-41,"x_max":1036,"o":"m 688 149 q 819 748 819 728 q 780 797 819 783 q 715 807 753 807 q 706 837 706 817 l 708 857 l 1034 857 l 1036 837 q 1027 807 1036 817 q 945 785 973 807 q 905 709 917 762 l 742 -20 q 677 -27 705 -32 q 646 -16 649 -23 l 340 793 q 280 530 314 686 q 234 316 246 373 q 206 184 221 259 q 191 98 191 110 q 227 63 191 75 q 299 50 262 52 q 301 40 300 45 q 302 23 302 35 q 291 0 302 11 l -35 0 l -36 -1 l -41 12 l -26 50 q 54 65 31 50 q 105 145 94 92 q 115 190 108 158 q 133 265 123 222 q 154 359 142 308 q 178 461 166 410 q 240 750 240 732 q 232 777 240 768 q 210 791 223 786 q 160 804 195 798 q 125 818 125 809 q 134 857 125 835 l 429 857 l 688 149 z "},"O":{"ha":840,"x_min":68,"x_max":825,"o":"m 195 358 q 297 80 195 151 q 390 53 335 53 q 487 75 445 53 q 563 134 530 98 q 660 310 625 202 q 696 511 696 418 q 556 800 696 745 q 478 813 524 813 q 391 789 432 813 q 319 726 351 765 q 227 539 259 652 q 195 358 195 426 m 499 882 q 636 853 574 882 q 741 772 699 823 q 825 486 825 667 q 711 149 825 305 q 383 -23 585 -23 q 151 89 233 -23 q 68 380 68 201 q 178 713 68 560 q 499 882 299 882 z "},"P":{"ha":749,"x_min":-41,"x_max":801,"o":"m 228 115 q 344 50 228 50 q 347 25 347 39 q 336 0 347 12 l -35 0 l -41 13 l -26 51 q 60 65 37 51 q 116 146 102 90 l 129 197 q 247 741 247 669 q 117 808 247 808 l 114 827 q 125 857 114 845 l 302 857 q 706 789 591 857 q 801 633 801 734 q 732 500 801 554 q 422 415 626 415 q 389 443 389 415 q 413 465 389 465 q 466 469 436 465 q 524 480 495 472 q 630 536 590 498 q 669 635 669 574 q 500 793 669 753 q 378 807 442 807 q 338 644 369 768 q 252 279 275 389 q 228 115 228 168 z "},"Q":{"ha":847,"x_min":68,"x_max":831,"o":"m 187 -174 q 180 -174 187 -174 q 162 -163 174 -174 q 151 -141 151 -152 q 221 -70 151 -127 q 306 1 290 -13 q 132 161 195 56 q 68 384 68 265 q 122 616 68 503 q 368 861 210 798 q 478 882 421 882 q 581 867 534 882 q 667 826 628 852 q 788 683 744 772 q 831 489 831 593 q 777 263 831 385 q 630 59 723 142 q 427 -24 538 -24 q 406 -21 414 -24 l 317 -79 q 675 -144 509 -136 q 686 -190 686 -161 q 678 -226 686 -218 q 645 -235 670 -235 q 583 -227 620 -235 q 509 -209 547 -220 q 379 -165 469 -197 q 269 -134 290 -134 q 239 -140 248 -134 q 215 -160 230 -146 q 187 -174 201 -174 m 647 723 q 494 813 592 813 q 326 727 396 813 q 236 547 269 657 q 203 344 203 437 q 248 162 203 251 q 395 56 301 56 q 557 137 490 56 q 660 329 625 217 q 694 511 694 440 q 647 723 694 647 z "},"R":{"ha":848,"x_min":-41,"x_max":814,"o":"m 220 115 q 332 51 220 51 l 338 28 l 327 0 l -35 0 l -41 12 l -26 50 q 56 64 33 50 q 109 145 94 89 q 177 424 140 258 q 226 651 214 589 q 238 735 238 714 q 131 806 238 802 q 127 831 127 818 q 138 857 127 845 l 374 857 q 734 789 631 857 q 814 633 814 736 q 723 472 814 531 q 532 412 652 426 q 616 168 600 208 q 680 77 646 94 q 780 64 703 64 q 797 65 789 64 q 763 -7 797 12 q 721 -13 751 -13 q 660 -7 691 -13 q 606 15 629 -1 q 524 134 562 44 q 425 406 502 184 l 277 406 q 259 336 269 373 q 220 115 220 187 m 694 648 q 418 808 694 808 l 367 807 l 290 464 q 624 515 537 464 q 688 596 677 546 q 694 648 694 621 z "},"S":{"ha":704,"x_min":28,"x_max":715,"o":"m 361 47 q 520 197 520 47 q 410 373 520 279 q 347 427 379 400 q 227 542 261 498 q 173 673 173 611 q 250 831 173 780 q 433 882 328 882 q 619 835 538 882 q 715 680 715 779 q 700 641 715 658 q 661 624 686 624 q 624 638 636 624 q 603 673 612 652 q 586 719 595 694 q 419 813 552 813 q 298 739 329 813 q 288 685 288 716 q 303 625 288 654 q 342 568 318 595 q 398 514 367 541 q 461 461 429 488 q 581 346 548 389 q 635 210 635 276 q 555 36 635 93 q 355 -22 476 -22 q 131 48 233 -22 q 28 241 28 118 q 43 280 28 263 q 80 297 58 297 q 114 286 102 297 q 135 258 127 275 q 151 218 144 240 q 167 172 157 195 q 232 81 189 115 q 361 47 275 47 z "},"T":{"ha":752,"x_min":33,"x_max":846,"o":"m 410 61 q 481 50 434 52 q 483 40 481 45 q 484 23 484 35 q 470 0 484 12 l 92 0 l 86 13 l 100 51 q 187 65 161 51 q 248 146 237 92 l 391 807 l 226 807 q 171 761 199 807 q 146 719 159 741 q 69 630 100 630 q 33 647 47 630 l 81 857 l 846 857 l 802 654 q 757 631 777 631 q 731 644 737 631 q 721 676 724 657 q 715 719 718 696 q 672 807 708 807 l 517 807 q 475 630 507 758 q 428 432 444 502 q 397 300 411 362 q 368 118 368 161 q 410 61 368 75 z "},"U":{"ha":901,"x_min":96,"x_max":994,"o":"m 96 827 q 107 857 96 845 l 458 857 l 464 844 l 450 807 q 365 786 393 807 q 325 709 337 765 l 248 374 q 239 300 239 340 q 292 139 239 210 q 442 69 344 69 q 608 156 540 69 q 688 336 664 227 l 763 673 q 771 747 771 710 q 665 807 771 807 l 662 827 q 673 857 662 845 l 988 857 l 994 844 l 979 807 q 899 791 922 807 q 848 709 862 765 l 762 329 q 535 5 707 85 q 401 -23 475 -23 q 192 70 266 -23 q 119 294 119 163 q 130 378 119 338 l 209 703 q 212 731 212 715 q 186 788 212 769 q 120 807 159 807 l 99 807 l 96 827 z "},"V":{"ha":804,"x_min":39,"x_max":916,"o":"m 602 805 q 597 805 602 805 q 585 809 592 806 q 578 823 578 812 q 587 857 578 834 l 913 857 l 912 855 q 916 831 916 847 q 906 805 916 814 q 814 781 851 804 q 748 712 778 758 l 281 -5 l 172 -5 l 178 720 q 142 788 178 769 q 91 802 123 799 q 50 808 60 806 q 39 824 39 811 q 49 857 39 837 l 407 857 q 410 829 410 844 q 402 807 410 815 q 323 792 343 807 q 285 707 285 764 l 279 137 q 309 182 288 151 q 359 257 330 214 q 422 352 388 300 q 491 456 456 403 q 613 649 557 555 q 669 759 669 742 q 662 785 669 777 q 645 798 655 794 q 624 803 635 802 q 602 805 612 804 z "},"W":{"ha":1275,"x_min":28,"x_max":1387,"o":"m 793 141 q 1128 765 1128 712 q 1078 803 1128 799 q 1047 805 1065 804 q 1028 820 1028 807 q 1038 857 1028 837 l 1383 857 q 1387 832 1387 848 q 1377 806 1387 817 q 1211 713 1263 806 l 811 -5 l 701 -5 l 644 589 l 320 -5 l 210 -5 l 166 720 q 94 801 161 793 q 62 804 77 803 q 38 808 47 805 q 28 824 28 810 q 38 857 28 837 l 399 857 q 403 829 403 844 q 394 806 403 814 q 316 793 337 806 q 275 715 275 768 q 287 431 275 574 q 307 146 298 288 q 362 246 326 182 q 427 360 399 309 q 484 462 455 410 q 631 761 631 728 q 587 803 631 799 q 559 806 575 804 q 543 821 543 808 q 551 857 543 834 l 876 857 q 879 831 879 847 q 870 806 879 815 q 789 796 812 806 q 741 726 741 776 q 755 487 741 615 q 778 284 769 359 q 793 141 787 209 z "},"X":{"ha":859,"x_min":-79,"x_max":939,"o":"m -73 0 q -77 13 -77 0 l -79 14 q -64 52 -79 35 q 37 75 -6 52 q 124 147 79 99 l 399 441 l 246 710 q 185 785 215 764 q 100 806 155 806 q 86 840 86 823 q 91 857 86 857 l 441 857 q 452 831 452 848 q 448 806 452 814 q 345 751 345 801 q 380 668 345 728 q 430 585 416 608 q 455 543 444 562 q 471 515 466 524 q 498 542 479 524 q 540 583 517 560 q 682 747 682 720 q 655 790 682 774 q 604 806 629 805 q 601 831 601 814 q 611 857 601 848 l 933 857 q 939 841 939 857 q 924 805 939 824 q 827 780 869 805 q 743 710 786 755 l 504 456 l 675 147 q 735 73 705 94 q 821 52 765 52 q 836 14 836 34 l 834 13 q 829 0 834 0 l 479 0 q 469 26 469 9 q 471 50 469 44 q 564 80 536 54 q 575 103 575 91 q 566 136 575 115 q 543 184 557 157 q 512 241 529 211 q 479 300 495 272 q 451 349 463 328 q 433 380 438 371 q 405 350 425 372 q 357 301 384 329 q 193 103 193 129 q 229 62 193 75 q 299 50 264 50 q 302 26 302 44 q 292 0 302 9 l -73 0 z "},"Y":{"ha":759,"x_min":15,"x_max":870,"o":"m 538 808 q 535 810 538 808 q 531 823 531 812 q 540 857 531 834 l 865 857 q 870 831 870 848 q 860 804 870 814 q 703 714 772 804 l 387 309 q 377 261 383 286 q 351 113 351 155 q 422 53 351 59 q 458 50 441 51 q 460 26 460 44 q 450 0 460 9 l 103 0 q 98 17 98 0 q 112 51 98 33 q 239 127 213 51 q 257 218 252 167 q 269 300 262 269 l 153 724 q 68 803 133 795 q 20 806 47 806 q 15 821 15 806 q 24 857 15 837 l 361 857 q 365 831 365 847 q 356 806 365 814 q 254 735 254 806 q 279 602 254 686 q 313 485 303 519 q 333 420 323 450 q 347 369 342 391 q 381 411 357 381 q 435 480 405 441 q 621 756 621 718 q 576 803 621 799 q 538 808 545 805 z "},"Z":{"ha":722,"x_min":-8,"x_max":758,"o":"m 756 857 q 758 840 758 849 q 751 785 758 817 q 734 739 744 754 q 696 687 724 724 q 627 602 667 650 q 540 495 587 553 q 444 380 492 438 q 279 184 379 303 q 168 51 178 64 l 405 51 q 561 141 501 51 q 597 201 579 168 q 631 211 602 211 q 684 207 661 211 l 608 0 l 21 0 q -5 30 5 0 q -8 43 -8 37 q -5 55 -8 50 q 298 412 82 155 q 633 806 514 669 l 351 806 q 195 716 254 806 q 160 656 177 688 q 123 646 155 646 q 73 650 92 646 l 149 857 l 756 857 z "},"[":{"ha":608,"x_min":20,"x_max":658,"o":"m 45 -123 q 20 -105 20 -123 q 46 20 20 -87 q 99 260 71 126 q 164 588 127 393 q 243 981 201 783 l 242 981 q 285 1019 247 1000 q 302 1023 294 1023 l 612 1026 q 658 1000 658 1026 q 639 961 658 973 q 593 948 620 948 l 318 948 q 250 656 287 802 q 98 -53 200 460 l 113 -53 l 346 -49 q 390 -89 390 -49 q 330 -133 390 -133 l 45 -123 z "},"\\":{"ha":366,"x_min":81,"x_max":281,"o":"m 268 -68 l 248 -70 q 223 6 229 -70 q 191 227 217 81 l 146 483 q 81 928 96 760 l 82 928 q 112 942 105 942 q 126 935 119 942 q 140 908 134 927 q 149 866 146 888 q 153 819 151 843 q 159 772 155 795 l 279 47 q 281 24 281 35 q 271 -68 281 14 l 268 -68 z "},"]":{"ha":576,"x_min":-43,"x_max":557,"o":"m 287 -123 l -3 -134 l -4 -134 q -35 -129 -26 -134 q -43 -111 -43 -124 q 58 -48 -43 -48 l 157 -54 l 264 -54 q 402 598 367 397 q 467 947 437 800 l 177 947 q 152 955 161 947 q 143 977 143 964 q 163 1012 143 1000 q 210 1025 184 1025 l 520 1021 q 545 1008 533 1021 q 557 984 557 996 q 500 642 557 847 q 451 471 477 556 q 405 287 426 387 q 371 106 383 187 q 349 -25 359 26 q 326 -100 339 -77 q 287 -123 313 -123 z "},"^":{"ha":634,"x_min":63,"x_max":574,"o":"m 365 911 q 369 915 365 911 q 381 926 372 920 q 405 932 389 932 q 437 921 420 932 l 437 921 q 473 820 454 872 q 574 508 548 618 q 539 497 546 497 q 528 501 532 497 q 462 621 488 551 q 423 733 437 690 q 393 814 409 775 l 385 831 l 373 817 q 309 716 342 780 q 214 559 245 597 q 103 501 164 501 q 63 506 78 501 q 216 716 124 600 q 327 857 308 832 q 352 892 346 882 q 365 911 358 903 z "},"_":{"ha":788,"x_min":108,"x_max":654,"o":"m 635 -45 q 654 -79 654 -57 q 621 -92 654 -92 l 576 -90 l 127 -90 q 109 -67 109 -79 q 108 -55 108 -62 q 204 -45 139 -45 l 635 -45 z "},"`":{"ha":374,"x_min":201,"x_max":427,"o":"m 419 676 q 208 907 406 676 l 207 907 q 201 921 201 912 q 220 956 201 937 q 256 974 238 974 q 284 955 274 974 q 313 902 295 935 q 378 783 331 869 q 426 693 425 697 q 427 686 427 688 q 419 676 427 676 z "},"a":{"ha":763,"x_min":48,"x_max":771,"o":"m 376 541 q 235 453 303 541 q 161 233 161 359 q 190 105 161 148 q 269 62 218 62 q 374 114 320 62 q 463 244 428 165 q 498 388 498 323 q 461 496 498 452 q 376 541 425 541 m 585 73 q 719 190 631 73 q 734 210 728 203 l 771 179 q 538 -14 642 -14 q 469 41 493 -14 q 459 87 459 65 l 459 111 q 460 122 459 115 q 463 143 461 130 q 468 178 465 156 q 229 -13 384 -13 q 100 45 153 -13 q 48 218 48 104 q 140 484 48 368 q 240 571 182 538 q 351 604 297 604 q 487 554 441 604 q 527 467 524 515 l 554 556 q 589 586 563 586 q 632 572 615 586 q 648 545 648 559 q 645 522 648 532 l 583 319 q 543 131 543 190 q 585 73 543 73 z "},"b":{"ha":682,"x_min":69,"x_max":640,"o":"m 318 911 q 341 888 341 911 q 331 833 341 877 l 235 485 q 447 604 317 604 q 585 550 531 604 q 640 405 640 496 q 529 111 640 236 q 368 3 460 33 q 274 -13 322 -13 q 69 202 69 -13 q 93 368 69 278 q 133 518 116 458 q 171 655 149 578 q 218 831 192 732 l 109 838 q 93 854 93 840 q 106 876 93 869 q 145 888 119 883 q 211 899 172 894 q 282 907 251 903 q 318 911 313 911 m 511 494 q 501 510 511 494 q 472 538 492 526 q 420 551 453 551 q 354 536 388 551 q 294 495 321 521 q 214 364 243 447 q 186 218 186 281 q 213 87 186 119 q 282 56 239 56 q 356 73 324 56 q 415 117 389 90 q 499 253 467 171 q 530 399 530 335 q 511 494 530 463 z "},"c":{"ha":613,"x_min":48,"x_max":587,"o":"m 587 168 q 304 -13 462 -13 q 209 7 256 -13 q 126 64 161 28 q 48 273 48 144 q 140 503 48 402 q 357 604 231 604 q 497 566 420 604 q 574 467 574 528 q 526 422 574 422 q 472 457 500 422 q 446 490 459 473 q 351 557 396 557 q 216 464 270 557 q 163 263 163 370 q 250 83 163 131 q 318 67 279 67 q 446 111 387 67 q 536 208 484 140 l 587 168 z "},"d":{"ha":773,"x_min":48,"x_max":795,"o":"m 499 823 q 481 830 481 823 q 488 860 481 841 q 499 878 495 878 l 701 903 q 707 903 704 903 l 713 903 q 732 899 728 903 q 736 879 736 895 q 726 825 736 863 l 560 201 q 557 188 559 197 q 550 161 555 179 q 546 127 546 144 q 558 79 546 97 q 592 62 570 62 q 631 74 613 62 q 667 108 648 86 q 707 160 686 130 q 754 226 728 190 l 795 194 q 696 60 730 95 q 553 -14 624 -14 q 467 102 467 -14 q 469 140 467 121 q 474 176 472 159 q 389 53 427 87 q 229 -13 315 -13 q 92 73 143 -13 q 48 228 48 146 q 141 494 48 383 q 367 604 233 604 q 465 567 417 604 q 522 467 512 530 q 530 502 522 471 q 551 581 538 533 q 580 688 564 629 q 612 808 596 747 l 616 823 l 499 823 m 378 547 q 231 446 290 547 q 171 229 171 344 q 225 73 171 114 q 274 58 245 58 q 330 73 303 58 q 382 113 357 87 q 461 235 428 159 q 494 363 494 311 q 486 447 494 416 q 465 496 477 477 q 378 547 431 547 z "},"e":{"ha":618,"x_min":48,"x_max":577,"o":"m 169 286 q 199 285 184 285 q 243 289 215 285 q 300 302 271 294 q 417 361 370 323 q 465 448 465 399 q 437 525 465 496 q 365 555 408 555 q 285 528 321 555 q 224 461 249 501 q 169 286 176 383 m 577 161 q 305 -13 451 -13 q 123 70 199 -13 q 48 280 48 153 q 144 506 48 408 q 369 604 240 604 q 501 560 442 604 q 560 437 560 515 q 479 308 560 358 q 236 241 397 257 q 168 236 196 238 l 168 210 q 210 102 168 151 q 315 54 253 54 q 488 142 409 54 q 530 191 509 166 l 577 161 z "},"f":{"ha":522,"x_min":9,"x_max":598,"o":"m 9 -198 q 138 191 67 -113 l 209 493 l 71 493 l 85 554 l 223 554 l 242 644 q 384 865 279 817 q 456 882 422 882 q 558 858 519 882 q 598 778 598 833 q 583 745 598 760 q 548 730 568 730 q 518 737 528 730 q 502 755 509 744 q 488 778 494 766 q 435 826 463 826 q 355 771 385 826 q 326 656 326 717 q 341 554 326 596 l 505 554 l 490 493 l 328 493 l 264 229 q 231 84 247 154 q 192 -45 215 14 q 135 -148 170 -104 q 43 -214 100 -192 l 9 -198 z "},"g":{"ha":665,"x_min":-49,"x_max":721,"o":"m 454 -126 q 159 -11 454 -66 q 111 -28 141 -11 q 45 -113 45 -66 q 234 -195 58 -193 q 273 -196 256 -196 q 454 -126 454 -196 m 264 217 q 321 203 288 203 q 419 263 382 203 q 456 399 456 323 q 388 544 456 504 q 332 558 365 558 q 234 497 272 558 q 197 363 197 437 q 264 217 197 257 m 530 492 q 563 373 563 420 q 502 222 563 281 q 342 163 441 163 q 267 172 297 163 q 232 181 237 181 q 180 168 210 181 q 150 132 150 155 q 166 97 150 109 q 210 74 182 84 q 272 56 237 64 q 343 39 307 48 q 480 -14 435 15 q 550 -117 544 -53 q 345 -237 550 -221 q 286 -240 315 -240 q 217 -239 256 -240 q 141 -233 179 -237 q -49 -110 -49 -211 q 81 -13 -49 -41 q 146 1 115 -5 l 81 27 q 36 89 36 45 q 109 171 36 132 q 174 195 136 184 l 193 201 l 178 215 q 90 392 90 299 q 154 545 90 486 q 321 604 218 604 q 510 517 423 604 q 654 608 582 608 q 700 591 678 608 q 721 548 721 573 q 683 514 721 514 q 667 518 675 514 q 641 529 659 522 q 612 537 623 537 q 530 492 580 537 z "},"h":{"ha":804,"x_min":33,"x_max":798,"o":"m 129 878 q 111 884 111 878 q 117 914 111 895 q 129 933 124 933 l 331 958 q 338 958 334 958 l 344 958 q 362 954 358 958 q 366 932 366 950 q 357 880 366 913 l 174 189 l 183 184 q 225 253 200 211 q 280 341 250 294 q 578 604 452 604 q 665 572 637 604 q 693 501 693 539 q 685 430 693 463 q 666 362 677 396 q 640 294 654 328 q 607 206 627 260 q 587 107 587 152 q 616 62 587 62 q 713 141 657 62 q 751 193 731 165 l 760 205 l 798 172 l 783 152 q 685 35 718 62 q 572 -13 626 -13 q 473 94 473 -13 q 495 222 473 159 q 531 321 516 285 q 567 410 545 357 q 588 482 588 463 q 554 526 588 526 q 283 222 474 526 l 155 28 q 87 -13 128 -13 q 49 3 65 -13 q 33 50 33 19 q 45 124 33 81 l 250 878 l 129 878 z "},"i":{"ha":430,"x_min":12,"x_max":430,"o":"m 342 740 q 260 789 285 740 q 252 831 252 805 q 270 873 252 858 q 308 889 288 889 q 367 868 344 889 q 395 812 391 848 q 378 756 395 772 q 342 740 361 740 m 347 142 l 386 200 l 430 170 l 389 109 q 211 -13 306 -13 q 133 23 163 -13 q 104 112 104 59 q 136 251 104 165 l 204 444 q 213 471 208 457 q 218 500 218 486 q 180 547 218 547 q 133 518 161 547 q 47 410 105 489 l 12 437 q 106 551 75 523 q 218 604 163 604 q 317 490 317 604 q 301 391 317 440 l 230 172 q 219 104 219 147 q 257 62 219 62 q 347 142 295 62 z "},"j":{"ha":405,"x_min":-158,"x_max":417,"o":"m 363 741 q 281 791 304 741 q 273 833 273 807 q 291 875 273 860 q 330 890 310 890 q 392 867 366 890 q 417 807 417 844 q 399 755 417 769 q 363 741 382 741 m 239 485 q 202 534 239 534 q 127 471 165 534 l 90 411 l 56 437 q 143 553 120 529 q 245 604 191 604 q 347 495 347 604 q 332 392 347 454 l 277 176 q 227 -7 243 42 q 136 -170 191 -111 q -11 -229 80 -229 q -143 -182 -101 -229 q -158 -140 -158 -165 q -115 -100 -158 -100 q -76 -110 -93 -100 q -28 -144 -58 -121 q 31 -167 3 -167 q 75 -151 60 -167 q 99 -113 90 -136 q 113 -66 109 -91 q 126 2 118 -41 q 150 107 134 44 q 182 234 166 170 l 227 416 q 239 485 239 460 z "},"k":{"ha":729,"x_min":31,"x_max":725,"o":"m 212 318 q 282 315 242 315 q 459 349 382 315 q 553 466 553 390 q 483 538 553 524 q 445 543 463 543 q 370 528 413 543 q 256 484 328 513 l 212 318 m 86 0 q 31 49 31 0 q 40 115 31 83 q 52 157 49 146 l 228 823 l 107 823 q 88 829 88 823 q 96 859 88 840 q 107 878 103 878 l 309 902 q 315 903 312 903 l 322 903 q 340 883 340 903 q 332 825 340 863 l 264 543 q 494 604 385 604 q 642 533 604 604 q 656 468 656 507 q 642 399 656 429 q 606 349 628 370 q 451 273 549 292 q 513 79 481 108 q 534 69 524 69 q 588 102 557 69 q 682 216 619 134 l 725 180 q 623 51 655 83 q 511 -13 559 -13 q 446 7 463 -13 q 396 127 419 39 l 362 256 q 342 256 352 256 q 321 256 332 256 q 204 277 254 256 l 167 119 q 140 35 151 53 q 86 0 120 0 z "},"l":{"ha":397,"x_min":57,"x_max":384,"o":"m 170 115 q 207 62 170 62 q 301 142 248 62 l 340 200 l 384 170 l 342 109 q 160 -13 260 -13 q 84 24 111 -13 q 57 105 57 60 q 67 185 57 151 q 88 259 77 220 l 244 830 l 135 837 q 119 854 119 840 q 132 875 119 868 q 171 888 144 882 q 269 902 198 893 q 344 911 339 911 q 367 887 367 911 q 357 832 367 876 l 180 174 q 170 115 170 138 z "},"m":{"ha":1260,"x_min":12,"x_max":1260,"o":"m 1063 604 q 1161 492 1161 604 q 1107 295 1161 429 q 1053 112 1053 161 q 1082 62 1053 62 q 1179 141 1123 62 q 1215 193 1195 165 l 1221 206 l 1260 173 l 1245 153 q 1152 36 1183 63 q 1041 -15 1093 -15 q 964 16 989 -15 q 940 87 940 46 q 948 165 940 127 q 968 239 956 202 q 995 312 981 277 q 1050 471 1050 450 q 1017 514 1050 514 q 824 321 957 514 q 698 119 748 212 q 632 7 648 27 q 598 -13 616 -13 q 536 53 536 -13 q 617 374 536 123 q 646 476 646 462 q 612 515 646 515 q 309 155 527 515 q 230 24 240 37 q 205 -1 219 11 q 172 -13 192 -13 q 134 4 151 -13 q 117 52 117 22 q 131 124 117 81 q 161 218 144 166 q 202 354 178 270 q 227 479 227 438 q 198 520 227 520 q 88 419 154 520 q 51 360 70 390 l 12 394 l 31 422 q 114 528 79 496 q 252 591 184 591 q 329 500 329 591 q 258 221 329 409 q 247 194 250 201 l 241 180 l 254 173 q 296 241 271 199 q 354 331 322 283 q 498 515 435 452 q 649 604 585 604 q 747 537 732 604 q 753 489 753 516 q 657 179 753 397 l 669 174 q 711 242 686 200 q 766 332 736 285 q 907 515 843 451 q 1063 604 994 604 z "},"n":{"ha":856,"x_min":12,"x_max":856,"o":"m 192 319 q 200 343 192 319 q 216 410 207 368 q 226 487 226 453 q 198 520 226 520 q 88 419 154 520 q 51 360 70 390 l 12 394 l 31 422 q 246 591 140 591 q 306 570 282 591 q 330 516 330 549 q 325 453 330 482 q 312 393 320 425 q 239 179 283 277 l 247 174 q 560 585 404 504 q 636 604 600 604 q 727 571 699 602 q 755 504 755 541 q 748 433 755 467 q 728 365 740 399 q 702 295 715 330 q 668 206 688 260 q 648 108 648 151 q 676 64 648 64 q 772 143 715 64 q 808 195 789 167 l 818 210 q 856 176 849 182 l 841 155 q 746 38 778 66 q 635 -13 688 -13 q 559 18 583 -13 q 536 89 536 48 q 543 168 536 130 q 562 242 551 205 q 586 315 573 279 q 637 473 637 451 q 604 517 637 517 q 339 224 513 517 q 263 93 289 138 q 227 31 237 47 q 171 -13 198 -13 q 117 57 117 -13 q 131 126 117 84 q 161 219 144 169 q 192 319 178 270 z "},"o":{"ha":663,"x_min":48,"x_max":617,"o":"m 431 126 q 480 221 461 163 q 500 342 500 278 q 466 494 500 449 q 388 539 432 539 q 231 457 300 539 q 162 245 162 376 q 199 101 162 151 q 292 52 235 52 q 431 126 372 52 m 529 98 q 427 17 486 47 q 309 -13 368 -13 q 121 55 195 -13 q 48 249 48 122 q 146 505 48 406 q 370 604 243 604 q 544 538 470 604 q 617 336 617 471 q 529 98 617 201 z "},"p":{"ha":747,"x_min":-68,"x_max":718,"o":"m 328 701 q 376 639 376 701 q 365 580 376 612 q 484 604 429 604 q 657 548 595 604 q 718 402 718 492 q 660 215 718 313 q 503 52 601 117 q 295 -13 406 -13 q 220 -5 258 -13 l 181 -146 q 178 -172 178 -157 q 186 -197 178 -186 q 206 -212 194 -208 q 253 -216 220 -216 q 286 -235 286 -217 q 278 -259 286 -249 q 260 -269 271 -269 l -57 -269 q -68 -262 -68 -269 q -38 -224 -68 -229 q -8 -221 -24 -221 q 77 -146 58 -220 l 229 456 q 24 291 109 390 q 18 287 21 287 q -3 298 9 287 q -16 313 -16 309 q 0 340 -16 318 q 243 534 65 430 l 256 587 q 328 701 283 701 m 532 521 q 395 517 481 542 l 350 503 l 234 55 q 302 45 267 45 q 377 60 338 45 q 451 102 416 76 q 565 239 522 157 q 609 396 609 321 q 532 521 609 491 z "},"q":{"ha":687,"x_min":38,"x_max":661,"o":"m 149 231 l 148 231 q 225 59 148 96 q 280 48 248 48 q 350 73 311 48 q 420 142 389 97 q 494 392 494 243 q 435 542 494 503 q 377 557 412 557 q 311 543 341 557 q 255 503 280 528 q 177 378 206 454 q 149 231 149 301 m 581 -235 q 556 -266 581 -266 l 385 -266 q 358 -263 366 -266 q 349 -239 349 -260 q 358 -189 349 -218 l 437 104 l 405 66 q 236 -13 338 -13 q 162 6 201 -13 q 95 58 123 24 q 38 234 38 127 q 141 496 38 385 q 282 591 203 564 q 353 604 321 604 q 468 571 424 604 q 526 441 526 527 l 526 431 l 568 556 q 607 587 579 587 q 647 573 634 587 q 661 547 661 559 q 659 528 661 535 l 473 -146 q 470 -170 470 -158 l 471 -170 q 526 -216 471 -216 q 571 -220 562 -216 q 581 -235 581 -224 z "},"r":{"ha":590,"x_min":10,"x_max":636,"o":"m 134 -9 q 93 56 93 -9 q 109 130 93 87 q 138 216 124 174 q 185 381 168 308 q 202 472 202 454 q 196 509 202 498 q 172 520 190 520 q 112 484 143 520 q 47 391 81 447 l 10 426 q 97 531 62 501 q 227 591 165 591 q 301 505 301 591 q 248 279 301 439 q 215 180 232 232 l 228 175 l 290 286 q 322 342 304 310 q 361 411 340 375 q 464 550 411 494 q 573 605 517 605 q 616 587 597 605 q 636 546 636 568 q 620 508 636 523 q 581 482 604 493 q 532 462 557 471 q 487 443 506 453 q 443 409 467 433 q 394 351 419 385 q 299 209 347 290 q 226 72 252 129 q 184 12 205 33 q 134 -9 163 -9 z "},"s":{"ha":498,"x_min":12,"x_max":477,"o":"m 172 478 q 240 380 172 431 q 304 335 270 358 q 435 129 435 245 q 382 21 435 56 q 250 -13 330 -13 q 98 22 170 -13 q 12 130 12 62 q 72 180 12 180 q 79 171 73 180 q 94 146 84 161 q 286 47 161 52 q 342 115 342 47 q 276 239 342 184 q 215 286 248 263 q 153 334 182 308 q 87 467 87 395 q 144 572 87 539 q 274 604 201 604 q 412 563 347 604 q 477 451 477 522 q 468 428 477 437 q 443 418 458 418 q 415 428 428 418 q 388 453 401 438 q 358 484 374 467 q 225 550 299 550 q 172 478 172 550 z "},"t":{"ha":435,"x_min":47,"x_max":471,"o":"m 192 113 q 230 60 192 60 q 312 138 267 60 l 347 199 l 391 168 l 352 104 q 181 -14 273 -14 q 79 104 79 -14 l 79 104 q 106 259 79 170 l 185 525 l 47 525 l 67 591 l 218 591 q 232 629 223 605 q 250 680 240 652 q 298 785 275 747 q 353 837 328 837 q 380 818 372 837 q 382 811 382 814 l 382 810 q 373 784 380 802 q 358 742 367 766 q 323 644 334 674 q 305 591 313 614 l 471 591 l 456 524 l 295 524 l 205 175 q 197 145 201 161 q 192 113 192 129 z "},"u":{"ha":840,"x_min":8,"x_max":835,"o":"m 241 604 q 328 522 328 604 q 270 313 328 460 q 211 115 211 165 q 221 83 211 96 q 247 70 231 70 q 287 91 264 70 q 337 145 310 111 q 393 221 363 178 q 450 307 422 263 q 503 390 477 350 q 544 453 528 429 q 576 503 560 477 q 696 604 642 604 q 728 584 717 604 q 739 542 739 564 q 733 496 739 521 l 634 163 q 623 97 623 132 q 650 62 623 62 q 699 83 677 62 q 757 155 721 104 l 796 210 l 835 179 l 796 125 q 721 31 749 56 q 607 -13 667 -13 q 528 50 547 -13 q 522 96 522 68 q 543 222 522 155 q 605 395 564 289 l 622 439 l 611 445 q 565 365 591 412 q 507 268 538 319 q 215 -13 337 -13 q 103 99 103 -13 q 125 224 103 159 q 187 393 155 314 q 220 490 220 473 q 186 528 220 528 q 77 419 142 528 q 57 387 66 401 q 44 366 49 372 l 8 398 q 168 585 77 532 q 241 604 203 604 z "},"v":{"ha":717,"x_min":30,"x_max":669,"o":"m 343 591 q 372 570 372 591 q 357 513 372 546 q 337 462 343 480 q 314 415 330 444 q 271 333 298 386 q 243 233 243 279 q 284 116 243 153 q 378 79 326 79 q 535 142 475 79 q 594 296 594 205 q 548 434 594 358 q 502 543 502 509 q 559 604 502 604 q 661 450 633 604 q 669 368 669 406 q 659 283 669 331 q 631 191 649 235 q 519 41 591 98 q 363 -16 448 -16 q 208 42 279 -16 q 137 184 137 99 q 186 323 137 243 q 236 402 208 359 q 281 479 264 446 q 297 517 297 512 q 288 522 297 522 l 125 522 q 109 516 118 522 q 100 499 100 510 q 103 480 100 489 q 109 464 106 471 q 116 451 113 457 q 119 439 119 445 q 90 406 119 406 q 48 429 66 406 q 30 477 30 452 q 66 557 30 523 q 150 591 102 591 l 343 591 z "},"w":{"ha":1074,"x_min":1,"x_max":1009,"o":"m 678 445 q 624 535 678 535 q 559 423 559 535 q 599 229 559 334 q 678 445 678 321 m 751 -14 q 560 110 642 -14 q 342 -14 441 -14 q 208 43 263 -14 q 152 179 152 100 q 174 316 152 258 q 237 456 206 402 q 269 516 269 511 q 260 522 269 522 l 97 522 q 80 516 90 522 q 71 499 71 510 q 74 480 71 489 q 81 464 77 471 q 87 451 84 457 q 90 439 90 445 q 62 406 90 406 q 19 429 37 406 q 1 477 1 452 q 38 557 1 523 q 121 591 74 591 l 321 591 q 349 571 349 591 q 346 552 349 562 q 337 521 342 542 q 318 463 332 500 q 289 387 303 426 q 253 227 253 292 q 315 87 253 133 q 366 71 337 71 q 467 113 414 71 q 526 177 520 155 q 478 364 478 311 q 515 537 478 471 q 615 604 553 604 q 705 544 678 604 q 725 440 725 501 q 624 176 725 327 q 765 75 661 75 q 885 138 840 75 q 930 276 930 201 q 887 429 930 352 q 857 484 871 457 q 844 544 844 511 q 895 604 844 604 q 1000 454 972 604 q 1009 371 1009 407 q 1001 290 1009 336 q 977 200 993 243 q 885 46 943 106 q 751 -14 827 -14 z "},"x":{"ha":739,"x_min":-20,"x_max":718,"o":"m 702 139 q 498 -13 592 -8 q 385 79 431 -13 q 348 165 359 129 q 333 217 338 201 q 254 112 301 168 q 189 37 206 55 q 67 -13 150 -13 q 15 3 34 -13 q -20 58 -20 30 q 39 111 -20 111 q 80 100 51 111 q 125 89 109 89 q 159 100 142 89 q 194 130 176 111 q 228 171 211 148 q 260 216 245 193 q 287 261 275 239 q 309 297 300 282 q 289 358 298 328 q 277 396 280 389 q 271 417 275 404 q 263 446 268 431 q 233 511 250 486 q 189 535 216 535 q 143 518 162 535 q 112 481 124 501 q 91 444 99 460 q 76 427 83 427 q 50 437 62 427 q 38 456 38 448 l 39 459 q 113 553 85 528 q 223 604 168 604 q 376 393 327 604 q 447 486 419 446 q 499 552 475 526 q 610 604 545 604 q 707 560 675 604 q 718 526 718 545 q 702 496 718 507 q 670 484 685 484 q 622 493 651 484 q 580 502 593 502 q 552 489 567 502 q 517 456 536 475 q 441 371 481 418 q 401 317 401 323 q 417 253 401 306 q 443 176 433 200 q 457 134 452 151 q 525 65 481 65 q 646 138 591 65 q 671 172 659 157 l 701 145 l 702 141 l 702 139 z "},"y":{"ha":694,"x_min":-69,"x_max":639,"o":"m 482 555 q 534 604 482 604 q 616 541 587 604 q 637 437 637 492 l 639 438 q 522 101 639 293 q 258 -195 405 -91 q 65 -269 153 -269 q -12 -253 19 -269 q -69 -179 -69 -222 q -20 -136 -69 -146 q 9 -134 -7 -134 q 68 -145 26 -134 q 130 -157 110 -157 q 202 -133 168 -157 q 324 -16 236 -108 q 297 74 311 28 q 270 165 283 119 q 243 256 256 211 q 212 362 229 300 q 133 515 167 515 q 37 420 92 515 q 17 389 24 399 l -18 419 q 64 542 36 511 q 176 604 119 604 q 265 509 233 604 q 334 279 298 403 q 399 62 370 155 q 530 300 494 195 q 538 349 538 324 q 510 454 538 385 q 482 555 482 522 z "},"z":{"ha":587,"x_min":38,"x_max":569,"o":"m 458 55 q 511 77 511 55 l 511 80 q 500 94 511 88 q 477 109 490 100 q 445 154 445 130 q 460 190 445 178 q 492 201 475 201 q 548 179 526 201 q 569 117 569 157 q 518 18 569 49 q 407 -13 467 -13 q 310 0 348 -13 q 243 27 273 12 q 190 56 213 43 q 147 68 167 68 q 95 35 111 68 q 81 -14 83 14 l 50 -14 q 38 41 38 1 q 104 189 38 115 q 240 304 171 262 q 437 462 310 346 q 385 447 416 447 q 338 454 353 447 q 307 471 322 460 q 277 493 292 481 q 186 539 220 539 q 153 517 153 539 q 171 481 153 504 q 190 441 190 458 q 177 415 190 425 q 148 405 165 405 q 93 430 114 405 q 72 486 72 455 q 119 573 72 542 q 212 604 167 604 q 312 575 257 604 q 393 532 366 545 q 440 518 420 518 q 471 532 459 518 q 491 561 483 545 q 505 591 499 577 q 517 604 511 604 l 538 606 q 555 592 555 606 q 530 507 555 553 q 433 379 490 431 q 289 267 376 327 q 134 113 190 187 q 186 127 159 119 q 244 135 214 135 q 301 122 274 135 q 353 95 328 110 q 404 67 378 80 q 458 55 429 55 z "},"{":{"ha":446,"x_min":28,"x_max":492,"o":"m 256 -134 q 252 -144 256 -144 q 119 -101 163 -144 q 75 7 75 -58 q 99 139 75 73 q 134 241 123 205 q 145 307 145 277 q 137 349 145 336 q 115 370 128 362 q 87 383 102 378 q 58 393 72 388 q 28 425 28 405 q 33 437 28 432 q 41 443 37 442 q 157 494 107 451 q 215 640 207 537 q 220 710 217 665 q 231 795 223 755 q 319 939 249 884 q 492 1004 389 995 q 491 995 491 1000 q 488 989 491 990 q 395 956 423 976 q 330 859 342 919 q 321 758 322 823 q 315 661 320 694 q 138 436 284 490 l 101 426 l 138 414 q 225 254 225 374 q 203 152 225 205 q 167 66 180 98 q 144 -25 144 11 q 256 -127 144 -104 l 256 -134 z "},"|":{"ha":339,"x_min":30,"x_max":312,"o":"m 102 -147 q 100 -158 102 -147 q 90 -185 98 -170 q 56 -201 81 -201 q 30 -186 30 -201 q 117 394 30 63 q 197 685 144 499 q 261 921 249 870 q 277 974 273 971 q 287 979 281 977 q 299 982 293 981 q 312 983 306 983 q 301 846 312 897 l 111 -57 q 106 -100 107 -75 q 102 -147 106 -125 z "},"}":{"ha":447,"x_min":-45,"x_max":421,"o":"m 306 884 q 197 987 306 967 q 197 997 197 991 q 202 1004 197 1004 q 333 961 288 1004 q 378 842 378 918 q 354 733 378 800 q 319 628 330 666 q 308 548 308 591 q 337 477 308 505 q 416 441 367 450 q 421 435 421 440 q 419 427 421 429 q 366 402 393 411 q 315 381 338 394 q 235 225 245 344 q 231 159 233 202 q -45 -146 213 -123 q -43 -136 -44 -142 q -39 -130 -43 -130 q 121 -4 100 -100 q 129 77 130 37 l 129 121 q 264 378 129 296 q 359 418 307 404 l 396 429 l 359 440 q 225 606 225 481 q 266 747 225 660 q 293 813 281 780 q 306 884 306 847 z "},"~":{"ha":734,"x_min":81,"x_max":657,"o":"m 516 475 q 620 562 594 475 l 657 562 q 599 449 640 490 q 509 407 558 407 q 424 421 460 407 q 353 451 387 435 q 288 481 319 467 q 224 495 256 495 q 119 416 152 495 l 81 416 q 250 566 132 566 q 387 520 300 566 q 516 475 475 475 z "},"":{"ha":306,"x_min":0,"x_max":0,"o":""},"":{"ha":383,"x_min":26,"x_max":359,"o":"m 286 838 q 359 777 359 838 q 322 697 359 727 q 251 667 286 667 q 196 683 216 667 q 176 729 176 699 q 213 809 176 779 q 286 838 250 838 m 217 545 l 236 545 l 182 104 q 159 46 177 70 q 85 0 122 0 q 37 15 47 0 q 26 55 26 31 q 35 99 26 79 l 217 545 z "},"":{"ha":648,"x_min":39,"x_max":602,"o":"m 378 570 l 377 570 q 353 573 362 573 q 210 479 267 573 q 153 276 153 385 q 219 114 153 168 q 274 86 242 95 l 382 569 l 378 570 m 588 479 q 539 435 588 435 q 480 475 514 435 q 450 511 465 492 q 418 546 435 530 l 314 81 l 320 81 q 508 170 428 81 q 551 222 530 195 l 602 182 q 300 0 475 0 l 296 0 l 254 -189 q 222 -248 242 -238 q 212 -248 218 -250 q 207 -230 207 -246 q 210 -205 207 -214 l 256 4 q 100 96 161 18 q 39 277 39 174 q 133 516 39 415 q 363 618 227 618 q 393 615 378 618 l 425 761 q 457 842 441 833 q 468 845 462 845 q 465 762 484 845 l 431 608 q 588 479 588 562 z "},"":{"ha":802,"x_min":-20,"x_max":772,"o":"m 617 839 q 772 764 772 839 q 763 731 772 741 q 736 722 755 722 q 707 733 718 722 q 682 757 695 744 q 610 791 646 791 q 544 772 575 791 q 491 722 513 753 q 452 651 468 691 q 423 569 435 611 q 401 485 411 526 q 382 410 392 444 l 378 395 l 559 395 q 536 343 551 343 l 368 343 q 318 145 323 172 q 378 121 349 135 q 640 64 497 64 q 684 87 684 64 q 672 116 684 104 q 647 139 661 128 q 621 159 633 149 q 609 183 609 169 q 620 207 609 197 q 650 217 631 217 q 709 189 688 217 q 729 123 729 161 q 546 -4 729 -4 q 391 37 473 -4 q 252 77 309 77 q 3 -4 145 77 l 5 -3 q -20 35 -20 0 q 127 134 -20 87 q 191 151 173 148 l 198 151 q 224 246 216 198 q 241 345 233 294 l 87 345 q 100 396 92 396 l 250 396 q 353 680 273 559 q 519 818 417 777 q 617 839 573 839 z "},"":{"ha":778,"x_min":50,"x_max":739,"o":"m 285 691 q 448 741 373 741 q 593 693 522 741 q 646 745 614 712 q 707 796 678 779 q 728 777 718 787 q 739 751 739 767 q 727 722 739 736 q 698 697 715 709 q 663 676 682 686 q 631 653 644 665 q 663 539 663 597 q 564 320 663 420 q 584 295 572 307 q 614 260 595 282 q 633 224 633 239 q 614 189 633 202 q 579 176 595 176 q 553 187 563 176 q 535 215 543 199 q 521 248 528 231 q 507 277 514 265 q 341 228 416 228 q 196 275 266 228 q 169 243 182 260 q 81 172 117 172 q 52 199 60 172 q 50 219 50 207 q 62 245 50 231 q 91 270 74 258 q 126 292 108 281 q 159 314 145 302 q 126 427 126 369 q 228 648 126 547 q 208 674 220 661 q 177 708 196 686 q 158 744 158 729 q 177 780 158 766 q 212 793 196 793 q 237 782 227 793 q 256 754 248 770 q 271 721 264 738 q 285 691 277 703 m 424 678 q 383 678 424 678 q 272 609 343 678 q 200 444 200 541 q 242 333 200 376 q 365 290 284 290 q 517 360 446 290 q 587 523 587 430 q 546 634 587 590 q 424 678 504 678 z "},"":{"ha":871,"x_min":60,"x_max":889,"o":"m 651 738 q 567 778 651 778 q 562 802 562 778 q 571 825 562 825 l 886 825 q 889 799 889 820 q 880 778 889 778 q 731 690 801 778 l 457 353 l 591 353 q 632 345 623 353 q 642 334 642 337 q 630 320 642 328 q 592 312 617 312 l 421 312 l 405 229 l 583 231 q 618 216 618 231 q 579 190 618 197 q 559 188 568 188 l 397 188 l 389 142 q 386 116 386 130 q 412 73 386 85 q 492 59 439 60 q 494 35 494 59 q 484 12 494 12 l 144 12 q 140 25 140 12 q 145 49 140 38 q 153 60 151 60 q 223 71 203 60 q 277 151 263 94 l 283 188 l 200 188 q 71 201 71 188 q 149 228 71 228 l 290 228 l 304 300 l 298 311 l 242 311 l 188 311 l 174 311 q 100 327 107 311 q 98 336 98 332 q 124 350 98 347 q 239 353 151 353 l 288 353 l 190 700 q 160 755 178 742 q 65 778 127 778 q 60 802 60 778 q 69 825 60 825 l 395 825 q 399 799 399 820 q 389 778 399 778 q 289 711 289 778 q 294 680 288 701 l 380 372 l 633 690 q 651 738 651 718 z "},"":{"ha":310,"x_min":18,"x_max":279,"o":"m 275 922 q 279 879 279 893 q 275 847 279 864 l 203 507 q 163 491 184 494 q 162 503 162 498 l 162 514 q 186 682 162 571 l 232 905 l 233 903 q 275 922 246 918 m 142 288 q 145 246 145 268 q 140 190 145 224 q 127 121 134 156 q 111 52 119 86 q 98 -4 103 18 q 92 -50 94 -27 q 47 -144 85 -144 q 26 -142 35 -144 q 18 -128 18 -140 q 38 40 18 -43 q 73 172 58 123 q 100 271 87 222 q 117 284 103 282 q 142 288 130 287 z "},"":{"ha":581,"x_min":63,"x_max":665,"o":"m 439 73 q 490 243 490 145 q 309 707 490 426 q 244 521 244 631 q 330 289 244 411 q 409 161 387 205 q 439 75 431 117 l 439 73 m 287 728 q 285 764 285 738 q 302 822 285 789 q 347 876 319 854 q 479 922 404 922 q 646 873 597 922 q 665 825 665 854 q 649 782 665 795 q 617 769 633 769 q 591 777 601 769 q 572 798 581 785 q 552 824 562 810 q 521 859 541 838 q 474 879 500 879 q 384 854 422 879 q 345 787 345 830 q 403 673 345 744 q 456 610 427 644 q 568 338 568 482 q 457 52 568 195 q 463 1 463 30 q 443 -58 463 -28 q 393 -109 423 -88 q 260 -151 332 -151 q 73 -82 113 -151 q 63 -39 63 -66 q 80 5 63 -12 q 118 21 97 21 q 146 12 139 21 q 157 -11 153 3 q 165 -40 161 -24 q 269 -101 181 -101 q 394 -47 357 -101 q 408 4 408 -27 q 391 66 408 36 q 348 128 374 97 q 292 193 322 159 q 177 448 177 319 q 287 728 177 577 z "},"":{"ha":623,"x_min":149,"x_max":576,"o":"m 472 857 q 478 862 472 857 q 498 874 484 868 q 531 881 512 881 q 563 867 549 881 q 576 836 576 854 q 551 780 576 804 q 500 756 526 756 q 461 769 474 756 q 448 800 448 782 q 454 831 448 817 q 472 857 461 846 m 174 857 q 180 862 174 857 q 199 874 185 868 q 232 881 214 881 q 264 867 251 881 q 277 836 277 854 q 252 780 277 804 q 201 756 227 756 q 162 769 175 756 q 149 800 149 782 q 156 831 149 817 q 174 857 163 846 z "},"":{"ha":1054,"x_min":41,"x_max":974,"o":"m 716 252 q 438 138 616 138 q 340 155 388 138 q 205 346 205 203 q 309 612 205 488 q 564 741 420 741 q 732 667 681 741 l 737 698 q 746 730 743 730 l 791 730 l 777 554 l 736 553 q 578 694 707 694 q 457 640 517 694 q 342 439 372 563 q 332 366 332 401 q 370 251 332 294 q 489 208 408 208 q 646 251 569 208 q 696 281 670 264 l 716 252 m 205 135 q 226 115 205 135 q 304 72 246 95 q 427 50 362 50 q 549 65 492 50 q 656 111 605 81 q 828 281 762 174 q 895 521 895 389 q 813 740 895 653 q 593 827 732 827 q 260 681 403 827 q 138 473 172 591 q 121 350 121 414 q 143 231 121 286 q 205 135 165 176 m 893 253 q 852 191 893 253 q 682 58 812 129 q 405 -12 552 -12 q 149 88 257 -12 q 41 338 41 188 q 124 612 41 488 q 337 809 207 736 q 613 882 468 882 q 866 784 759 882 q 974 531 974 685 q 893 253 974 378 z "},"":{"ha":480,"x_min":142,"x_max":535,"o":"m 237 457 q 284 420 237 420 q 397 467 332 420 l 420 580 q 366 564 398 572 q 237 457 237 530 m 391 437 q 236 370 299 370 q 150 408 172 370 q 142 445 142 420 q 158 493 142 470 q 197 533 173 516 q 253 560 222 549 q 315 579 283 571 q 376 593 347 587 q 426 606 405 599 l 435 650 q 441 696 441 678 q 374 758 441 758 q 300 732 329 758 q 290 713 290 724 l 299 680 q 254 639 299 656 q 236 634 243 634 q 216 649 224 634 q 208 675 208 664 q 289 768 208 735 q 405 789 341 789 q 497 767 469 789 q 526 696 526 745 q 523 661 526 673 q 499 567 519 648 q 479 458 479 486 q 496 430 479 430 q 532 441 505 430 l 535 408 q 439 370 507 370 q 402 386 414 370 q 391 415 391 402 l 391 431 q 391 437 391 433 z "},"":{"ha":568,"x_min":37,"x_max":517,"o":"m 495 556 l 345 347 l 404 134 q 408 110 408 118 q 406 96 408 102 q 394 90 404 90 q 381 101 384 90 q 371 123 378 111 l 256 344 q 319 420 277 368 q 435 561 398 523 q 503 599 473 599 q 517 592 517 599 q 508 571 517 581 q 495 556 500 562 m 218 62 q 206 55 218 55 q 190 66 194 55 q 178 90 186 77 l 37 342 l 289 593 q 299 604 294 597 q 313 621 304 611 q 332 631 321 631 q 342 625 342 631 q 262 486 342 573 q 198 419 239 462 q 134 346 156 376 l 136 340 l 134 342 q 159 272 144 309 q 196 171 173 235 q 218 62 218 106 z "},"":{"ha":879,"x_min":66,"x_max":787,"o":"m 102 514 q 66 528 66 514 q 84 587 66 569 q 100 594 90 594 l 212 593 l 312 593 l 710 595 q 787 590 745 595 q 760 422 781 525 l 730 275 q 726 254 728 266 q 697 205 718 205 q 667 211 680 205 q 635 222 653 217 l 697 515 l 132 515 l 102 514 z "},"":{"ha":559,"x_min":92,"x_max":465,"o":"m 431 274 l 390 277 l 98 276 q 93 282 93 281 q 92 294 92 284 q 124 349 92 349 l 163 347 l 410 347 q 465 345 442 347 q 462 320 463 332 q 431 274 459 274 z "},"":{"ha":1052,"x_min":55,"x_max":987,"o":"m 906 253 q 866 191 906 253 q 695 58 825 129 q 418 -12 566 -12 q 163 88 271 -12 q 55 338 55 188 q 138 612 55 488 q 351 809 220 736 q 627 882 481 882 q 880 784 772 882 q 987 531 987 685 q 906 253 987 378 m 747 168 q 908 524 908 311 q 827 740 908 653 q 607 827 746 827 q 274 681 416 827 q 152 473 186 591 q 135 350 135 414 q 220 134 135 218 q 459 50 306 50 q 746 167 612 50 l 610 167 l 593 203 q 502 440 531 345 l 448 440 l 435 374 q 423 301 428 337 q 413 245 418 264 q 408 222 408 226 q 455 186 408 195 l 454 168 l 242 168 l 241 186 q 314 240 300 199 l 399 648 q 401 662 401 654 q 388 687 401 677 q 351 709 375 697 l 351 726 l 592 726 q 763 665 715 726 q 780 609 780 643 q 724 503 780 544 q 595 446 668 462 q 609 411 601 433 q 628 364 618 390 q 724 193 690 213 l 724 194 l 730 191 q 747 168 734 182 m 675 610 q 513 701 675 701 q 508 701 508 701 q 452 463 475 586 q 654 535 600 466 q 675 610 675 564 m 595 446 l 594 446 l 594 445 l 595 446 z "},"":{"ha":641,"x_min":137,"x_max":534,"o":"m 522 702 l 137 702 l 150 766 l 534 766 l 522 702 z "},"":{"ha":458,"x_min":100,"x_max":414,"o":"m 399 707 l 399 706 q 401 736 401 716 q 369 814 401 781 q 295 848 337 848 q 167 798 220 848 q 114 690 114 747 q 148 601 114 633 q 221 568 181 568 q 338 609 289 568 q 399 707 387 650 m 414 747 q 410 711 414 725 l 411 711 q 342 602 397 648 q 224 557 287 557 q 109 628 139 557 q 100 681 100 650 q 159 805 100 747 q 281 862 218 862 q 379 829 345 862 q 414 747 414 795 z "},"":{"ha":622,"x_min":20,"x_max":601,"o":"m 413 -37 l 28 -37 l 41 26 l 426 26 l 413 -37 m 36 355 q 20 379 20 367 q 23 410 20 391 l 22 412 q 161 425 70 425 l 271 423 l 280 423 q 292 488 287 454 q 307 577 297 522 q 338 677 317 633 q 346 682 340 682 l 370 677 l 384 677 q 397 677 391 677 q 377 557 391 617 q 351 437 363 496 l 348 422 l 362 422 l 476 423 q 601 417 549 423 q 600 400 600 410 q 586 356 600 363 q 542 349 571 349 l 473 353 l 342 354 l 333 354 q 321 289 326 322 q 274 100 299 155 q 263 96 271 96 q 241 98 256 96 q 216 101 227 100 q 238 228 223 165 q 265 355 253 291 l 36 355 z "},"":{"ha":519,"x_min":121,"x_max":589,"o":"m 396 832 q 325 818 359 832 q 272 795 292 804 q 230 781 252 787 q 223 789 223 783 q 234 808 223 795 q 314 859 258 837 q 412 880 370 880 q 541 848 493 880 q 589 752 589 817 q 453 518 589 649 q 325 405 395 463 q 224 318 255 347 l 405 334 q 483 393 458 338 q 519 446 507 446 q 534 444 528 446 l 483 260 l 473 259 l 239 260 q 181 260 210 260 q 123 259 152 260 l 121 286 q 189 354 151 318 q 264 427 227 389 q 412 599 357 518 q 467 756 467 680 q 396 832 467 832 z "},"":{"ha":517,"x_min":118,"x_max":572,"o":"m 395 577 q 351 585 376 585 q 298 579 327 585 l 280 605 l 351 638 q 492 783 492 706 q 433 830 492 830 q 352 805 401 830 q 275 779 302 779 q 268 786 268 779 q 279 806 268 793 q 356 857 303 836 q 444 878 408 878 q 539 853 506 878 q 572 790 572 829 q 521 674 572 720 q 406 622 470 627 q 518 584 476 622 q 560 483 560 545 q 465 307 560 371 q 282 252 385 252 q 136 296 180 252 q 118 332 118 312 q 138 386 118 366 q 178 407 157 407 q 210 396 199 407 q 221 373 221 385 q 211 341 221 357 q 201 316 201 326 q 227 291 201 300 q 283 281 253 281 q 345 298 313 281 q 400 343 377 315 q 448 478 448 402 q 395 577 448 555 z "},"":{"ha":384,"x_min":119,"x_max":343,"o":"m 119 686 q 119 691 119 686 q 193 831 119 696 q 273 970 267 966 q 288 974 279 974 q 325 956 307 974 q 343 925 343 937 q 338 907 343 912 q 229 783 299 864 q 147 689 158 701 q 127 676 136 676 q 119 686 119 676 z "},"":{"ha":840,"x_min":-13,"x_max":835,"o":"m 241 604 q 328 522 328 604 q 270 313 328 460 q 211 115 211 165 q 221 83 211 96 q 247 70 231 70 q 287 91 264 70 q 337 145 310 111 q 393 221 363 178 q 450 307 422 263 q 503 390 477 350 q 544 453 528 429 q 576 503 560 477 q 696 604 642 604 q 728 584 717 604 q 739 542 739 564 q 733 496 739 521 l 634 163 q 623 97 623 132 q 650 62 623 62 q 699 83 677 62 q 757 155 721 104 l 796 210 l 835 179 l 796 125 q 721 31 749 56 q 607 -13 667 -13 q 528 50 547 -13 q 522 96 522 68 q 543 222 522 155 q 605 395 564 289 l 622 439 l 611 445 q 565 365 591 412 q 507 268 538 319 q 370 77 433 144 q 213 -13 286 -13 q 115 39 140 -13 q 67 -105 78 -81 q 47 -138 57 -129 q 22 -147 37 -147 q -13 -117 -13 -147 q 61 85 -13 -86 q 145 282 135 256 q 168 343 155 309 q 220 490 220 469 q 186 528 220 528 q 77 419 142 528 q 57 387 66 401 q 44 366 49 372 l 8 398 q 168 585 77 532 q 241 604 203 604 z "},"":{"ha":736,"x_min":69,"x_max":769,"o":"m 91 488 q 69 576 69 521 q 86 676 69 631 q 132 755 103 722 q 276 844 186 817 q 465 871 365 871 l 769 871 l 768 863 q 741 859 760 859 q 644 821 651 855 l 458 -75 l 456 -80 q 538 -113 456 -111 q 563 -114 555 -113 l 557 -142 l 404 -142 l 610 837 l 491 837 l 286 -142 l 111 -142 l 117 -115 q 133 -114 121 -115 q 160 -113 145 -114 q 260 -80 254 -109 l 361 401 l 347 401 q 91 488 149 401 z "},"":{"ha":356,"x_min":91,"x_max":265,"o":"m 91 413 q 146 498 91 479 q 178 504 161 504 q 240 480 214 504 q 265 413 265 457 q 210 328 265 347 q 178 323 195 323 q 117 346 142 323 q 91 413 91 370 z "},"":{"ha":414,"x_min":54,"x_max":299,"o":"m 207 -196 q 123 -131 207 -142 l 178 0 l 216 0 l 209 -103 q 299 -176 299 -115 q 246 -269 299 -232 q 127 -306 193 -306 q 54 -290 93 -306 l 61 -273 q 103 -282 81 -282 q 176 -258 145 -282 q 207 -196 207 -234 z "},"":{"ha":414,"x_min":109,"x_max":452,"o":"m 335 330 q 334 316 334 323 q 341 304 334 309 q 359 296 348 298 q 382 293 370 294 q 412 291 394 292 q 430 278 430 289 q 425 266 430 275 l 109 266 q 163 294 109 290 q 224 333 217 298 l 313 748 q 313 761 313 750 q 299 778 313 771 q 268 788 285 784 q 236 794 250 791 q 222 807 222 798 q 227 818 222 811 l 449 876 q 452 872 452 876 q 449 856 452 868 q 442 828 446 844 q 436 805 437 812 l 335 330 z "},"":{"ha":536,"x_min":168,"x_max":616,"o":"m 263 526 q 291 443 263 477 q 357 408 318 408 q 475 465 429 408 q 522 617 522 522 q 468 747 522 712 q 422 759 450 759 q 328 720 370 759 q 263 526 263 660 m 168 535 q 168 572 168 535 q 201 657 168 608 q 270 732 234 706 q 430 789 346 789 q 565 746 514 789 q 616 636 616 703 q 533 444 616 516 q 360 371 451 371 q 219 416 270 371 q 168 535 168 462 z "},"":{"ha":570,"x_min":35,"x_max":511,"o":"m 97 110 q 78 99 97 110 q 50 88 60 88 q 35 93 40 88 l 35 93 q 81 160 49 126 l 133 214 q 203 336 203 289 q 169 462 203 380 q 134 582 134 545 q 151 599 134 599 q 165 584 155 599 q 200 541 176 570 q 292 346 292 427 q 193 193 292 296 q 97 110 134 132 m 323 621 q 340 632 323 632 q 472 418 363 632 q 511 346 491 381 l 269 98 q 258 84 263 92 q 224 54 235 54 q 210 59 214 54 q 270 136 231 98 q 332 195 310 174 q 415 334 415 274 q 401 411 415 376 q 371 482 387 446 q 339 553 354 517 q 323 621 325 588 z "},"":{"ha":1284,"x_min":151,"x_max":1256,"o":"m 361 419 q 407 379 361 379 q 435 372 433 379 l 430 347 l 151 347 l 157 371 q 196 382 179 381 q 224 386 212 382 q 262 450 250 393 l 323 735 q 327 767 327 755 q 320 786 327 779 q 303 798 314 794 q 279 804 292 802 q 252 813 266 807 l 258 837 q 434 882 357 849 q 456 878 446 882 l 368 465 q 361 419 361 434 m 357 -52 q 319 -55 344 -55 l 297 -55 q 328 5 313 -26 q 362 62 343 37 l 845 709 q 890 772 866 737 q 1053 956 987 917 q 1110 940 1089 956 l 1038 850 q 884 661 960 753 q 733 467 808 568 q 587 260 657 365 q 471 89 516 155 q 402 -3 427 22 q 357 -52 378 -28 m 1040 220 l 1097 486 l 862 220 l 1040 220 m 1256 249 l 1219 170 l 1133 170 l 1118 105 q 1118 95 1118 103 q 1126 79 1118 86 q 1146 68 1135 72 q 1171 61 1158 64 q 1193 57 1184 59 l 1187 32 l 916 32 l 922 56 q 947 62 932 60 q 1017 105 1010 73 l 1031 170 l 793 170 l 799 216 l 1122 570 q 1218 574 1194 574 l 1143 222 q 1203 230 1191 222 q 1222 245 1216 238 q 1239 262 1227 253 q 1256 249 1253 262 z "},"":{"ha":1242,"x_min":151,"x_max":1213,"o":"m 359 419 q 401 379 359 381 q 435 372 431 379 l 428 347 l 151 347 l 155 371 q 194 382 174 380 q 240 396 229 385 q 260 450 252 406 l 321 735 q 325 767 325 755 q 318 787 325 779 q 301 798 312 794 q 278 804 291 802 q 251 813 264 807 l 256 837 q 432 882 355 849 q 454 878 444 882 l 366 465 q 359 419 359 434 m 1034 516 q 873 431 961 516 l 846 444 q 1000 562 898 530 q 1062 571 1031 571 q 1170 541 1127 571 q 1213 454 1213 510 q 1083 256 1213 364 q 964 167 1029 213 q 870 98 898 121 l 1012 98 q 1081 109 1057 98 q 1122 148 1105 119 q 1147 182 1138 176 l 1177 182 l 1116 31 l 1072 31 l 865 31 q 813 31 839 31 q 762 31 787 31 l 765 60 q 826 112 791 83 q 898 172 861 140 q 1047 321 991 252 q 1103 445 1103 389 q 1086 496 1103 475 q 1034 516 1069 516 m 357 -52 q 319 -55 344 -55 l 297 -55 q 327 4 313 -26 q 362 62 340 33 l 845 709 q 890 773 867 738 q 939 843 913 808 q 1053 956 998 924 q 1110 940 1089 956 q 920 705 1015 821 q 756 497 825 589 q 642 337 686 405 q 552 202 597 269 q 357 -52 441 36 z "},"":{"ha":1310,"x_min":118,"x_max":1256,"o":"m 425 -52 q 387 -55 412 -55 l 365 -55 q 396 5 380 -26 q 430 62 411 37 l 913 709 q 958 772 934 737 q 1120 956 1055 917 q 1178 940 1157 956 l 1106 850 q 952 661 1028 753 q 801 467 876 568 q 654 260 725 365 q 539 89 584 155 q 470 -3 494 22 q 425 -52 446 -28 m 1040 220 l 1097 486 l 862 220 l 1040 220 m 1256 249 l 1219 170 l 1133 170 l 1118 105 q 1118 95 1118 103 q 1126 79 1118 86 q 1146 68 1135 72 q 1171 61 1158 64 q 1193 57 1184 59 l 1187 32 l 916 32 l 922 56 q 947 62 932 60 q 1017 105 1010 73 l 1031 170 l 793 170 l 799 216 l 1122 570 q 1218 574 1194 574 l 1143 222 q 1203 230 1191 222 q 1222 245 1216 238 q 1239 262 1227 253 q 1256 249 1253 262 m 395 600 q 351 608 376 608 q 298 602 327 608 l 280 627 l 351 661 q 492 805 492 728 q 433 852 492 852 q 352 827 401 852 q 275 802 302 802 q 268 809 268 802 q 279 829 268 816 q 355 878 302 857 q 444 900 408 900 q 539 876 507 900 q 572 812 572 852 q 521 696 572 743 q 406 644 470 650 q 518 606 476 644 q 560 506 560 568 q 465 330 560 393 q 282 275 385 275 q 136 317 180 275 q 118 354 118 334 q 138 409 118 388 q 178 429 157 429 q 210 418 199 429 q 221 395 221 407 q 211 364 221 380 q 201 338 201 348 q 227 313 201 322 q 283 303 253 303 q 346 320 314 303 q 400 365 378 337 q 448 500 448 424 q 395 600 448 577 z "},"":{"ha":547,"x_min":92,"x_max":593,"o":"m 561 764 q 554 756 561 764 q 528 741 547 749 q 485 732 509 732 q 440 751 460 732 q 421 795 421 770 q 454 870 421 839 q 522 901 488 901 q 575 882 557 901 q 593 838 593 862 q 585 796 593 814 q 561 764 576 778 m 505 650 q 502 579 502 625 q 497 510 502 534 q 476 473 492 487 q 439 445 461 459 q 389 417 416 431 q 332 385 361 402 q 224 301 264 346 q 183 199 183 256 q 222 104 183 142 q 316 66 260 66 q 358 79 338 66 q 396 108 377 92 q 433 136 414 123 q 473 149 452 149 q 505 135 494 149 q 515 102 515 121 q 506 65 515 82 q 480 37 496 49 q 406 3 452 14 q 317 -9 359 -9 q 160 52 229 -9 q 92 192 92 112 q 138 339 92 271 q 278 457 185 406 q 403 544 370 508 q 444 623 435 581 l 450 650 l 505 650 z "},"":{"ha":886,"x_min":-51,"x_max":840,"o":"m 581 319 l 581 703 l 341 319 l 581 319 m 452 0 q 448 15 448 0 q 460 50 448 29 q 570 122 552 50 q 577 202 577 155 q 579 277 577 249 l 306 277 q 281 240 301 269 q 201 97 201 125 q 298 50 201 50 q 304 34 304 46 l 304 20 q 298 0 304 0 l -45 0 q -51 16 -51 0 q -38 50 -51 31 q 55 72 18 50 q 122 143 91 94 l 586 857 l 696 857 l 678 136 q 745 53 678 63 q 790 50 765 50 q 797 35 797 47 l 797 20 q 790 0 797 0 l 452 0 m 833 943 q 622 1173 819 943 l 621 1173 q 615 1187 615 1179 q 633 1222 615 1204 q 670 1240 652 1240 q 698 1221 688 1240 q 727 1168 709 1202 q 792 1049 745 1135 q 840 959 839 964 q 840 952 840 955 q 833 943 840 943 z "},"":{"ha":886,"x_min":-51,"x_max":878,"o":"m 581 319 l 581 703 l 341 319 l 581 319 m 452 0 q 448 15 448 0 q 460 50 448 29 q 570 122 552 50 q 577 202 577 155 q 579 277 577 249 l 306 277 q 281 240 301 269 q 201 97 201 125 q 298 50 201 50 q 304 34 304 46 l 304 20 q 298 0 304 0 l -45 0 q -51 16 -51 0 q -38 50 -51 31 q 55 72 18 50 q 122 143 91 94 l 586 857 l 696 857 l 678 136 q 745 53 678 63 q 790 50 765 50 q 797 35 797 47 l 797 20 q 790 0 797 0 l 452 0 m 654 952 q 654 957 654 952 q 728 1097 654 962 q 808 1236 802 1232 q 823 1240 814 1240 q 860 1221 842 1240 q 878 1191 878 1203 q 873 1173 878 1178 q 764 1048 834 1130 q 682 955 693 967 q 663 942 671 942 q 654 952 654 942 z "},"":{"ha":886,"x_min":-51,"x_max":880,"o":"m 581 319 l 581 703 l 341 319 l 581 319 m 452 0 q 448 15 448 0 q 460 50 448 29 q 570 122 552 50 q 577 202 577 155 q 579 277 577 249 l 306 277 q 281 240 301 269 q 201 97 201 125 q 298 50 201 50 q 304 34 304 46 l 304 20 q 298 0 304 0 l -45 0 q -51 16 -51 0 q -38 50 -51 31 q 55 72 18 50 q 122 143 91 94 l 586 857 l 696 857 l 678 136 q 745 53 678 63 q 790 50 765 50 q 797 35 797 47 l 797 20 q 790 0 797 0 l 452 0 m 867 926 l 747 1109 l 539 929 l 528 940 q 633 1090 586 1025 q 692 1170 681 1154 q 712 1197 704 1186 q 735 1219 720 1207 q 766 1230 751 1230 q 804 1194 791 1230 q 821 1142 811 1176 q 839 1080 831 1107 q 855 1025 848 1052 q 869 974 863 998 q 880 935 876 950 l 867 926 z "},"":{"ha":886,"x_min":-51,"x_max":944,"o":"m 581 319 l 581 703 l 341 319 l 581 319 m 452 0 q 448 15 448 0 q 460 50 448 29 q 570 122 552 50 q 577 202 577 155 q 579 277 577 249 l 306 277 q 281 240 301 269 q 201 97 201 125 q 298 50 201 50 q 304 34 304 46 l 304 20 q 298 0 304 0 l -45 0 q -51 16 -51 0 q -38 50 -51 31 q 55 72 18 50 q 122 143 91 94 l 586 857 l 696 857 l 678 136 q 745 53 678 63 q 790 50 765 50 q 797 35 797 47 l 797 20 q 790 0 797 0 l 452 0 m 944 1065 q 821 943 906 943 q 740 970 785 943 q 669 1009 694 997 q 622 1021 645 1021 q 587 1006 600 1021 q 562 968 574 991 l 549 972 q 669 1084 587 1084 q 749 1059 705 1084 q 817 1021 793 1033 q 864 1010 841 1010 q 901 1026 888 1010 q 928 1069 915 1042 l 944 1065 z "},"":{"ha":886,"x_min":-51,"x_max":958,"o":"m 581 319 l 581 703 l 341 319 l 581 319 m 452 0 q 448 15 448 0 q 460 50 448 29 q 570 122 552 50 q 577 202 577 155 q 579 277 577 249 l 306 277 q 281 240 301 269 q 201 97 201 125 q 298 50 201 50 q 304 34 304 46 l 304 20 q 298 0 304 0 l -45 0 q -51 16 -51 0 q -38 50 -51 31 q 55 72 18 50 q 122 143 91 94 l 586 857 l 696 857 l 678 136 q 745 53 678 63 q 790 50 765 50 q 797 35 797 47 l 797 20 q 790 0 797 0 l 452 0 m 855 1123 q 860 1129 855 1123 q 880 1141 866 1135 q 913 1147 895 1147 q 945 1134 932 1147 q 958 1102 958 1120 q 933 1046 958 1070 q 882 1023 908 1023 q 843 1036 857 1023 q 830 1066 830 1048 q 837 1098 830 1084 q 855 1123 844 1112 m 556 1123 q 562 1129 556 1123 q 582 1141 568 1135 q 615 1147 596 1147 q 647 1134 633 1147 q 660 1102 660 1120 q 635 1046 660 1070 q 584 1023 610 1023 q 545 1036 557 1023 q 532 1066 532 1048 q 538 1098 532 1084 q 556 1123 545 1112 z "},"":{"ha":886,"x_min":-51,"x_max":826,"o":"m 581 319 l 581 703 l 341 319 l 581 319 m 452 0 q 448 15 448 0 q 460 50 448 29 q 570 122 552 50 q 577 202 577 155 q 579 277 577 249 l 306 277 q 281 240 301 269 q 201 97 201 125 q 298 50 201 50 q 304 34 304 46 l 304 20 q 298 0 304 0 l -45 0 q -51 16 -51 0 q -38 50 -51 31 q 55 72 18 50 q 122 143 91 94 l 586 857 l 696 857 l 678 136 q 745 53 678 63 q 790 50 765 50 q 797 35 797 47 l 797 20 q 790 0 797 0 l 452 0 m 709 1180 q 738 1180 709 1180 q 796 1150 766 1180 q 826 1084 826 1120 q 784 982 826 1022 q 670 943 741 943 q 573 1002 600 943 q 565 1043 565 1019 q 576 1093 565 1067 q 608 1137 587 1118 q 709 1180 653 1180 m 783 1071 q 783 1089 783 1071 q 764 1126 783 1106 q 718 1147 745 1147 q 640 1116 671 1147 q 608 1050 608 1084 q 680 977 608 977 q 753 1006 724 977 q 783 1071 783 1036 z "},"":{"ha":1280,"x_min":-75,"x_max":1353,"o":"m 435 376 l 661 376 l 801 721 l 759 721 l 435 376 m 1176 223 l 1089 20 l 433 20 l 456 67 q 515 80 495 67 q 572 157 552 104 l 640 333 l 387 333 l 222 157 q 200 134 211 145 q 190 103 190 122 q 211 76 190 83 q 267 67 231 68 l 254 19 l -75 19 l -57 66 q 107 151 25 66 l 633 688 q 650 722 650 705 l 648 721 q 571 772 648 766 l 582 819 l 1353 819 l 1312 630 q 1292 613 1308 620 q 1267 606 1275 606 q 1246 623 1246 606 q 1232 729 1241 706 q 1164 773 1213 773 l 964 773 q 910 725 929 773 l 817 490 l 1010 490 q 1107 556 1063 490 q 1124 568 1116 568 l 1166 568 l 1109 345 l 1072 345 q 1006 448 1057 448 l 801 448 l 673 125 q 667 95 669 113 l 667 94 q 696 68 667 68 l 903 68 q 1092 208 1033 68 q 1122 230 1099 224 q 1161 236 1145 236 q 1176 223 1176 236 z "},"":{"ha":821,"x_min":68,"x_max":850,"o":"m 401 -23 q 266 13 330 -23 q 158 109 202 50 q 68 389 68 227 q 129 625 68 511 q 294 811 189 740 q 522 882 399 882 q 738 829 644 882 q 850 652 850 766 q 836 612 850 629 q 800 595 822 595 q 766 604 778 595 q 746 629 753 614 q 732 664 738 644 q 718 704 726 684 q 553 813 676 813 q 289 651 387 813 q 232 526 260 604 q 203 370 203 448 q 254 147 203 224 q 433 57 314 57 q 610 113 524 57 q 745 252 696 169 l 802 206 q 636 40 741 104 q 401 -23 531 -23 m 422 -196 q 338 -131 422 -142 l 393 0 l 431 0 l 424 -103 q 514 -176 514 -115 q 461 -269 514 -232 q 342 -306 408 -306 q 269 -290 308 -306 l 276 -273 q 318 -282 296 -282 q 391 -258 360 -282 q 422 -196 422 -234 z "},"":{"ha":776,"x_min":-41,"x_max":808,"o":"m 808 657 q 770 640 789 640 q 739 652 751 640 q 727 703 733 675 q 627 807 702 807 l 401 807 q 350 753 361 807 l 286 477 l 492 477 q 545 492 529 477 q 569 518 562 508 q 593 545 577 529 q 644 560 608 560 l 581 323 l 550 323 q 513 415 544 389 q 481 426 500 426 l 274 426 q 253 343 265 385 q 221 228 240 300 q 202 87 202 155 q 212 67 202 75 q 237 60 221 60 l 456 60 q 624 141 568 60 q 650 201 642 167 q 694 212 677 212 q 721 210 711 212 q 738 207 730 208 l 662 0 l -36 0 l -41 13 q -26 51 -41 33 q 54 73 26 51 q 93 140 82 95 q 117 235 104 186 q 145 338 131 284 q 227 720 227 635 q 217 778 227 766 q 130 807 198 804 q 125 828 125 817 q 140 857 125 840 l 808 857 l 808 657 m 568 943 q 357 1173 555 943 l 356 1173 q 351 1187 351 1179 q 369 1222 351 1204 q 405 1240 387 1240 q 434 1221 423 1240 q 462 1168 444 1202 q 527 1049 480 1135 q 575 959 574 964 q 576 952 576 955 q 568 943 576 943 z "},"":{"ha":776,"x_min":-41,"x_max":808,"o":"m 808 657 q 770 640 789 640 q 739 652 751 640 q 727 703 733 675 q 627 807 702 807 l 401 807 q 350 753 361 807 l 286 477 l 492 477 q 545 492 529 477 q 569 518 562 508 q 593 545 577 529 q 644 560 608 560 l 581 323 l 550 323 q 513 415 544 389 q 481 426 500 426 l 274 426 q 253 343 265 385 q 221 228 240 300 q 202 87 202 155 q 212 67 202 75 q 237 60 221 60 l 456 60 q 624 141 568 60 q 650 201 642 167 q 694 212 677 212 q 721 210 711 212 q 738 207 730 208 l 662 0 l -36 0 l -41 13 q -26 51 -41 33 q 54 73 26 51 q 93 140 82 95 q 117 235 104 186 q 145 338 131 284 q 227 720 227 635 q 217 778 227 766 q 130 807 198 804 q 125 828 125 817 q 140 857 125 840 l 808 857 l 808 657 m 390 952 q 390 957 390 952 q 464 1097 390 962 q 544 1236 538 1232 q 559 1240 550 1240 q 595 1221 577 1240 q 614 1191 614 1203 q 608 1173 614 1178 q 499 1048 570 1130 q 417 955 429 967 q 398 942 406 942 q 390 952 390 942 z "},"":{"ha":1142,"x_min":11,"x_max":1111,"o":"m 11 306 q 34 341 11 341 l 1081 341 q 1108 286 1097 341 q 1111 270 1111 275 q 1109 266 1111 266 l 39 251 q 12 289 19 251 q 11 306 11 298 z "},"":{"ha":776,"x_min":-41,"x_max":808,"o":"m 808 657 q 770 640 789 640 q 739 652 751 640 q 727 703 733 675 q 627 807 702 807 l 401 807 q 350 753 361 807 l 286 477 l 492 477 q 545 492 529 477 q 569 518 562 508 q 593 545 577 529 q 644 560 608 560 l 581 323 l 550 323 q 513 415 544 389 q 481 426 500 426 l 274 426 q 253 343 265 385 q 221 228 240 300 q 202 87 202 155 q 212 67 202 75 q 237 60 221 60 l 456 60 q 624 141 568 60 q 650 201 642 167 q 694 212 677 212 q 721 210 711 212 q 738 207 730 208 l 662 0 l -36 0 l -41 13 q -26 51 -41 33 q 54 73 26 51 q 93 140 82 95 q 117 235 104 186 q 145 338 131 284 q 227 720 227 635 q 217 778 227 766 q 130 807 198 804 q 125 828 125 817 q 140 857 125 840 l 808 857 l 808 657 m 590 1123 q 596 1129 590 1123 q 616 1141 602 1135 q 649 1147 630 1147 q 681 1134 667 1147 q 694 1102 694 1120 q 669 1046 694 1070 q 618 1023 644 1023 q 579 1036 592 1023 q 566 1066 566 1048 q 572 1098 566 1084 q 590 1123 579 1112 m 292 1123 q 298 1129 292 1123 q 317 1141 303 1135 q 350 1147 332 1147 q 382 1134 369 1147 q 395 1102 395 1120 q 370 1046 395 1070 q 319 1023 345 1023 q 280 1036 293 1023 q 267 1066 267 1048 q 274 1098 267 1084 q 292 1123 281 1112 z "},"":{"ha":390,"x_min":-41,"x_max":481,"o":"m -35 0 q -41 21 -41 7 q -26 52 -41 35 q 54 66 31 52 q 103 140 92 93 q 127 236 114 186 q 153 340 140 286 q 231 725 231 640 q 221 780 231 768 q 132 807 201 804 q 131 817 132 812 q 130 834 130 821 q 140 857 130 847 l 476 857 q 481 837 481 848 q 467 807 481 826 q 385 792 408 807 q 338 719 349 766 q 313 621 326 671 q 286 517 300 572 q 210 132 210 220 q 220 78 210 90 q 246 59 229 66 q 309 50 263 52 q 310 40 309 45 q 311 23 311 35 q 301 0 311 10 l -35 0 m 405 943 q 194 1173 391 943 l 193 1173 q 187 1187 187 1179 q 205 1222 187 1204 q 242 1240 224 1240 q 270 1221 260 1240 q 299 1168 281 1202 q 364 1049 317 1135 q 412 959 411 964 q 412 952 412 955 q 405 943 412 943 z "},"":{"ha":390,"x_min":-41,"x_max":481,"o":"m -35 0 q -41 21 -41 7 q -26 52 -41 35 q 54 66 31 52 q 103 140 92 93 q 127 236 114 186 q 153 340 140 286 q 231 725 231 640 q 221 780 231 768 q 132 807 201 804 q 131 817 132 812 q 130 834 130 821 q 140 857 130 847 l 476 857 q 481 837 481 848 q 467 807 481 826 q 385 792 408 807 q 338 719 349 766 q 313 621 326 671 q 286 517 300 572 q 210 132 210 220 q 220 78 210 90 q 246 59 229 66 q 309 50 263 52 q 310 40 309 45 q 311 23 311 35 q 301 0 311 10 l -35 0 m 226 952 q 226 957 226 952 q 300 1097 226 962 q 380 1236 374 1232 q 395 1240 386 1240 q 431 1221 413 1240 q 450 1191 450 1203 q 444 1173 450 1178 q 335 1048 406 1130 q 253 955 264 967 q 234 942 242 942 q 226 952 226 942 z "},"":{"ha":390,"x_min":-41,"x_max":481,"o":"m -35 0 q -41 21 -41 7 q -26 52 -41 35 q 54 66 31 52 q 103 140 92 93 q 127 236 114 186 q 153 340 140 286 q 231 725 231 640 q 221 780 231 768 q 132 807 201 804 q 131 817 132 812 q 130 834 130 821 q 140 857 130 847 l 476 857 q 481 837 481 848 q 467 807 481 826 q 385 792 408 807 q 338 719 349 766 q 313 621 326 671 q 286 517 300 572 q 210 132 210 220 q 220 78 210 90 q 246 59 229 66 q 309 50 263 52 q 310 40 309 45 q 311 23 311 35 q 301 0 311 10 l -35 0 m 439 926 l 319 1109 l 111 929 l 100 940 q 205 1090 158 1025 q 264 1170 253 1154 q 284 1197 276 1186 q 308 1219 292 1207 q 338 1230 323 1230 q 376 1194 363 1230 q 393 1142 383 1176 q 411 1080 403 1107 q 427 1025 420 1052 q 441 974 435 998 q 452 935 448 950 l 439 926 z "},"":{"ha":390,"x_min":-41,"x_max":530,"o":"m -35 0 q -41 21 -41 7 q -26 52 -41 35 q 54 66 31 52 q 103 140 92 93 q 127 236 114 186 q 153 340 140 286 q 231 725 231 640 q 221 780 231 768 q 132 807 201 804 q 131 817 132 812 q 130 834 130 821 q 140 857 130 847 l 476 857 q 481 837 481 848 q 467 807 481 826 q 385 792 408 807 q 338 719 349 766 q 313 621 326 671 q 286 517 300 572 q 210 132 210 220 q 220 78 210 90 q 246 59 229 66 q 309 50 263 52 q 310 40 309 45 q 311 23 311 35 q 301 0 311 10 l -35 0 m 427 1123 q 433 1129 427 1123 q 452 1141 438 1135 q 485 1147 467 1147 q 517 1134 504 1147 q 530 1102 530 1120 q 505 1046 530 1070 q 454 1023 480 1023 q 415 1036 429 1023 q 402 1066 402 1048 q 409 1098 402 1084 q 427 1123 416 1112 m 129 1123 q 134 1129 129 1123 q 154 1141 140 1135 q 187 1147 168 1147 q 219 1134 205 1147 q 232 1102 232 1120 q 207 1046 232 1070 q 156 1023 182 1023 q 117 1036 130 1023 q 104 1066 104 1048 q 111 1098 104 1084 q 129 1123 117 1112 z "},"":{"ha":922,"x_min":-41,"x_max":883,"o":"m -36 0 q -41 7 -41 0 q -36 35 -41 20 q -25 50 -31 50 q 53 65 30 50 q 103 134 94 92 q 130 249 113 177 q 168 414 147 321 l 55 414 l 60 437 q 79 492 71 492 l 186 492 q 235 732 235 700 q 226 776 235 764 q 205 794 218 788 q 177 802 192 800 q 141 805 162 803 q 119 820 119 808 q 134 857 119 841 l 513 857 q 774 762 666 857 q 883 517 883 667 q 824 273 883 393 q 662 76 765 153 q 431 0 558 0 l -36 0 m 434 492 q 409 414 418 414 l 281 414 l 203 50 l 416 50 q 593 138 517 50 q 709 348 669 226 q 749 545 749 470 q 689 751 749 680 q 519 823 629 823 l 460 823 q 393 810 412 823 q 352 744 361 789 l 298 492 l 434 492 z "},"":{"ha":939,"x_min":-41,"x_max":1036,"o":"m 688 149 q 819 748 819 728 q 780 797 819 783 q 715 807 753 807 q 706 837 706 817 l 708 857 l 1034 857 l 1036 837 q 1027 807 1036 817 q 945 785 973 807 q 905 709 917 762 l 742 -20 q 677 -27 705 -32 q 646 -16 649 -23 l 340 793 q 280 530 314 686 q 234 316 246 373 q 206 184 221 259 q 191 98 191 110 q 227 63 191 75 q 299 50 262 52 q 301 40 300 45 q 302 23 302 35 q 291 0 302 11 l -35 0 l -36 -1 l -41 12 l -26 50 q 54 65 31 50 q 105 145 94 92 q 115 190 108 158 q 133 265 123 222 q 154 359 142 308 q 178 461 166 410 q 240 750 240 732 q 232 777 240 768 q 210 791 223 786 q 160 804 195 798 q 125 818 125 809 q 134 857 125 835 l 429 857 l 688 149 m 793 1065 q 671 943 755 943 q 589 970 635 943 q 519 1009 543 997 q 472 1021 494 1021 q 436 1006 449 1021 q 412 968 424 991 l 399 972 q 518 1084 436 1084 q 599 1059 555 1084 q 667 1021 643 1033 q 714 1010 690 1010 q 751 1026 737 1010 q 778 1069 764 1042 l 793 1065 z "},"":{"ha":840,"x_min":68,"x_max":825,"o":"m 195 358 q 297 80 195 151 q 390 53 335 53 q 487 75 445 53 q 563 134 530 98 q 660 310 625 202 q 696 511 696 418 q 556 800 696 745 q 478 813 524 813 q 391 789 432 813 q 319 726 351 765 q 227 539 259 652 q 195 358 195 426 m 499 882 q 636 853 574 882 q 741 772 699 823 q 825 486 825 667 q 711 149 825 305 q 383 -23 585 -23 q 151 89 233 -23 q 68 380 68 201 q 178 713 68 560 q 499 882 299 882 m 631 943 q 420 1173 617 943 l 418 1173 q 413 1187 413 1179 q 431 1222 413 1204 q 468 1240 450 1240 q 496 1221 486 1240 q 525 1168 507 1202 q 590 1049 543 1135 q 637 959 637 964 q 638 952 638 955 q 631 943 638 943 z "},"":{"ha":840,"x_min":68,"x_max":825,"o":"m 195 358 q 297 80 195 151 q 390 53 335 53 q 487 75 445 53 q 563 134 530 98 q 660 310 625 202 q 696 511 696 418 q 556 800 696 745 q 478 813 524 813 q 391 789 432 813 q 319 726 351 765 q 227 539 259 652 q 195 358 195 426 m 499 882 q 636 853 574 882 q 741 772 699 823 q 825 486 825 667 q 711 149 825 305 q 383 -23 585 -23 q 151 89 233 -23 q 68 380 68 201 q 178 713 68 560 q 499 882 299 882 m 452 952 q 452 957 452 952 q 526 1097 452 962 q 606 1236 600 1232 q 621 1240 612 1240 q 658 1221 640 1240 q 676 1191 676 1203 q 671 1173 676 1178 q 562 1048 632 1130 q 480 955 491 967 q 460 942 469 942 q 452 952 452 942 z "},"":{"ha":840,"x_min":68,"x_max":825,"o":"m 195 358 q 297 80 195 151 q 390 53 335 53 q 487 75 445 53 q 563 134 530 98 q 660 310 625 202 q 696 511 696 418 q 556 800 696 745 q 478 813 524 813 q 391 789 432 813 q 319 726 351 765 q 227 539 259 652 q 195 358 195 426 m 499 882 q 636 853 574 882 q 741 772 699 823 q 825 486 825 667 q 711 149 825 305 q 383 -23 585 -23 q 151 89 233 -23 q 68 380 68 201 q 178 713 68 560 q 499 882 299 882 m 665 926 l 545 1109 l 337 929 l 326 940 q 431 1090 384 1025 q 490 1170 479 1154 q 510 1197 502 1186 q 533 1219 517 1207 q 564 1230 549 1230 q 602 1194 589 1230 q 619 1142 609 1176 q 637 1080 629 1107 q 653 1025 646 1052 q 667 974 661 998 q 678 935 674 950 l 665 926 z "},"":{"ha":840,"x_min":68,"x_max":825,"o":"m 195 358 q 297 80 195 151 q 390 53 335 53 q 487 75 445 53 q 563 134 530 98 q 660 310 625 202 q 696 511 696 418 q 556 800 696 745 q 478 813 524 813 q 391 789 432 813 q 319 726 351 765 q 227 539 259 652 q 195 358 195 426 m 499 882 q 636 853 574 882 q 741 772 699 823 q 825 486 825 667 q 711 149 825 305 q 383 -23 585 -23 q 151 89 233 -23 q 68 380 68 201 q 178 713 68 560 q 499 882 299 882 m 742 1065 q 619 943 704 943 q 537 970 583 943 q 467 1009 492 997 q 420 1021 443 1021 q 385 1006 397 1021 q 360 968 372 991 l 347 972 q 467 1084 385 1084 q 547 1059 503 1084 q 615 1021 591 1033 q 662 1010 639 1010 q 699 1026 686 1010 q 726 1069 713 1042 l 742 1065 z "},"":{"ha":840,"x_min":68,"x_max":825,"o":"m 195 358 q 297 80 195 151 q 390 53 335 53 q 487 75 445 53 q 563 134 530 98 q 660 310 625 202 q 696 511 696 418 q 556 800 696 745 q 478 813 524 813 q 391 789 432 813 q 319 726 351 765 q 227 539 259 652 q 195 358 195 426 m 499 882 q 636 853 574 882 q 741 772 699 823 q 825 486 825 667 q 711 149 825 305 q 383 -23 585 -23 q 151 89 233 -23 q 68 380 68 201 q 178 713 68 560 q 499 882 299 882 m 653 1123 q 658 1129 653 1123 q 678 1141 664 1135 q 711 1147 692 1147 q 743 1134 730 1147 q 756 1102 756 1120 q 731 1046 756 1070 q 680 1023 706 1023 q 641 1036 654 1023 q 628 1066 628 1048 q 635 1098 628 1084 q 653 1123 642 1112 m 354 1123 q 360 1129 354 1123 q 380 1141 366 1135 q 413 1147 394 1147 q 445 1134 431 1147 q 458 1102 458 1120 q 433 1046 458 1070 q 381 1023 408 1023 q 342 1036 355 1023 q 330 1066 330 1048 q 336 1098 330 1084 q 354 1123 343 1112 z "},"":{"ha":212,"x_min":49,"x_max":180,"o":"m 52 448 q 49 468 49 455 q 64 520 49 498 q 109 542 79 542 q 160 525 140 542 q 180 469 180 507 q 168 412 180 431 q 119 378 144 378 q 75 399 94 378 q 52 447 56 421 l 52 448 z "},"":{"ha":812,"x_min":60,"x_max":781,"o":"m 271 90 q 368 57 310 57 l 368 57 q 517 127 449 57 q 642 396 610 225 q 650 499 650 447 q 604 683 650 597 q 433 378 536 557 q 271 90 330 198 m 571 747 q 451 792 526 792 q 312 720 376 792 q 194 449 222 620 q 186 343 186 398 q 240 146 186 230 l 550 704 l 571 747 m 163 -90 l 147 -88 l 140 -88 q 179 19 142 -45 l 201 58 q 71 277 102 138 q 60 378 60 323 q 73 492 60 433 q 111 604 87 551 q 253 783 163 715 q 449 850 342 850 q 603 809 520 850 q 648 885 629 863 q 675 911 668 907 q 694 904 680 906 q 710 901 708 902 q 680 838 694 870 q 646 776 665 806 l 649 773 q 744 647 708 724 q 781 489 781 569 q 767 351 781 410 q 727 239 753 293 q 581 56 673 128 q 377 -16 488 -16 q 240 26 302 -16 q 224 -5 234 14 q 163 -90 183 -90 z "},"":{"ha":901,"x_min":96,"x_max":994,"o":"m 96 827 q 107 857 96 845 l 458 857 l 464 844 l 450 807 q 365 786 393 807 q 325 709 337 765 l 248 374 q 239 300 239 340 q 292 139 239 210 q 442 69 344 69 q 608 156 540 69 q 688 336 664 227 l 763 673 q 771 747 771 710 q 665 807 771 807 l 662 827 q 673 857 662 845 l 988 857 l 994 844 l 979 807 q 899 791 922 807 q 848 709 862 765 l 762 329 q 535 5 707 85 q 401 -23 475 -23 q 192 70 266 -23 q 119 294 119 163 q 130 378 119 338 l 209 703 q 212 731 212 715 q 186 788 212 769 q 120 807 159 807 l 99 807 l 96 827 m 729 943 q 518 1173 715 943 l 517 1173 q 511 1187 511 1179 q 530 1222 511 1204 q 566 1240 548 1240 q 594 1221 584 1240 q 623 1168 605 1202 q 688 1049 641 1135 q 736 959 735 964 q 736 952 736 955 q 729 943 736 943 z "},"":{"ha":901,"x_min":96,"x_max":994,"o":"m 96 827 q 107 857 96 845 l 458 857 l 464 844 l 450 807 q 365 786 393 807 q 325 709 337 765 l 248 374 q 239 300 239 340 q 292 139 239 210 q 442 69 344 69 q 608 156 540 69 q 688 336 664 227 l 763 673 q 771 747 771 710 q 665 807 771 807 l 662 827 q 673 857 662 845 l 988 857 l 994 844 l 979 807 q 899 791 922 807 q 848 709 862 765 l 762 329 q 535 5 707 85 q 401 -23 475 -23 q 192 70 266 -23 q 119 294 119 163 q 130 378 119 338 l 209 703 q 212 731 212 715 q 186 788 212 769 q 120 807 159 807 l 99 807 l 96 827 m 551 952 q 551 957 551 952 q 625 1097 551 962 q 705 1236 699 1232 q 720 1240 711 1240 q 756 1221 738 1240 q 774 1191 774 1203 q 769 1173 774 1178 q 660 1048 730 1130 q 578 955 589 967 q 559 942 567 942 q 551 952 551 942 z "},"":{"ha":901,"x_min":96,"x_max":994,"o":"m 96 827 q 107 857 96 845 l 458 857 l 464 844 l 450 807 q 365 786 393 807 q 325 709 337 765 l 248 374 q 239 300 239 340 q 292 139 239 210 q 442 69 344 69 q 608 156 540 69 q 688 336 664 227 l 763 673 q 771 747 771 710 q 665 807 771 807 l 662 827 q 673 857 662 845 l 988 857 l 994 844 l 979 807 q 899 791 922 807 q 848 709 862 765 l 762 329 q 535 5 707 85 q 401 -23 475 -23 q 192 70 266 -23 q 119 294 119 163 q 130 378 119 338 l 209 703 q 212 731 212 715 q 186 788 212 769 q 120 807 159 807 l 99 807 l 96 827 m 764 926 l 643 1109 l 435 929 l 424 940 q 530 1090 482 1025 q 589 1170 577 1154 q 608 1197 600 1186 q 632 1219 616 1207 q 662 1230 648 1230 q 701 1194 688 1230 q 717 1142 707 1176 q 735 1080 727 1107 q 751 1025 744 1052 q 766 974 759 998 q 777 935 772 950 l 764 926 z "},"":{"ha":901,"x_min":96,"x_max":994,"o":"m 96 827 q 107 857 96 845 l 458 857 l 464 844 l 450 807 q 365 786 393 807 q 325 709 337 765 l 248 374 q 239 300 239 340 q 292 139 239 210 q 442 69 344 69 q 608 156 540 69 q 688 336 664 227 l 763 673 q 771 747 771 710 q 665 807 771 807 l 662 827 q 673 857 662 845 l 988 857 l 994 844 l 979 807 q 899 791 922 807 q 848 709 862 765 l 762 329 q 535 5 707 85 q 401 -23 475 -23 q 192 70 266 -23 q 119 294 119 163 q 130 378 119 338 l 209 703 q 212 731 212 715 q 186 788 212 769 q 120 807 159 807 l 99 807 l 96 827 m 751 1123 q 757 1129 751 1123 q 777 1141 762 1135 q 809 1147 791 1147 q 841 1134 828 1147 q 854 1102 854 1120 q 829 1046 854 1070 q 779 1023 804 1023 q 740 1036 753 1023 q 726 1066 726 1048 q 733 1098 726 1084 q 751 1123 740 1112 m 453 1123 q 458 1129 453 1123 q 478 1141 464 1135 q 511 1147 492 1147 q 543 1134 530 1147 q 556 1102 556 1120 q 531 1046 556 1070 q 480 1023 506 1023 q 441 1036 454 1023 q 428 1066 428 1048 q 435 1098 428 1084 q 453 1123 441 1112 z "},"":{"ha":759,"x_min":15,"x_max":870,"o":"m 538 808 q 535 810 538 808 q 531 823 531 812 q 540 857 531 834 l 865 857 q 870 831 870 848 q 860 804 870 814 q 703 714 772 804 l 387 309 q 377 261 383 286 q 351 113 351 155 q 422 53 351 59 q 458 50 441 51 q 460 26 460 44 q 450 0 460 9 l 103 0 q 98 17 98 0 q 112 51 98 33 q 239 127 213 51 q 257 218 252 167 q 269 300 262 269 l 153 724 q 68 803 133 795 q 20 806 47 806 q 15 821 15 806 q 24 857 15 837 l 361 857 q 365 831 365 847 q 356 806 365 814 q 254 735 254 806 q 279 602 254 686 q 313 485 303 519 q 333 420 323 450 q 347 369 342 391 q 381 411 357 381 q 435 480 405 441 q 621 756 621 718 q 576 803 621 799 q 538 808 545 805 m 448 952 q 448 957 448 952 q 522 1097 448 962 q 602 1236 596 1232 q 617 1240 608 1240 q 654 1221 635 1240 q 672 1191 672 1203 q 667 1173 672 1178 q 557 1048 628 1130 q 476 955 487 967 q 456 942 465 942 q 448 952 448 942 z "},"":{"ha":714,"x_min":-45,"x_max":721,"o":"m 223 714 q 111 770 223 770 l 101 770 q 98 794 98 770 q 109 818 98 818 l 359 818 l 333 703 q 715 543 677 686 q 721 490 721 519 q 702 425 721 461 q 642 358 684 388 q 365 289 545 289 q 334 315 334 289 q 353 336 334 336 q 549 395 485 336 q 598 500 598 439 q 547 605 598 560 q 334 665 477 665 l 325 665 l 212 147 q 210 123 210 138 l 208 120 q 237 79 212 92 q 316 65 263 67 q 319 41 319 65 q 309 18 319 18 l -41 18 q -45 31 -45 18 q -40 55 -45 44 q -32 66 -34 66 q 44 77 22 66 q 102 155 89 98 l 220 688 q 223 714 223 696 z "},"":{"ha":746,"x_min":-49,"x_max":708,"o":"m 193 123 q 293 71 193 73 q 296 47 296 71 q 286 23 296 23 l -44 23 q -49 36 -49 23 q -43 60 -49 49 q -35 71 -37 71 q 35 82 14 71 q 88 162 75 104 l 170 532 q 282 758 198 666 q 483 850 366 850 q 633 811 576 850 q 690 707 690 772 q 564 524 690 585 q 485 491 526 505 l 485 471 q 649 395 590 456 q 708 246 708 335 q 637 73 708 157 q 463 -12 567 -12 q 389 3 410 -12 q 353 53 353 27 q 368 97 353 79 q 401 115 383 115 q 424 108 420 115 q 427 88 427 102 l 427 73 q 477 14 427 14 q 546 80 515 14 q 577 245 577 146 q 465 435 577 375 q 389 467 430 454 q 399 487 393 486 q 532 556 482 498 q 582 700 582 615 q 549 781 582 752 q 469 810 516 810 q 339 728 385 810 q 288 570 310 676 l 197 153 q 193 123 193 136 z "},"":{"ha":763,"x_min":48,"x_max":771,"o":"m 376 541 q 235 453 303 541 q 161 233 161 359 q 190 105 161 148 q 269 62 218 62 q 374 114 320 62 q 463 244 428 165 q 498 388 498 323 q 461 496 498 452 q 376 541 425 541 m 585 73 q 719 190 631 73 q 734 210 728 203 l 771 179 q 538 -14 642 -14 q 469 41 493 -14 q 459 87 459 65 l 459 111 q 460 122 459 115 q 463 143 461 130 q 468 178 465 156 q 229 -13 384 -13 q 100 45 153 -13 q 48 218 48 104 q 140 484 48 368 q 240 571 182 538 q 351 604 297 604 q 487 554 441 604 q 527 467 524 515 l 554 556 q 589 586 563 586 q 632 572 615 586 q 648 545 648 559 q 645 522 648 532 l 583 319 q 543 131 543 190 q 585 73 543 73 m 557 677 q 347 907 544 677 l 345 907 q 340 922 340 913 q 358 956 340 938 q 394 975 376 975 q 423 955 412 975 q 451 903 433 936 q 516 784 469 869 q 564 693 564 698 q 565 686 565 689 q 557 677 565 677 z "},"":{"ha":763,"x_min":48,"x_max":771,"o":"m 376 541 q 235 453 303 541 q 161 233 161 359 q 190 105 161 148 q 269 62 218 62 q 374 114 320 62 q 463 244 428 165 q 498 388 498 323 q 461 496 498 452 q 376 541 425 541 m 585 73 q 719 190 631 73 q 734 210 728 203 l 771 179 q 538 -14 642 -14 q 469 41 493 -14 q 459 87 459 65 l 459 111 q 460 122 459 115 q 463 143 461 130 q 468 178 465 156 q 229 -13 384 -13 q 100 45 153 -13 q 48 218 48 104 q 140 484 48 368 q 240 571 182 538 q 351 604 297 604 q 487 554 441 604 q 527 467 524 515 l 554 556 q 589 586 563 586 q 632 572 615 586 q 648 545 648 559 q 645 522 648 532 l 583 319 q 543 131 543 190 q 585 73 543 73 m 379 686 q 379 691 379 686 q 453 831 379 696 q 533 970 527 966 q 548 974 539 974 q 585 956 566 974 q 603 925 603 937 q 597 907 603 912 q 488 783 559 864 q 407 689 418 701 q 387 676 395 676 q 379 686 379 676 z "},"":{"ha":763,"x_min":48,"x_max":771,"o":"m 376 541 q 235 453 303 541 q 161 233 161 359 q 190 105 161 148 q 269 62 218 62 q 374 114 320 62 q 463 244 428 165 q 498 388 498 323 q 461 496 498 452 q 376 541 425 541 m 585 73 q 719 190 631 73 q 734 210 728 203 l 771 179 q 538 -14 642 -14 q 469 41 493 -14 q 459 87 459 65 l 459 111 q 460 122 459 115 q 463 143 461 130 q 468 178 465 156 q 229 -13 384 -13 q 100 45 153 -13 q 48 218 48 104 q 140 484 48 368 q 240 571 182 538 q 351 604 297 604 q 487 554 441 604 q 527 467 524 515 l 554 556 q 589 586 563 586 q 632 572 615 586 q 648 545 648 559 q 645 522 648 532 l 583 319 q 543 131 543 190 q 585 73 543 73 m 592 661 l 471 844 l 264 663 l 252 674 q 358 824 311 760 q 417 904 406 888 q 436 931 429 920 q 460 953 444 941 q 490 964 476 964 q 529 928 516 964 q 546 876 536 910 q 564 814 555 842 q 580 759 572 786 q 594 708 587 732 q 605 669 601 684 l 592 661 z "},"":{"ha":763,"x_min":48,"x_max":771,"o":"m 376 541 q 235 453 303 541 q 161 233 161 359 q 190 105 161 148 q 269 62 218 62 q 374 114 320 62 q 463 244 428 165 q 498 388 498 323 q 461 496 498 452 q 376 541 425 541 m 585 73 q 719 190 631 73 q 734 210 728 203 l 771 179 q 538 -14 642 -14 q 469 41 493 -14 q 459 87 459 65 l 459 111 q 460 122 459 115 q 463 143 461 130 q 468 178 465 156 q 229 -13 384 -13 q 100 45 153 -13 q 48 218 48 104 q 140 484 48 368 q 240 571 182 538 q 351 604 297 604 q 487 554 441 604 q 527 467 524 515 l 554 556 q 589 586 563 586 q 632 572 615 586 q 648 545 648 559 q 645 522 648 532 l 583 319 q 543 131 543 190 q 585 73 543 73 m 669 799 q 546 677 631 677 q 464 704 510 677 q 394 743 418 731 q 347 755 370 755 q 312 740 324 755 q 287 703 299 725 l 274 706 q 393 819 311 819 q 474 793 430 819 q 542 755 518 767 q 589 744 566 744 q 626 760 612 744 q 653 804 640 777 l 669 799 z "},"":{"ha":763,"x_min":48,"x_max":771,"o":"m 376 541 q 235 453 303 541 q 161 233 161 359 q 190 105 161 148 q 269 62 218 62 q 374 114 320 62 q 463 244 428 165 q 498 388 498 323 q 461 496 498 452 q 376 541 425 541 m 585 73 q 719 190 631 73 q 734 210 728 203 l 771 179 q 538 -14 642 -14 q 469 41 493 -14 q 459 87 459 65 l 459 111 q 460 122 459 115 q 463 143 461 130 q 468 178 465 156 q 229 -13 384 -13 q 100 45 153 -13 q 48 218 48 104 q 140 484 48 368 q 240 571 182 538 q 351 604 297 604 q 487 554 441 604 q 527 467 524 515 l 554 556 q 589 586 563 586 q 632 572 615 586 q 648 545 648 559 q 645 522 648 532 l 583 319 q 543 131 543 190 q 585 73 543 73 m 579 858 q 585 863 579 858 q 605 875 591 869 q 638 882 619 882 q 670 868 656 882 q 683 836 683 854 q 658 781 683 804 q 607 757 633 757 q 568 770 581 757 q 555 800 555 783 q 562 832 555 818 q 579 858 568 846 m 281 858 q 287 863 281 858 q 307 875 292 869 q 339 882 321 882 q 371 868 358 882 q 385 836 385 854 q 359 781 385 804 q 308 757 334 757 q 269 770 282 757 q 256 800 256 783 q 263 832 256 818 q 281 858 270 846 z "},"":{"ha":763,"x_min":48,"x_max":771,"o":"m 376 541 q 235 453 303 541 q 161 233 161 359 q 190 105 161 148 q 269 62 218 62 q 374 114 320 62 q 463 244 428 165 q 498 388 498 323 q 461 496 498 452 q 376 541 425 541 m 585 73 q 719 190 631 73 q 734 210 728 203 l 771 179 q 538 -14 642 -14 q 469 41 493 -14 q 459 87 459 65 l 459 111 q 460 122 459 115 q 463 143 461 130 q 468 178 465 156 q 229 -13 384 -13 q 100 45 153 -13 q 48 218 48 104 q 140 484 48 368 q 240 571 182 538 q 351 604 297 604 q 487 554 441 604 q 527 467 524 515 l 554 556 q 589 586 563 586 q 632 572 615 586 q 648 545 648 559 q 645 522 648 532 l 583 319 q 543 131 543 190 q 585 73 543 73 m 434 914 q 462 914 434 914 q 520 884 490 914 q 551 819 551 854 q 508 716 551 756 q 395 677 466 677 q 298 736 324 677 q 290 778 290 753 q 301 827 290 802 q 332 871 312 852 q 434 914 378 914 m 508 805 q 508 823 508 805 q 489 861 508 840 q 442 881 469 881 q 364 850 395 881 q 333 785 333 819 q 405 711 333 711 q 478 741 448 711 q 508 805 508 770 z "},"":{"ha":952,"x_min":44,"x_max":893,"o":"m 786 398 q 692 476 786 476 q 588 423 634 476 q 541 308 541 370 q 549 277 541 292 l 555 277 q 773 353 723 277 q 786 398 786 372 m 181 336 q 177 322 181 336 q 169 279 173 308 q 165 224 165 250 q 169 171 165 199 l 169 170 q 217 79 179 111 q 256 68 231 68 q 304 80 280 68 q 347 111 328 92 q 404 210 384 150 q 423 319 423 270 q 383 447 423 397 q 323 479 357 479 q 268 468 290 479 q 229 436 246 456 q 200 391 212 416 q 181 336 189 365 m 854 172 q 881 139 881 172 q 860 78 881 106 q 805 31 838 50 q 648 -8 738 -8 q 477 62 557 -8 q 426 113 452 84 q 253 -7 331 -7 q 118 50 176 -7 q 47 184 60 108 l 47 184 l 48 184 q 44 241 44 199 q 67 338 44 283 q 127 434 90 392 q 319 527 212 527 q 382 504 340 527 q 445 481 425 481 q 473 489 465 481 q 487 505 481 496 q 496 520 492 513 q 511 528 501 528 q 550 505 528 528 q 587 481 572 481 q 661 504 606 481 q 740 526 716 526 q 846 489 799 526 q 893 385 893 452 q 536 205 893 229 q 571 94 545 120 q 662 68 597 68 q 780 120 728 68 q 854 172 833 172 z "},"":{"ha":613,"x_min":48,"x_max":587,"o":"m 587 168 q 304 -13 462 -13 q 209 7 256 -13 q 126 64 161 28 q 48 273 48 144 q 140 503 48 402 q 357 604 231 604 q 497 566 420 604 q 574 467 574 528 q 526 422 574 422 q 472 457 500 422 q 446 490 459 473 q 351 557 396 557 q 216 464 270 557 q 163 263 163 370 q 250 83 163 131 q 318 67 279 67 q 446 111 387 67 q 536 208 484 140 l 587 168 m 319 -196 q 235 -131 319 -142 l 290 0 l 328 0 l 321 -103 q 411 -176 411 -115 q 358 -269 411 -232 q 239 -306 305 -306 q 165 -290 205 -306 l 173 -273 q 215 -282 193 -282 q 288 -258 257 -282 q 319 -196 319 -234 z "},"":{"ha":618,"x_min":48,"x_max":577,"o":"m 169 286 q 199 285 184 285 q 243 289 215 285 q 300 302 271 294 q 417 361 370 323 q 465 448 465 399 q 437 525 465 496 q 365 555 408 555 q 285 528 321 555 q 224 461 249 501 q 169 286 176 383 m 577 161 q 305 -13 451 -13 q 123 70 199 -13 q 48 280 48 153 q 144 506 48 408 q 369 604 240 604 q 501 560 442 604 q 560 437 560 515 q 479 308 560 358 q 236 241 397 257 q 168 236 196 238 l 168 210 q 210 102 168 151 q 315 54 253 54 q 488 142 409 54 q 530 191 509 166 l 577 161 m 549 677 q 338 907 535 677 l 336 907 q 331 922 331 913 q 349 956 331 938 q 386 975 368 975 q 414 955 404 975 q 443 903 425 936 q 508 784 460 869 q 555 693 555 698 q 556 686 556 689 q 549 677 556 677 z "},"":{"ha":618,"x_min":48,"x_max":594,"o":"m 169 286 q 199 285 184 285 q 243 289 215 285 q 300 302 271 294 q 417 361 370 323 q 465 448 465 399 q 437 525 465 496 q 365 555 408 555 q 285 528 321 555 q 224 461 249 501 q 169 286 176 383 m 577 161 q 305 -13 451 -13 q 123 70 199 -13 q 48 280 48 153 q 144 506 48 408 q 369 604 240 604 q 501 560 442 604 q 560 437 560 515 q 479 308 560 358 q 236 241 397 257 q 168 236 196 238 l 168 210 q 210 102 168 151 q 315 54 253 54 q 488 142 409 54 q 530 191 509 166 l 577 161 m 370 686 q 370 691 370 686 q 444 831 370 696 q 524 970 518 966 q 539 974 530 974 q 576 956 557 974 q 594 925 594 937 q 589 907 594 912 q 479 783 550 864 q 398 689 409 701 q 378 676 387 676 q 370 686 370 676 z "},"":{"ha":618,"x_min":48,"x_max":596,"o":"m 169 286 q 199 285 184 285 q 243 289 215 285 q 300 302 271 294 q 417 361 370 323 q 465 448 465 399 q 437 525 465 496 q 365 555 408 555 q 285 528 321 555 q 224 461 249 501 q 169 286 176 383 m 577 161 q 305 -13 451 -13 q 123 70 199 -13 q 48 280 48 153 q 144 506 48 408 q 369 604 240 604 q 501 560 442 604 q 560 437 560 515 q 479 308 560 358 q 236 241 397 257 q 168 236 196 238 l 168 210 q 210 102 168 151 q 315 54 253 54 q 488 142 409 54 q 530 191 509 166 l 577 161 m 583 661 l 463 844 l 255 663 l 243 674 q 349 824 302 760 q 408 904 397 888 q 428 931 420 920 q 451 953 435 941 q 481 964 467 964 q 520 928 507 964 q 537 876 527 910 q 555 814 547 842 q 571 759 564 786 q 585 708 578 732 q 596 669 592 684 l 583 661 z "},"":{"ha":618,"x_min":48,"x_max":674,"o":"m 169 286 q 199 285 184 285 q 243 289 215 285 q 300 302 271 294 q 417 361 370 323 q 465 448 465 399 q 437 525 465 496 q 365 555 408 555 q 285 528 321 555 q 224 461 249 501 q 169 286 176 383 m 577 161 q 305 -13 451 -13 q 123 70 199 -13 q 48 280 48 153 q 144 506 48 408 q 369 604 240 604 q 501 560 442 604 q 560 437 560 515 q 479 308 560 358 q 236 241 397 257 q 168 236 196 238 l 168 210 q 210 102 168 151 q 315 54 253 54 q 488 142 409 54 q 530 191 509 166 l 577 161 m 571 858 q 576 863 571 858 q 596 875 582 869 q 629 882 610 882 q 661 868 648 882 q 674 836 674 854 q 649 781 674 804 q 598 757 624 757 q 559 770 572 757 q 546 800 546 783 q 553 832 546 818 q 571 858 559 846 m 272 858 q 278 863 272 858 q 298 875 283 869 q 331 882 312 882 q 362 868 349 882 q 376 836 376 854 q 351 781 376 804 q 299 757 326 757 q 260 770 273 757 q 248 800 248 783 q 254 832 248 818 q 272 858 261 846 z "},"":{"ha":463,"x_min":12,"x_max":496,"o":"m 347 142 l 386 200 l 430 170 l 389 109 q 211 -13 306 -13 q 133 23 163 -13 q 104 112 104 59 q 136 251 104 165 l 204 444 q 213 471 208 457 q 218 500 218 486 q 180 547 218 547 q 133 518 161 547 q 47 410 105 489 l 12 437 q 105 550 73 521 q 218 606 165 606 q 317 490 317 606 q 301 391 317 440 l 230 172 q 219 104 219 147 q 257 62 219 62 q 347 142 295 62 m 489 676 q 278 907 475 676 l 277 907 q 271 921 271 912 q 290 956 271 937 q 326 974 308 974 q 354 955 344 974 q 383 902 365 935 q 448 783 401 869 q 496 693 495 697 q 496 686 496 688 q 489 676 496 676 z "},"":{"ha":463,"x_min":12,"x_max":430,"o":"m 347 142 l 386 200 l 430 170 l 389 109 q 211 -13 306 -13 q 133 23 163 -13 q 104 112 104 59 q 136 251 104 165 l 204 444 q 213 471 208 457 q 218 500 218 486 q 180 547 218 547 q 133 518 161 547 q 47 410 105 489 l 12 437 q 105 550 73 521 q 218 606 165 606 q 317 490 317 606 q 301 391 317 440 l 230 172 q 219 104 219 147 q 257 62 219 62 q 347 142 295 62 m 119 686 q 119 691 119 686 q 193 831 119 696 q 273 970 267 966 q 288 974 279 974 q 325 956 307 974 q 343 925 343 937 q 338 907 343 912 q 229 783 299 864 q 147 689 158 701 q 127 676 136 676 q 119 686 119 676 z "},"":{"ha":463,"x_min":12,"x_max":452,"o":"m 347 142 l 386 200 l 430 170 l 389 109 q 211 -13 306 -13 q 133 23 163 -13 q 104 112 104 59 q 136 251 104 165 l 204 444 q 213 471 208 457 q 218 500 218 486 q 180 547 218 547 q 133 518 161 547 q 47 410 105 489 l 12 437 q 105 550 73 521 q 218 606 165 606 q 317 490 317 606 q 301 391 317 440 l 230 172 q 219 104 219 147 q 257 62 219 62 q 347 142 295 62 m 439 661 l 318 844 l 111 663 l 99 674 q 205 824 157 760 q 264 904 252 888 q 283 931 275 920 q 307 953 291 941 q 337 964 323 964 q 376 928 363 964 q 392 876 382 910 q 411 814 402 842 q 427 759 419 786 q 441 708 434 732 q 452 669 448 684 l 439 661 z "},"":{"ha":463,"x_min":12,"x_max":446,"o":"m 347 142 l 386 200 l 430 170 l 389 109 q 211 -13 306 -13 q 133 23 163 -13 q 104 112 104 59 q 136 251 104 165 l 204 444 q 213 471 208 457 q 218 500 218 486 q 180 547 218 547 q 133 518 161 547 q 47 410 105 489 l 12 437 q 105 550 73 521 q 218 606 165 606 q 317 490 317 606 q 301 391 317 440 l 230 172 q 219 104 219 147 q 257 62 219 62 q 347 142 295 62 m 342 857 q 348 862 342 857 q 368 874 353 868 q 400 881 382 881 q 432 867 419 881 q 446 836 446 854 q 420 780 446 804 q 370 756 395 756 q 331 769 344 756 q 317 800 317 782 q 324 831 317 817 q 342 857 331 846 m 44 857 q 49 862 44 857 q 69 874 55 868 q 102 881 83 881 q 134 867 121 881 q 147 836 147 854 q 122 780 147 804 q 71 756 97 756 q 32 769 45 756 q 19 800 19 782 q 26 831 19 817 q 44 857 33 846 z "},"":{"ha":641,"x_min":32,"x_max":660,"o":"m 147 161 q 251 25 147 25 q 418 159 355 25 q 457 333 457 245 q 399 454 457 421 q 349 465 378 465 q 261 434 298 465 q 209 370 224 402 q 163 252 178 307 q 147 161 147 197 m 533 715 q 598 489 598 606 q 555 262 598 372 q 342 10 483 74 q 237 -12 292 -12 q 84 41 136 -12 q 32 174 32 94 q 77 336 32 254 q 264 510 146 465 q 337 525 304 525 q 422 505 392 525 q 483 445 453 486 l 503 445 l 503 469 q 458 682 503 595 l 290 606 l 290 608 l 285 606 q 264 625 272 606 q 386 692 313 661 l 439 715 l 429 728 q 321 812 386 779 q 315 817 315 814 q 326 836 315 824 q 355 847 338 847 l 363 846 l 364 846 q 400 824 385 840 q 431 789 416 807 q 461 758 446 771 q 488 744 476 744 q 509 747 499 744 l 628 796 q 650 792 640 796 q 660 782 660 787 l 659 779 q 608 745 644 759 q 558 726 571 731 l 533 715 z "},"":{"ha":863,"x_min":12,"x_max":856,"o":"m 192 319 q 200 343 192 319 q 216 410 207 368 q 226 487 226 453 q 198 520 226 520 q 88 419 154 520 q 51 360 70 390 l 12 394 l 31 422 q 246 591 140 591 q 306 570 282 591 q 330 516 330 549 q 325 453 330 482 q 312 393 320 425 q 239 179 283 277 l 247 174 q 560 585 404 504 q 636 604 600 604 q 727 571 699 602 q 755 504 755 541 q 748 433 755 467 q 728 365 740 399 q 702 295 715 330 q 668 206 688 260 q 648 108 648 151 q 676 64 648 64 q 772 143 715 64 q 808 195 789 167 l 818 210 q 856 176 849 182 l 841 155 q 746 38 778 66 q 635 -13 688 -13 q 559 18 583 -13 q 536 89 536 48 q 543 168 536 130 q 562 242 551 205 q 586 315 573 279 q 637 473 637 451 q 604 517 637 517 q 339 224 513 517 q 263 93 289 138 q 227 31 237 47 q 171 -13 198 -13 q 117 57 117 -13 q 131 126 117 84 q 161 219 144 169 q 192 319 178 270 m 812 798 q 690 676 774 676 q 608 703 654 676 q 538 743 562 730 q 491 755 513 755 q 455 740 468 755 q 431 702 443 724 l 418 705 q 537 818 455 818 q 618 792 574 818 q 686 755 662 766 q 733 743 709 743 q 770 760 756 743 q 797 803 783 776 l 812 798 z "},"":{"ha":663,"x_min":48,"x_max":617,"o":"m 431 126 q 480 221 461 163 q 500 342 500 278 q 466 494 500 449 q 388 539 432 539 q 231 457 300 539 q 162 245 162 376 q 199 101 162 151 q 292 52 235 52 q 431 126 372 52 m 529 98 q 427 17 486 47 q 309 -13 368 -13 q 121 55 195 -13 q 48 249 48 122 q 146 505 48 406 q 370 604 243 604 q 544 538 470 604 q 617 336 617 471 q 529 98 617 201 m 547 677 q 336 907 534 677 l 335 907 q 330 922 330 913 q 348 956 330 938 q 384 975 366 975 q 413 955 402 975 q 441 903 423 936 q 506 784 459 869 q 554 693 553 698 q 555 686 555 689 q 547 677 555 677 z "},"":{"ha":663,"x_min":48,"x_max":617,"o":"m 431 126 q 480 221 461 163 q 500 342 500 278 q 466 494 500 449 q 388 539 432 539 q 231 457 300 539 q 162 245 162 376 q 199 101 162 151 q 292 52 235 52 q 431 126 372 52 m 529 98 q 427 17 486 47 q 309 -13 368 -13 q 121 55 195 -13 q 48 249 48 122 q 146 505 48 406 q 370 604 243 604 q 544 538 470 604 q 617 336 617 471 q 529 98 617 201 m 369 686 q 369 691 369 686 q 443 831 369 696 q 523 970 517 966 q 538 974 529 974 q 574 956 556 974 q 593 925 593 937 q 587 907 593 912 q 478 783 549 864 q 396 689 408 701 q 377 676 385 676 q 369 686 369 676 z "},"":{"ha":663,"x_min":48,"x_max":617,"o":"m 431 126 q 480 221 461 163 q 500 342 500 278 q 466 494 500 449 q 388 539 432 539 q 231 457 300 539 q 162 245 162 376 q 199 101 162 151 q 292 52 235 52 q 431 126 372 52 m 529 98 q 427 17 486 47 q 309 -13 368 -13 q 121 55 195 -13 q 48 249 48 122 q 146 505 48 406 q 370 604 243 604 q 544 538 470 604 q 617 336 617 471 q 529 98 617 201 m 582 661 l 461 844 l 254 663 l 242 674 q 348 824 300 760 q 407 904 395 888 q 426 931 418 920 q 450 953 434 941 q 480 964 466 964 q 519 928 506 964 q 535 876 526 910 q 554 814 545 842 q 570 759 562 786 q 584 708 577 732 q 595 669 591 684 l 582 661 z "},"":{"ha":663,"x_min":48,"x_max":659,"o":"m 431 126 q 480 221 461 163 q 500 342 500 278 q 466 494 500 449 q 388 539 432 539 q 231 457 300 539 q 162 245 162 376 q 199 101 162 151 q 292 52 235 52 q 431 126 372 52 m 529 98 q 427 17 486 47 q 309 -13 368 -13 q 121 55 195 -13 q 48 249 48 122 q 146 505 48 406 q 370 604 243 604 q 544 538 470 604 q 617 336 617 471 q 529 98 617 201 m 659 799 q 536 677 621 677 q 454 704 500 677 q 384 743 408 731 q 337 755 359 755 q 301 740 314 755 q 277 703 289 725 l 264 706 q 383 819 301 819 q 464 793 420 819 q 532 755 508 767 q 579 744 555 744 q 616 760 602 744 q 643 804 629 777 l 659 799 z "},"":{"ha":663,"x_min":48,"x_max":673,"o":"m 431 126 q 480 221 461 163 q 500 342 500 278 q 466 494 500 449 q 388 539 432 539 q 231 457 300 539 q 162 245 162 376 q 199 101 162 151 q 292 52 235 52 q 431 126 372 52 m 529 98 q 427 17 486 47 q 309 -13 368 -13 q 121 55 195 -13 q 48 249 48 122 q 146 505 48 406 q 370 604 243 604 q 544 538 470 604 q 617 336 617 471 q 529 98 617 201 m 569 858 q 575 863 569 858 q 595 875 581 869 q 628 882 609 882 q 660 868 646 882 q 673 836 673 854 q 648 781 673 804 q 597 757 623 757 q 558 770 571 757 q 545 800 545 783 q 551 832 545 818 q 569 858 558 846 m 271 858 q 277 863 271 858 q 296 875 282 869 q 329 882 311 882 q 361 868 348 882 q 374 836 374 854 q 349 781 374 804 q 298 757 324 757 q 259 770 272 757 q 246 800 246 783 q 253 832 246 818 q 271 858 260 846 z "},"":{"ha":677,"x_min":6,"x_max":681,"o":"m 651 385 l 82 383 l 82 382 l 46 382 q 6 397 6 382 q 24 456 6 438 q 39 463 31 463 l 179 463 l 460 463 l 606 463 q 681 447 643 463 q 676 426 678 437 q 669 400 674 415 q 651 385 664 385 m 307 234 l 308 234 q 346 218 332 234 q 360 183 360 202 q 334 122 360 149 q 280 96 308 96 q 239 111 252 96 q 225 145 225 126 q 251 207 225 180 q 307 234 277 234 m 410 752 l 410 752 q 448 736 434 752 q 462 701 462 720 q 435 641 462 668 q 381 614 408 614 q 340 629 355 614 q 326 662 326 644 q 352 725 326 697 q 410 752 378 752 z "},"":{"ha":650,"x_min":39,"x_max":610,"o":"m 156 44 q 39 280 39 140 q 127 523 39 420 q 336 627 216 627 q 451 601 401 627 q 538 761 513 726 q 576 804 563 795 l 576 803 q 610 794 595 802 q 494 572 542 652 q 606 323 606 482 q 516 88 606 189 q 305 -13 427 -13 q 195 16 252 -13 q 138 -94 167 -39 q 72 -193 109 -148 q 62 -197 68 -197 l 47 -195 l 40 -195 q 79 -92 42 -155 l 156 44 m 463 503 l 217 52 q 294 28 247 28 l 293 29 q 432 146 372 29 q 492 383 492 263 q 463 503 492 450 m 431 556 q 365 581 401 581 q 304 564 330 581 q 258 521 279 548 q 185 382 214 467 q 157 227 157 297 q 185 103 157 156 l 431 556 z "},"":{"ha":840,"x_min":8,"x_max":835,"o":"m 241 604 q 328 522 328 604 q 270 313 328 460 q 211 115 211 165 q 221 83 211 96 q 247 70 231 70 q 287 91 264 70 q 337 145 310 111 q 393 221 363 178 q 450 307 422 263 q 503 390 477 350 q 544 453 528 429 q 576 503 560 477 q 696 604 642 604 q 728 584 717 604 q 739 542 739 564 q 733 496 739 521 l 634 163 q 623 97 623 132 q 650 62 623 62 q 699 83 677 62 q 757 155 721 104 l 796 210 l 835 179 l 796 125 q 721 31 749 56 q 607 -13 667 -13 q 528 50 547 -13 q 522 96 522 68 q 543 222 522 155 q 605 395 564 289 l 622 439 l 611 445 q 565 365 591 412 q 507 268 538 319 q 215 -13 337 -13 q 103 99 103 -13 q 125 224 103 159 q 187 393 155 314 q 220 490 220 473 q 186 528 220 528 q 77 419 142 528 q 57 387 66 401 q 44 366 49 372 l 8 398 q 168 585 77 532 q 241 604 203 604 m 652 676 q 441 907 639 676 l 440 907 q 435 921 435 912 q 453 956 435 937 q 489 974 471 974 q 518 955 507 974 q 546 902 528 935 q 611 783 564 869 q 659 693 659 697 q 660 686 660 688 q 652 676 660 676 z "},"":{"ha":840,"x_min":8,"x_max":835,"o":"m 241 604 q 328 522 328 604 q 270 313 328 460 q 211 115 211 165 q 221 83 211 96 q 247 70 231 70 q 287 91 264 70 q 337 145 310 111 q 393 221 363 178 q 450 307 422 263 q 503 390 477 350 q 544 453 528 429 q 576 503 560 477 q 696 604 642 604 q 728 584 717 604 q 739 542 739 564 q 733 496 739 521 l 634 163 q 623 97 623 132 q 650 62 623 62 q 699 83 677 62 q 757 155 721 104 l 796 210 l 835 179 l 796 125 q 721 31 749 56 q 607 -13 667 -13 q 528 50 547 -13 q 522 96 522 68 q 543 222 522 155 q 605 395 564 289 l 622 439 l 611 445 q 565 365 591 412 q 507 268 538 319 q 215 -13 337 -13 q 103 99 103 -13 q 125 224 103 159 q 187 393 155 314 q 220 490 220 473 q 186 528 220 528 q 77 419 142 528 q 57 387 66 401 q 44 366 49 372 l 8 398 q 168 585 77 532 q 241 604 203 604 m 474 686 q 474 691 474 686 q 548 831 474 696 q 628 970 622 966 q 643 974 634 974 q 680 956 661 974 q 698 925 698 937 q 692 907 698 912 q 583 783 654 864 q 502 689 513 701 q 482 676 490 676 q 474 686 474 676 z "},"":{"ha":840,"x_min":8,"x_max":835,"o":"m 241 604 q 328 522 328 604 q 270 313 328 460 q 211 115 211 165 q 221 83 211 96 q 247 70 231 70 q 287 91 264 70 q 337 145 310 111 q 393 221 363 178 q 450 307 422 263 q 503 390 477 350 q 544 453 528 429 q 576 503 560 477 q 696 604 642 604 q 728 584 717 604 q 739 542 739 564 q 733 496 739 521 l 634 163 q 623 97 623 132 q 650 62 623 62 q 699 83 677 62 q 757 155 721 104 l 796 210 l 835 179 l 796 125 q 721 31 749 56 q 607 -13 667 -13 q 528 50 547 -13 q 522 96 522 68 q 543 222 522 155 q 605 395 564 289 l 622 439 l 611 445 q 565 365 591 412 q 507 268 538 319 q 215 -13 337 -13 q 103 99 103 -13 q 125 224 103 159 q 187 393 155 314 q 220 490 220 473 q 186 528 220 528 q 77 419 142 528 q 57 387 66 401 q 44 366 49 372 l 8 398 q 168 585 77 532 q 241 604 203 604 m 687 661 l 566 844 l 359 663 l 347 674 q 453 824 406 760 q 512 904 500 888 q 531 931 524 920 q 555 953 539 941 q 585 964 571 964 q 624 928 611 964 q 641 876 631 910 q 659 814 650 842 q 675 759 667 786 q 689 708 682 732 q 700 669 696 684 l 687 661 z "},"":{"ha":840,"x_min":8,"x_max":835,"o":"m 241 604 q 328 522 328 604 q 270 313 328 460 q 211 115 211 165 q 221 83 211 96 q 247 70 231 70 q 287 91 264 70 q 337 145 310 111 q 393 221 363 178 q 450 307 422 263 q 503 390 477 350 q 544 453 528 429 q 576 503 560 477 q 696 604 642 604 q 728 584 717 604 q 739 542 739 564 q 733 496 739 521 l 634 163 q 623 97 623 132 q 650 62 623 62 q 699 83 677 62 q 757 155 721 104 l 796 210 l 835 179 l 796 125 q 721 31 749 56 q 607 -13 667 -13 q 528 50 547 -13 q 522 96 522 68 q 543 222 522 155 q 605 395 564 289 l 622 439 l 611 445 q 565 365 591 412 q 507 268 538 319 q 215 -13 337 -13 q 103 99 103 -13 q 125 224 103 159 q 187 393 155 314 q 220 490 220 473 q 186 528 220 528 q 77 419 142 528 q 57 387 66 401 q 44 366 49 372 l 8 398 q 168 585 77 532 q 241 604 203 604 m 674 857 q 680 862 674 857 q 700 874 686 868 q 733 881 714 881 q 765 867 751 881 q 778 836 778 854 q 753 780 778 804 q 702 756 728 756 q 663 769 676 756 q 650 800 650 782 q 656 831 650 817 q 674 857 663 846 m 376 857 q 382 862 376 857 q 401 874 387 868 q 434 881 416 881 q 466 867 453 881 q 479 836 479 854 q 454 780 479 804 q 403 756 429 756 q 364 769 377 756 q 351 800 351 782 q 358 831 351 817 q 376 857 365 846 z "},"":{"ha":694,"x_min":-69,"x_max":639,"o":"m 482 555 q 534 604 482 604 q 616 541 587 604 q 637 437 637 492 l 639 438 q 522 101 639 293 q 258 -195 405 -91 q 65 -269 153 -269 q -12 -253 19 -269 q -69 -179 -69 -222 q -20 -136 -69 -146 q 9 -134 -7 -134 q 68 -145 26 -134 q 130 -157 110 -157 q 202 -133 168 -157 q 324 -16 236 -108 q 297 74 311 28 q 270 165 283 119 q 243 256 256 211 q 212 362 229 300 q 133 515 167 515 q 37 420 92 515 q 17 389 24 399 l -18 419 q 64 542 36 511 q 176 604 119 604 q 265 509 233 604 q 334 279 298 403 q 399 62 370 155 q 530 300 494 195 q 538 349 538 324 q 510 454 538 385 q 482 555 482 522 m 368 686 q 368 691 368 686 q 441 831 368 696 q 522 970 515 966 q 536 974 528 974 q 573 956 555 974 q 591 925 591 937 q 586 907 591 912 q 477 783 547 864 q 395 689 406 701 q 376 676 384 676 q 368 686 368 676 z "},"":{"ha":713,"x_min":-116,"x_max":691,"o":"m 130 -174 q 183 -216 130 -216 q 209 -217 197 -216 q 237 -235 237 -218 q 213 -267 237 -267 l -105 -267 q -116 -261 -116 -267 q -85 -222 -116 -227 q -54 -220 -71 -220 q 29 -145 12 -219 l 256 822 l 139 822 q 121 829 121 822 q 127 858 121 840 q 138 877 134 877 l 338 901 q 345 902 341 902 l 351 902 l 350 900 q 368 896 363 900 q 372 876 372 892 q 363 822 372 860 l 312 600 l 331 607 q 438 624 378 624 q 626 566 560 624 q 691 414 691 507 q 629 228 691 321 q 328 20 526 73 q 182 2 260 2 l 174 2 l 133 -146 q 130 -174 130 -158 m 417 534 l 345 541 q 302 518 308 541 l 184 64 l 198 64 l 198 64 q 461 180 349 64 q 552 328 526 248 q 565 397 565 366 q 527 497 565 460 q 417 534 489 534 z "},"":{"ha":694,"x_min":-69,"x_max":671,"o":"m 482 555 q 534 604 482 604 q 616 541 587 604 q 637 437 637 492 l 639 438 q 522 101 639 293 q 258 -195 405 -91 q 65 -269 153 -269 q -12 -253 19 -269 q -69 -179 -69 -222 q -20 -136 -69 -146 q 9 -134 -7 -134 q 68 -145 26 -134 q 130 -157 110 -157 q 202 -133 168 -157 q 324 -16 236 -108 q 297 74 311 28 q 270 165 283 119 q 243 256 256 211 q 212 362 229 300 q 133 515 167 515 q 37 420 92 515 q 17 389 24 399 l -18 419 q 64 542 36 511 q 176 604 119 604 q 265 509 233 604 q 334 279 298 403 q 399 62 370 155 q 530 300 494 195 q 538 349 538 324 q 510 454 538 385 q 482 555 482 522 m 568 857 q 574 862 568 857 q 593 874 579 868 q 626 881 608 881 q 658 867 645 881 q 671 836 671 854 q 646 780 671 804 q 595 756 621 756 q 556 769 570 756 q 543 800 543 782 q 550 831 543 817 q 568 857 557 846 m 270 857 q 275 862 270 857 q 295 874 281 868 q 328 881 309 881 q 360 867 347 881 q 373 836 373 854 q 348 780 373 804 q 297 756 323 756 q 258 769 271 756 q 245 800 245 782 q 252 831 245 817 q 270 857 258 846 z "},"":{"ha":867,"x_min":-51,"x_max":846,"o":"m 581 319 l 581 703 l 341 319 l 581 319 m 452 0 q 448 15 448 0 q 460 50 448 29 q 570 122 552 50 q 577 202 577 155 q 579 277 577 249 l 306 277 q 281 240 301 269 q 201 97 201 125 q 298 50 201 50 q 304 34 304 46 l 304 20 q 298 0 304 0 l -45 0 q -51 16 -51 0 q -38 50 -51 31 q 55 72 18 50 q 122 143 91 94 l 586 857 l 696 857 l 678 136 q 745 53 678 63 q 790 50 765 50 q 797 35 797 47 l 797 20 q 790 0 797 0 l 452 0 m 833 955 l 449 955 l 462 1019 l 846 1019 l 833 955 z "},"":{"ha":763,"x_min":48,"x_max":771,"o":"m 376 541 q 235 453 303 541 q 161 233 161 359 q 190 105 161 148 q 269 62 218 62 q 374 114 320 62 q 463 244 428 165 q 498 388 498 323 q 461 496 498 452 q 376 541 425 541 m 585 73 q 719 190 631 73 q 734 210 728 203 l 771 179 q 538 -14 642 -14 q 469 41 493 -14 q 459 87 459 65 l 459 111 q 460 122 459 115 q 463 143 461 130 q 468 178 465 156 q 229 -13 384 -13 q 100 45 153 -13 q 48 218 48 104 q 140 484 48 368 q 240 571 182 538 q 351 604 297 604 q 487 554 441 604 q 527 467 524 515 l 554 556 q 589 586 563 586 q 632 572 615 586 q 648 545 648 559 q 645 522 648 532 l 583 319 q 543 131 543 190 q 585 73 543 73 m 558 690 l 174 690 l 186 753 l 571 753 l 558 690 z "},"":{"ha":886,"x_min":-51,"x_max":845,"o":"m 581 319 l 581 703 l 341 319 l 581 319 m 452 0 q 448 15 448 0 q 460 50 448 29 q 570 122 552 50 q 577 202 577 155 q 579 277 577 249 l 306 277 q 281 240 301 269 q 201 97 201 125 q 298 50 201 50 q 304 34 304 46 l 304 20 q 298 0 304 0 l -45 0 q -51 16 -51 0 q -38 50 -51 31 q 55 72 18 50 q 122 143 91 94 l 586 857 l 696 857 l 678 136 q 745 53 678 63 q 790 50 765 50 q 797 35 797 47 l 797 20 q 790 0 797 0 l 452 0 m 555 1086 q 682 1008 580 1008 q 827 1086 783 1008 l 845 1086 q 778 980 827 1019 q 661 942 730 942 q 562 974 591 942 q 532 1058 532 1005 q 534 1086 532 1071 l 555 1086 z "},"":{"ha":763,"x_min":48,"x_max":771,"o":"m 376 541 q 235 453 303 541 q 161 233 161 359 q 190 105 161 148 q 269 62 218 62 q 374 114 320 62 q 463 244 428 165 q 498 388 498 323 q 461 496 498 452 q 376 541 425 541 m 585 73 q 719 190 631 73 q 734 210 728 203 l 771 179 q 538 -14 642 -14 q 469 41 493 -14 q 459 87 459 65 l 459 111 q 460 122 459 115 q 463 143 461 130 q 468 178 465 156 q 229 -13 384 -13 q 100 45 153 -13 q 48 218 48 104 q 140 484 48 368 q 240 571 182 538 q 351 604 297 604 q 487 554 441 604 q 527 467 524 515 l 554 556 q 589 586 563 586 q 632 572 615 586 q 648 545 648 559 q 645 522 648 532 l 583 319 q 543 131 543 190 q 585 73 543 73 m 279 821 q 406 742 304 742 q 552 821 508 742 l 570 821 q 503 714 551 753 q 385 676 454 676 q 287 708 316 676 q 257 792 257 739 q 259 821 257 805 l 279 821 z "},"":{"ha":886,"x_min":-51,"x_max":797,"o":"m 581 319 l 581 703 l 341 319 l 581 319 m 452 0 q 448 15 448 0 q 460 50 448 29 q 570 122 552 50 q 577 202 577 155 q 579 277 577 249 l 306 277 q 281 240 301 269 q 201 97 201 125 q 298 50 201 50 q 304 34 304 46 l 304 20 q 298 0 304 0 l -45 0 q -51 16 -51 0 q -38 50 -51 31 q 55 72 18 50 q 122 143 91 94 l 586 857 l 696 857 l 678 136 q 745 53 678 63 q 790 50 765 50 q 797 35 797 47 l 797 20 q 790 0 797 0 l 452 0 m 260 -155 q 356 0 260 -62 l 397 0 q 334 -114 334 -57 q 362 -172 334 -152 q 424 -191 391 -191 q 498 -177 458 -191 l 496 -206 q 380 -241 439 -241 q 299 -224 321 -241 q 260 -155 260 -196 z "},"":{"ha":763,"x_min":48,"x_max":771,"o":"m 376 541 q 235 453 303 541 q 161 233 161 359 q 190 105 161 148 q 269 62 218 62 q 374 114 320 62 q 463 244 428 165 q 498 388 498 323 q 461 496 498 452 q 376 541 425 541 m 585 73 q 719 190 631 73 q 734 210 728 203 l 771 179 q 538 -14 642 -14 q 469 41 493 -14 q 459 87 459 65 l 459 111 q 460 122 459 115 q 463 143 461 130 q 468 178 465 156 q 229 -13 384 -13 q 100 45 153 -13 q 48 218 48 104 q 140 484 48 368 q 240 571 182 538 q 351 604 297 604 q 487 554 441 604 q 527 467 524 515 l 554 556 q 589 586 563 586 q 632 572 615 586 q 648 545 648 559 q 645 522 648 532 l 583 319 q 543 131 543 190 q 585 73 543 73 m 296 -155 q 393 0 296 -62 l 434 0 q 370 -114 370 -57 q 399 -172 370 -152 q 461 -191 427 -191 q 535 -177 494 -191 l 533 -206 q 417 -241 476 -241 q 336 -224 358 -241 q 296 -155 296 -196 z "},"":{"ha":821,"x_min":68,"x_max":850,"o":"m 401 -23 q 266 13 330 -23 q 158 109 202 50 q 68 389 68 227 q 129 625 68 511 q 294 811 189 740 q 522 882 399 882 q 738 829 644 882 q 850 652 850 766 q 836 612 850 629 q 800 595 822 595 q 766 604 778 595 q 746 629 753 614 q 732 664 738 644 q 718 704 726 684 q 553 813 676 813 q 289 651 387 813 q 232 526 260 604 q 203 370 203 448 q 254 147 203 224 q 433 57 314 57 q 610 113 524 57 q 745 252 696 169 l 802 206 q 636 40 741 104 q 401 -23 531 -23 m 549 952 q 549 957 549 952 q 623 1097 549 962 q 703 1236 696 1232 q 718 1240 709 1240 q 754 1221 736 1240 q 772 1191 772 1203 q 767 1173 772 1178 q 658 1048 728 1130 q 576 955 587 967 q 557 942 565 942 q 549 952 549 942 z "},"":{"ha":613,"x_min":48,"x_max":587,"o":"m 587 168 q 304 -13 462 -13 q 209 7 256 -13 q 126 64 161 28 q 48 273 48 144 q 140 503 48 402 q 357 604 231 604 q 497 566 420 604 q 574 467 574 528 q 526 422 574 422 q 472 457 500 422 q 446 490 459 473 q 351 557 396 557 q 216 464 270 557 q 163 263 163 370 q 250 83 163 131 q 318 67 279 67 q 446 111 387 67 q 536 208 484 140 l 587 168 m 358 686 q 358 691 358 686 q 432 831 358 696 q 512 970 506 966 q 527 974 518 974 q 564 956 545 974 q 582 925 582 937 q 576 907 582 912 q 467 783 538 864 q 386 689 397 701 q 366 676 374 676 q 358 686 358 676 z "},"":{"ha":821,"x_min":68,"x_max":850,"o":"m 401 -23 q 266 13 330 -23 q 158 109 202 50 q 68 389 68 227 q 129 625 68 511 q 294 811 189 740 q 522 882 399 882 q 738 829 644 882 q 850 652 850 766 q 836 612 850 629 q 800 595 822 595 q 766 604 778 595 q 746 629 753 614 q 732 664 738 644 q 718 704 726 684 q 553 813 676 813 q 289 651 387 813 q 232 526 260 604 q 203 370 203 448 q 254 147 203 224 q 433 57 314 57 q 610 113 524 57 q 745 252 696 169 l 802 206 q 636 40 741 104 q 401 -23 531 -23 m 762 926 l 641 1109 l 433 929 l 422 940 q 528 1090 480 1025 q 587 1170 575 1154 q 606 1197 598 1186 q 630 1219 614 1207 q 660 1230 646 1230 q 699 1194 686 1230 q 715 1142 705 1176 q 733 1080 725 1107 q 749 1025 742 1052 q 764 974 757 998 q 774 935 770 950 l 762 926 z "},"":{"ha":613,"x_min":48,"x_max":587,"o":"m 587 168 q 304 -13 462 -13 q 209 7 256 -13 q 126 64 161 28 q 48 273 48 144 q 140 503 48 402 q 357 604 231 604 q 497 566 420 604 q 574 467 574 528 q 526 422 574 422 q 472 457 500 422 q 446 490 459 473 q 351 557 396 557 q 216 464 270 557 q 163 263 163 370 q 250 83 163 131 q 318 67 279 67 q 446 111 387 67 q 536 208 484 140 l 587 168 m 571 661 l 450 844 l 243 663 l 231 674 q 337 824 290 760 q 396 904 385 888 q 415 931 408 920 q 439 953 423 941 q 469 964 455 964 q 508 928 495 964 q 525 876 515 910 q 543 814 534 842 q 559 759 551 786 q 573 708 566 732 q 584 669 580 684 l 571 661 z "},"":{"ha":821,"x_min":68,"x_max":850,"o":"m 401 -23 q 266 13 330 -23 q 158 109 202 50 q 68 389 68 227 q 129 625 68 511 q 294 811 189 740 q 522 882 399 882 q 738 829 644 882 q 850 652 850 766 q 836 612 850 629 q 800 595 822 595 q 766 604 778 595 q 746 629 753 614 q 732 664 738 644 q 718 704 726 684 q 553 813 676 813 q 289 651 387 813 q 232 526 260 604 q 203 370 203 448 q 254 147 203 224 q 433 57 314 57 q 610 113 524 57 q 745 252 696 169 l 802 206 q 636 40 741 104 q 401 -23 531 -23 m 452 1259 l 572 1076 l 780 1257 l 791 1246 q 762 1205 779 1229 q 657 1058 692 1106 q 611 994 623 1009 q 555 956 583 956 q 515 991 528 956 q 498 1044 508 1010 q 480 1106 488 1078 q 464 1161 471 1134 q 450 1212 456 1187 q 439 1251 443 1236 l 452 1259 z "},"":{"ha":613,"x_min":48,"x_max":601,"o":"m 587 168 q 304 -13 462 -13 q 209 7 256 -13 q 126 64 161 28 q 48 273 48 144 q 140 503 48 402 q 357 604 231 604 q 497 566 420 604 q 574 467 574 528 q 526 422 574 422 q 472 457 500 422 q 446 490 459 473 q 351 557 396 557 q 216 464 270 557 q 163 263 163 370 q 250 83 163 131 q 318 67 279 67 q 446 111 387 67 q 536 208 484 140 l 587 168 m 261 994 l 382 810 l 589 991 l 601 980 q 572 939 589 963 q 467 792 501 840 q 420 728 432 743 q 365 690 392 690 q 324 726 337 690 q 308 778 317 744 q 289 840 298 812 q 273 895 281 868 q 259 946 266 922 q 248 985 252 970 l 261 994 z "},"":{"ha":922,"x_min":-41,"x_max":883,"o":"m 418 60 q 601 152 520 60 q 710 350 670 230 q 749 544 749 471 q 734 661 749 617 q 690 737 720 705 q 519 807 629 807 l 460 807 q 388 795 414 807 q 352 744 362 783 l 205 60 l 418 60 m 513 857 q 774 762 666 857 q 883 517 883 667 q 824 273 883 393 q 662 76 765 153 q 431 0 558 0 l -36 0 l -41 12 l -28 50 q 52 64 29 50 q 105 144 90 89 q 235 742 235 644 q 177 802 235 795 q 141 805 162 803 q 119 820 119 808 q 134 857 119 841 l 513 857 m 330 1259 l 451 1076 l 659 1257 l 670 1246 q 641 1205 658 1229 q 536 1058 570 1106 q 490 994 501 1009 q 434 956 461 956 q 393 991 406 956 q 377 1044 387 1010 q 358 1106 367 1078 q 342 1161 350 1134 q 328 1212 335 1187 q 317 1251 321 1236 l 330 1259 z "},"":{"ha":1104,"x_min":48,"x_max":1055,"o":"m 499 823 q 481 830 481 823 q 488 860 481 841 q 499 878 495 878 l 701 903 q 707 903 704 903 l 713 903 q 732 899 728 903 q 736 879 736 895 q 726 825 736 863 l 560 201 q 557 188 559 197 q 550 161 555 179 q 546 127 546 144 q 558 79 546 97 q 592 62 570 62 q 631 74 613 62 q 667 108 648 86 q 707 160 686 130 q 754 226 728 190 l 795 194 q 696 60 730 95 q 553 -14 624 -14 q 467 102 467 -14 q 469 140 467 121 q 474 176 472 159 q 389 53 427 87 q 229 -13 315 -13 q 92 73 143 -13 q 48 228 48 146 q 141 494 48 383 q 367 604 233 604 q 465 567 417 604 q 522 467 512 530 q 530 502 522 471 q 551 581 538 533 q 580 688 564 629 q 612 808 596 747 l 616 823 l 499 823 m 378 547 q 231 446 290 547 q 171 229 171 344 q 225 73 171 114 q 274 58 245 58 q 330 73 303 58 q 382 113 357 87 q 461 235 428 159 q 494 363 494 311 q 486 447 494 416 q 465 496 477 477 q 378 547 431 547 m 916 531 l 869 589 q 923 630 909 615 q 937 663 937 645 q 921 724 937 687 q 905 772 905 760 q 923 809 905 793 q 974 825 941 825 q 1031 797 1007 825 q 1055 730 1055 768 q 1014 617 1055 669 q 916 531 972 565 z "},"":{"ha":922,"x_min":-41,"x_max":883,"o":"m 418 60 q 601 152 520 60 q 710 350 670 230 q 749 544 749 471 q 734 661 749 617 q 690 737 720 705 q 519 807 629 807 l 460 807 q 388 795 414 807 q 352 744 362 783 l 205 60 l 418 60 m 513 857 q 774 762 666 857 q 883 517 883 667 q 824 273 883 393 q 662 76 765 153 q 431 0 558 0 l -36 0 l -41 12 l -28 50 q 52 64 29 50 q 105 144 90 89 q 235 742 235 644 q 177 802 235 795 q 141 805 162 803 q 119 820 119 808 q 134 857 119 841 l 513 857 m 646 968 l 262 968 l 275 1031 l 659 1031 l 646 968 z "},"":{"ha":773,"x_min":48,"x_max":795,"o":"m 499 823 q 481 830 481 823 q 488 860 481 841 q 499 878 495 878 l 701 903 q 707 903 704 903 l 713 903 q 732 899 728 903 q 736 879 736 895 q 726 825 736 863 l 560 201 q 557 188 559 197 q 550 161 555 179 q 546 127 546 144 q 558 79 546 97 q 592 62 570 62 q 631 74 613 62 q 667 108 648 86 q 707 160 686 130 q 754 226 728 190 l 795 194 q 696 60 730 95 q 553 -14 624 -14 q 467 102 467 -14 q 469 140 467 121 q 474 176 472 159 q 389 53 427 87 q 229 -13 315 -13 q 92 73 143 -13 q 48 228 48 146 q 141 494 48 383 q 367 604 233 604 q 465 567 417 604 q 522 467 512 530 q 530 502 522 471 q 551 581 538 533 q 580 688 564 629 q 612 808 596 747 l 616 823 l 499 823 m 378 547 q 231 446 290 547 q 171 229 171 344 q 225 73 171 114 q 274 58 245 58 q 330 73 303 58 q 382 113 357 87 q 461 235 428 159 q 494 363 494 311 q 486 447 494 416 q 465 496 477 477 q 378 547 431 547 m 764 741 q 739 663 748 663 l 452 663 l 457 686 q 476 741 468 741 l 764 741 z "},"":{"ha":776,"x_min":-41,"x_max":808,"o":"m 808 657 q 770 640 789 640 q 739 652 751 640 q 727 703 733 675 q 627 807 702 807 l 401 807 q 350 753 361 807 l 286 477 l 492 477 q 545 492 529 477 q 569 518 562 508 q 593 545 577 529 q 644 560 608 560 l 581 323 l 550 323 q 513 415 544 389 q 481 426 500 426 l 274 426 q 253 343 265 385 q 221 228 240 300 q 202 87 202 155 q 212 67 202 75 q 237 60 221 60 l 456 60 q 624 141 568 60 q 650 201 642 167 q 694 212 677 212 q 721 210 711 212 q 738 207 730 208 l 662 0 l -36 0 l -41 13 q -26 51 -41 33 q 54 73 26 51 q 93 140 82 95 q 117 235 104 186 q 145 338 131 284 q 227 720 227 635 q 217 778 227 766 q 130 807 198 804 q 125 828 125 817 q 140 857 125 840 l 808 857 l 808 657 m 569 955 l 184 955 l 197 1019 l 582 1019 l 569 955 z "},"":{"ha":618,"x_min":48,"x_max":577,"o":"m 169 286 q 199 285 184 285 q 243 289 215 285 q 300 302 271 294 q 417 361 370 323 q 465 448 465 399 q 437 525 465 496 q 365 555 408 555 q 285 528 321 555 q 224 461 249 501 q 169 286 176 383 m 577 161 q 305 -13 451 -13 q 123 70 199 -13 q 48 280 48 153 q 144 506 48 408 q 369 604 240 604 q 501 560 442 604 q 560 437 560 515 q 479 308 560 358 q 236 241 397 257 q 168 236 196 238 l 168 210 q 210 102 168 151 q 315 54 253 54 q 488 142 409 54 q 530 191 509 166 l 577 161 m 549 690 l 165 690 l 178 753 l 562 753 l 549 690 z "},"":{"ha":776,"x_min":-41,"x_max":808,"o":"m 808 657 q 770 640 789 640 q 739 652 751 640 q 727 703 733 675 q 627 807 702 807 l 401 807 q 350 753 361 807 l 286 477 l 492 477 q 545 492 529 477 q 569 518 562 508 q 593 545 577 529 q 644 560 608 560 l 581 323 l 550 323 q 513 415 544 389 q 481 426 500 426 l 274 426 q 253 343 265 385 q 221 228 240 300 q 202 87 202 155 q 212 67 202 75 q 237 60 221 60 l 456 60 q 624 141 568 60 q 650 201 642 167 q 694 212 677 212 q 721 210 711 212 q 738 207 730 208 l 662 0 l -36 0 l -41 13 q -26 51 -41 33 q 54 73 26 51 q 93 140 82 95 q 117 235 104 186 q 145 338 131 284 q 227 720 227 635 q 217 778 227 766 q 130 807 198 804 q 125 828 125 817 q 140 857 125 840 l 808 857 l 808 657 m 271 -155 q 367 0 271 -62 l 408 0 q 345 -114 345 -57 q 373 -172 345 -152 q 435 -191 401 -191 q 509 -177 469 -191 l 507 -206 q 391 -241 450 -241 q 310 -224 332 -241 q 271 -155 271 -196 z "},"":{"ha":618,"x_min":48,"x_max":577,"o":"m 169 286 q 199 285 184 285 q 243 289 215 285 q 300 302 271 294 q 417 361 370 323 q 465 448 465 399 q 437 525 465 496 q 365 555 408 555 q 285 528 321 555 q 224 461 249 501 q 169 286 176 383 m 577 161 q 305 -13 451 -13 q 123 70 199 -13 q 48 280 48 153 q 144 506 48 408 q 369 604 240 604 q 501 560 442 604 q 560 437 560 515 q 479 308 560 358 q 236 241 397 257 q 168 236 196 238 l 168 210 q 210 102 168 151 q 315 54 253 54 q 488 142 409 54 q 530 191 509 166 l 577 161 m 199 -155 q 296 0 199 -62 l 337 0 q 273 -114 273 -57 q 302 -172 273 -152 q 364 -191 330 -191 q 438 -177 397 -191 l 436 -206 q 320 -241 379 -241 q 239 -224 261 -241 q 199 -155 199 -196 z "},"":{"ha":776,"x_min":-41,"x_max":808,"o":"m 808 657 q 770 640 789 640 q 739 652 751 640 q 727 703 733 675 q 627 807 702 807 l 401 807 q 350 753 361 807 l 286 477 l 492 477 q 545 492 529 477 q 569 518 562 508 q 593 545 577 529 q 644 560 608 560 l 581 323 l 550 323 q 513 415 544 389 q 481 426 500 426 l 274 426 q 253 343 265 385 q 221 228 240 300 q 202 87 202 155 q 212 67 202 75 q 237 60 221 60 l 456 60 q 624 141 568 60 q 650 201 642 167 q 694 212 677 212 q 721 210 711 212 q 738 207 730 208 l 662 0 l -36 0 l -41 13 q -26 51 -41 33 q 54 73 26 51 q 93 140 82 95 q 117 235 104 186 q 145 338 131 284 q 227 720 227 635 q 217 778 227 766 q 130 807 198 804 q 125 828 125 817 q 140 857 125 840 l 808 857 l 808 657 m 293 1259 l 414 1076 l 621 1257 l 633 1246 q 604 1205 621 1229 q 498 1058 533 1106 q 452 994 464 1009 q 396 956 424 956 q 356 991 369 956 q 339 1044 349 1010 q 321 1106 330 1078 q 305 1161 313 1134 q 291 1212 298 1187 q 280 1251 284 1236 l 293 1259 z "},"":{"ha":618,"x_min":48,"x_max":613,"o":"m 169 286 q 199 285 184 285 q 243 289 215 285 q 300 302 271 294 q 417 361 370 323 q 465 448 465 399 q 437 525 465 496 q 365 555 408 555 q 285 528 321 555 q 224 461 249 501 q 169 286 176 383 m 577 161 q 305 -13 451 -13 q 123 70 199 -13 q 48 280 48 153 q 144 506 48 408 q 369 604 240 604 q 501 560 442 604 q 560 437 560 515 q 479 308 560 358 q 236 241 397 257 q 168 236 196 238 l 168 210 q 210 102 168 151 q 315 54 253 54 q 488 142 409 54 q 530 191 509 166 l 577 161 m 273 994 l 394 810 l 602 991 l 613 980 q 584 939 601 963 q 479 792 513 840 q 433 728 444 743 q 377 690 404 690 q 336 726 349 690 q 320 778 330 744 q 301 840 310 812 q 286 895 293 868 q 271 946 278 922 q 260 985 264 970 l 273 994 z "},"":{"ha":884,"x_min":68,"x_max":880,"o":"m 644 292 q 543 360 644 356 l 553 412 l 880 412 l 864 360 q 751 241 791 360 q 721 133 732 184 q 704 62 710 82 q 434 -23 578 -23 q 164 97 259 -23 q 68 397 68 217 q 132 635 68 522 q 412 864 230 807 q 529 882 471 882 q 736 825 651 882 q 833 650 833 760 q 819 610 833 627 q 781 593 804 593 q 746 609 757 593 q 727 650 734 625 q 710 703 719 674 q 538 813 676 813 q 361 743 438 813 q 242 569 283 673 q 200 357 200 466 q 260 156 200 248 q 445 50 330 50 q 602 94 535 50 q 616 142 608 117 q 644 292 644 237 m 418 -326 q 354 -367 387 -353 q 304 -380 321 -380 q 288 -376 288 -380 q 316 -354 288 -363 q 356 -335 344 -345 q 397 -251 385 -312 l 383 -251 q 319 -232 338 -251 q 300 -187 300 -213 q 336 -106 300 -140 q 416 -73 372 -73 q 493 -157 493 -73 q 418 -326 493 -259 z "},"":{"ha":665,"x_min":-49,"x_max":721,"o":"m 454 -126 q 159 -11 454 -66 q 111 -28 141 -11 q 45 -113 45 -66 q 234 -195 58 -193 q 273 -196 256 -196 q 454 -126 454 -196 m 264 217 q 321 203 288 203 q 419 263 382 203 q 456 399 456 323 q 388 544 456 504 q 332 558 365 558 q 234 497 272 558 q 197 363 197 437 q 264 217 197 257 m 530 492 q 563 373 563 420 q 502 222 563 281 q 342 163 441 163 q 267 172 297 163 q 232 181 237 181 q 180 168 210 181 q 150 132 150 155 q 166 97 150 109 q 210 74 182 84 q 272 56 237 64 q 343 39 307 48 q 480 -14 435 15 q 550 -117 544 -53 q 345 -237 550 -221 q 286 -240 315 -240 q 217 -239 256 -240 q 141 -233 179 -237 q -49 -110 -49 -211 q 81 -13 -49 -41 q 146 1 115 -5 l 81 27 q 36 89 36 45 q 109 171 36 132 q 174 195 136 184 l 193 201 l 178 215 q 90 392 90 299 q 154 545 90 486 q 321 604 218 604 q 510 517 423 604 q 654 608 582 608 q 700 591 678 608 q 721 548 721 573 q 683 514 721 514 q 667 518 675 514 q 641 529 659 522 q 612 537 623 537 q 530 492 580 537 m 366 913 q 430 955 397 941 q 479 968 463 968 q 496 964 496 968 q 468 942 496 951 q 428 923 440 933 q 387 839 399 900 l 401 839 q 465 820 446 839 q 484 775 484 801 q 448 694 484 728 q 368 661 412 661 q 291 745 291 661 q 366 913 291 847 z "},"":{"ha":818,"x_min":47,"x_max":812,"o":"m 143 878 q 125 884 125 878 q 132 914 125 895 q 143 933 138 933 l 345 958 q 351 958 349 958 l 358 958 q 376 954 372 958 q 380 932 380 950 q 372 880 380 913 l 332 734 l 458 750 l 453 686 l 314 668 l 187 191 l 214 179 q 255 250 230 206 q 312 343 281 294 q 596 625 492 625 q 705 554 683 625 q 711 508 711 534 q 703 447 711 482 q 683 376 695 412 q 656 303 671 340 q 621 210 642 267 q 601 107 601 152 q 629 62 601 62 q 727 141 671 62 q 764 193 745 165 l 774 206 l 812 173 l 798 153 q 699 35 730 61 q 587 -15 640 -15 q 488 95 488 -15 q 547 330 488 183 q 607 498 607 477 q 573 543 607 543 q 328 271 498 543 q 297 222 309 241 l 170 28 q 66 3 116 -45 q 47 52 47 21 q 60 125 47 82 l 203 653 l 83 639 l 87 703 l 221 720 l 264 878 l 143 878 z "},"":{"ha":390,"x_min":-41,"x_max":516,"o":"m -35 0 q -41 21 -41 7 q -26 52 -41 35 q 54 66 31 52 q 103 140 92 93 q 127 236 114 186 q 153 340 140 286 q 231 725 231 640 q 221 780 231 768 q 132 807 201 804 q 131 817 132 812 q 130 834 130 821 q 140 857 130 847 l 476 857 q 481 837 481 848 q 467 807 481 826 q 385 792 408 807 q 338 719 349 766 q 313 621 326 671 q 286 517 300 572 q 210 132 210 220 q 220 78 210 90 q 246 59 229 66 q 309 50 263 52 q 310 40 309 45 q 311 23 311 35 q 301 0 311 10 l -35 0 m 516 1065 q 393 943 478 943 q 312 970 357 943 q 241 1009 266 997 q 194 1021 217 1021 q 159 1006 172 1021 q 134 968 146 991 l 121 972 q 241 1084 159 1084 q 321 1059 277 1084 q 389 1021 366 1033 q 436 1010 413 1010 q 473 1026 460 1010 q 500 1069 487 1042 l 516 1065 z "},"":{"ha":463,"x_min":12,"x_max":532,"o":"m 347 142 l 386 200 l 430 170 l 389 109 q 211 -13 306 -13 q 133 23 163 -13 q 104 112 104 59 q 136 251 104 165 l 204 444 q 213 471 208 457 q 218 500 218 486 q 180 547 218 547 q 133 518 161 547 q 47 410 105 489 l 12 437 q 105 550 73 521 q 218 606 165 606 q 317 490 317 606 q 301 391 317 440 l 230 172 q 219 104 219 147 q 257 62 219 62 q 347 142 295 62 m 532 798 q 409 676 494 676 q 327 703 373 676 q 257 743 281 730 q 210 755 233 755 q 175 740 187 755 q 150 702 162 724 l 137 705 q 256 818 174 818 q 337 792 293 818 q 405 755 381 766 q 452 743 429 743 q 489 760 475 743 q 516 803 503 776 l 532 798 z "},"":{"ha":390,"x_min":-41,"x_max":481,"o":"m -35 0 q -41 21 -41 7 q -26 52 -41 35 q 54 66 31 52 q 103 140 92 93 q 127 236 114 186 q 153 340 140 286 q 231 725 231 640 q 221 780 231 768 q 132 807 201 804 q 131 817 132 812 q 130 834 130 821 q 140 857 130 847 l 476 857 q 481 837 481 848 q 467 807 481 826 q 385 792 408 807 q 338 719 349 766 q 313 621 326 671 q 286 517 300 572 q 210 132 210 220 q 220 78 210 90 q 246 59 229 66 q 309 50 263 52 q 310 40 309 45 q 311 23 311 35 q 301 0 311 10 l -35 0 m 406 955 l 21 955 l 34 1019 l 418 1019 l 406 955 z "},"":{"ha":430,"x_min":12,"x_max":430,"o":"m 347 142 l 386 200 l 430 170 l 389 109 q 211 -13 306 -13 q 133 23 163 -13 q 104 112 104 59 q 136 251 104 165 l 204 444 q 213 471 208 457 q 218 500 218 486 q 180 547 218 547 q 133 518 161 547 q 47 410 105 489 l 12 437 q 105 550 73 521 q 218 606 165 606 q 317 490 317 606 q 301 391 317 440 l 230 172 q 219 104 219 147 q 257 62 219 62 q 347 142 295 62 m 401 702 l 17 702 l 30 766 l 414 766 l 401 702 z "},"":{"ha":371,"x_min":-90,"x_max":470,"o":"m -46 0 q -52 21 -52 7 q -37 52 -52 35 q 43 66 20 52 q 92 140 81 93 q 116 236 103 186 q 142 340 129 286 q 220 725 220 640 q 210 780 220 768 q 121 807 191 804 q 120 817 121 812 q 119 834 119 821 q 129 857 119 847 l 465 857 q 470 837 470 848 q 456 807 470 826 q 374 792 397 807 q 327 719 338 766 q 302 621 315 671 q 275 517 290 572 q 199 132 199 220 q 209 78 199 90 q 235 59 218 66 q 298 50 252 52 q 299 40 298 45 q 300 23 300 35 q 290 0 300 10 l -46 0 m -90 -144 q 7 10 -90 -52 l 48 10 q -16 -104 -16 -47 q 13 -161 -16 -142 q 75 -181 41 -181 q 149 -167 109 -181 l 147 -196 q 31 -231 90 -231 q -50 -214 -28 -231 q -90 -144 -90 -186 z "},"":{"ha":430,"x_min":12,"x_max":430,"o":"m 342 740 q 260 789 285 740 q 252 831 252 805 q 270 873 252 858 q 308 889 288 889 q 367 868 344 889 q 395 812 391 848 q 378 756 395 772 q 342 740 361 740 m 347 142 l 386 200 l 430 170 l 389 109 q 211 -13 306 -13 q 133 23 163 -13 q 104 112 104 59 q 136 251 104 165 l 204 444 q 213 471 208 457 q 218 500 218 486 q 180 547 218 547 q 133 518 161 547 q 47 410 105 489 l 12 437 q 106 551 75 523 q 218 604 163 604 q 317 490 317 604 q 301 391 317 440 l 230 172 q 219 104 219 147 q 257 62 219 62 q 347 142 295 62 m 108 -155 q 204 0 108 -62 l 245 0 q 182 -114 182 -57 q 210 -172 182 -152 q 272 -191 239 -191 q 347 -177 306 -191 l 345 -206 q 229 -241 288 -241 q 147 -224 170 -241 q 108 -155 108 -196 z "},"":{"ha":430,"x_min":12,"x_max":430,"o":"m 347 142 l 386 200 l 430 170 l 389 109 q 211 -13 306 -13 q 133 23 163 -13 q 104 112 104 59 q 136 251 104 165 l 204 444 q 213 471 208 457 q 218 500 218 486 q 180 547 218 547 q 133 518 161 547 q 47 410 105 489 l 12 437 q 105 550 73 521 q 218 606 165 606 q 317 490 317 606 q 301 391 317 440 l 230 172 q 219 104 219 147 q 257 62 219 62 q 347 142 295 62 z "},"":{"ha":1156,"x_min":-49,"x_max":1207,"o":"m 739 744 q 789 703 789 744 q 731 643 789 643 q 670 680 692 643 q 648 754 648 718 q 693 873 648 825 q 808 921 739 921 q 921 866 878 921 l 921 865 q 1022 776 996 785 q 1042 769 1031 773 q 1165 913 1107 913 q 1207 871 1207 913 q 1189 824 1207 842 q 1158 798 1171 807 q 1125 774 1145 789 q 1102 740 1105 760 l 1061 513 l 1164 513 l 1152 451 l 1055 451 l 993 130 l 996 132 q 892 -122 962 -39 q 696 -205 821 -205 q 548 -167 606 -205 q 513 -114 515 -144 l 513 -113 q 530 -76 513 -87 q 565 -64 546 -64 q 603 -77 585 -64 q 657 -118 622 -90 q 720 -147 693 -147 q 804 -101 772 -147 q 858 47 836 -54 l 942 453 l 807 453 l 818 517 l 960 517 l 1005 736 q 913 750 936 739 q 878 774 890 762 l 802 849 q 765 867 785 867 q 710 839 731 867 q 688 785 688 811 q 696 753 688 758 q 739 744 708 744 m -43 18 q -48 31 -48 18 l -49 31 q -43 56 -49 45 q -35 66 -37 66 q 35 77 14 66 q 88 157 75 100 l 211 690 q 214 721 214 708 q 186 760 214 749 q 111 771 168 768 q 109 795 109 771 q 119 819 109 819 l 450 819 q 455 806 455 819 q 450 782 455 793 q 442 771 444 771 q 374 760 395 771 q 322 681 334 738 l 200 147 q 197 117 197 130 q 223 78 197 90 q 300 66 250 67 q 302 42 302 66 q 292 18 302 18 l -43 18 z "},"":{"ha":1044,"x_min":6,"x_max":1060,"o":"m 212 113 q 248 61 212 61 q 335 141 284 61 l 373 199 l 416 169 l 376 109 q 204 -14 298 -14 q 127 22 156 -14 q 98 109 98 58 q 130 250 98 159 l 198 443 q 206 471 201 456 q 211 500 211 485 q 174 546 211 546 q 127 517 155 546 q 41 410 99 488 l 6 436 q 99 550 69 522 q 211 605 158 605 q 307 490 307 605 q 291 391 307 439 l 222 172 q 212 113 212 139 m 243 825 l 243 825 q 261 873 243 858 q 297 889 278 889 q 355 868 333 889 q 382 811 378 848 l 382 805 q 366 754 382 768 q 331 739 349 739 q 269 763 296 739 q 243 825 243 786 m 1006 739 q 924 789 947 739 q 916 832 916 806 q 934 874 916 859 q 972 889 953 889 q 1035 866 1009 889 q 1060 805 1060 843 q 1042 753 1060 768 q 1006 739 1025 739 m 882 484 q 844 534 882 534 q 764 471 805 534 l 725 410 l 690 437 q 782 553 756 528 q 885 605 834 605 l 885 604 q 991 494 991 604 q 975 391 991 453 l 920 174 q 869 -5 888 45 q 772 -173 830 -115 q 623 -231 714 -231 q 491 -183 531 -231 q 477 -142 477 -166 q 518 -101 477 -101 q 556 -112 539 -101 q 590 -134 573 -122 q 663 -168 634 -168 q 709 -153 692 -168 q 735 -115 725 -137 q 750 -67 745 -92 q 822 233 774 54 l 870 414 q 882 484 882 461 z "},"":{"ha":513,"x_min":-144,"x_max":604,"o":"m 600 857 q 604 841 604 857 q 590 807 604 825 q 509 792 532 807 q 459 710 469 766 l 357 176 q 216 -127 315 -47 q 52 -181 149 -181 q -47 -167 -6 -181 q -144 -87 -144 -134 q -127 -44 -144 -57 q -87 -31 -109 -31 q -46 -45 -66 -31 q -5 -75 -26 -59 q 36 -105 15 -92 q 86 -119 58 -119 q 139 -97 115 -119 q 182 -36 163 -75 q 218 87 201 3 l 351 720 q 354 753 354 738 q 256 807 354 803 q 253 831 253 813 q 263 857 253 848 l 600 857 m 450 926 l 329 1109 l 121 929 l 110 940 q 216 1090 168 1025 q 275 1170 263 1154 q 294 1197 286 1186 q 318 1219 302 1207 q 348 1230 334 1230 q 387 1194 374 1230 q 403 1142 393 1176 q 421 1080 413 1107 q 437 1025 430 1052 q 452 974 445 998 q 463 935 458 950 l 450 926 z "},"":{"ha":433,"x_min":-114,"x_max":437,"o":"m 281 484 q 243 534 281 534 q 168 471 205 534 l 132 410 l 100 436 q 186 555 164 532 q 285 605 233 605 l 285 604 q 391 494 391 604 q 375 391 391 453 l 320 174 q 270 -5 288 46 q 176 -173 231 -115 q 32 -231 120 -231 q -99 -183 -57 -231 q -114 -142 -114 -166 q -71 -101 -114 -101 q -32 -112 -49 -101 q 3 -134 -14 -122 q 75 -168 47 -168 q 141 -115 118 -168 q 169 8 151 -90 q 220 233 187 106 l 269 414 q 281 484 281 464 m 424 661 l 303 844 l 96 663 l 84 674 q 190 824 142 760 q 249 904 237 888 q 268 931 260 920 q 292 953 276 941 q 322 964 308 964 q 361 928 348 964 q 377 876 368 910 q 396 814 387 842 q 412 759 404 786 q 426 708 419 732 q 437 669 433 684 l 424 661 z "},"":{"ha":729,"x_min":31,"x_max":725,"o":"m 212 318 q 282 315 242 315 q 459 349 382 315 q 553 466 553 390 q 483 538 553 524 q 445 543 463 543 q 370 528 413 543 q 256 484 328 513 l 212 318 m 86 0 q 31 49 31 0 q 40 115 31 83 q 52 157 49 146 l 228 823 l 107 823 q 88 829 88 823 q 96 859 88 840 q 107 878 103 878 l 309 902 q 315 903 312 903 l 322 903 q 340 883 340 903 q 332 825 340 863 l 264 543 q 494 604 385 604 q 642 533 604 604 q 656 468 656 507 q 642 399 656 429 q 606 349 628 370 q 451 273 549 292 q 513 79 481 108 q 534 69 524 69 q 588 102 557 69 q 682 216 619 134 l 725 180 q 623 51 655 83 q 511 -13 559 -13 q 446 7 463 -13 q 396 127 419 39 l 362 256 q 342 256 352 256 q 321 256 332 256 q 204 277 254 256 l 167 119 q 140 35 151 53 q 86 0 120 0 m 404 -326 q 340 -367 373 -353 q 290 -380 307 -380 q 273 -376 273 -380 q 301 -354 273 -363 q 342 -335 330 -345 q 383 -251 371 -312 l 369 -251 q 305 -232 324 -251 q 286 -187 286 -213 q 322 -106 286 -140 q 402 -73 357 -73 q 479 -157 479 -73 q 404 -326 479 -259 z "},"":{"ha":744,"x_min":31,"x_max":730,"o":"m 450 563 l 346 571 q 270 531 280 571 l 214 309 l 228 309 q 554 401 488 309 q 571 458 571 425 l 571 468 q 450 563 562 563 m 113 823 q 94 829 94 823 q 101 859 94 840 q 113 878 109 878 l 314 902 q 320 903 317 903 l 327 903 l 324 904 q 342 900 338 904 q 337 825 353 888 l 274 574 l 293 581 q 507 625 435 625 q 659 543 621 625 q 674 471 674 513 q 657 402 674 430 q 616 353 641 374 q 562 317 591 332 q 507 292 532 302 q 463 278 481 283 q 443 273 445 274 q 490 122 475 155 q 516 80 505 90 q 545 69 527 69 q 593 102 562 69 q 688 216 625 134 l 730 180 q 628 50 659 80 q 516 -14 564 -14 q 451 6 468 -14 q 401 127 424 39 l 368 264 l 359 264 q 251 282 291 282 q 205 259 211 282 l 168 106 q 142 22 152 41 q 87 -14 121 -14 q 43 1 54 -14 q 31 42 32 17 q 53 144 31 67 l 233 823 l 113 823 z "},"":{"ha":676,"x_min":-41,"x_max":664,"o":"m 578 202 l 600 210 q 664 206 645 210 l 587 0 l -35 0 l -41 12 l -26 50 q 55 65 32 50 q 108 145 93 90 q 235 739 235 634 q 205 790 235 775 q 130 807 176 805 q 127 833 127 819 q 138 857 127 848 l 501 857 l 486 807 q 404 791 429 807 q 347 711 360 763 q 324 613 341 686 q 295 490 307 541 q 272 388 283 439 q 213 88 213 122 q 322 50 213 50 q 474 71 431 50 q 540 121 516 91 q 578 201 564 151 l 578 202 m 317 952 q 317 957 317 952 q 391 1097 317 962 q 471 1236 465 1232 q 486 1240 477 1240 q 523 1221 505 1240 q 541 1191 541 1203 q 536 1173 541 1178 q 427 1048 497 1130 q 345 955 356 967 q 326 942 334 942 q 317 952 317 942 z "},"":{"ha":390,"x_min":52,"x_max":557,"o":"m 333 903 q 333 908 333 903 q 407 1048 333 913 q 487 1187 481 1183 q 502 1191 493 1191 q 538 1173 520 1191 q 557 1142 557 1154 q 551 1124 557 1129 q 442 1000 513 1081 q 360 906 372 918 q 341 893 349 893 q 333 903 333 893 m 165 115 q 202 62 165 62 q 296 142 243 62 l 335 200 l 379 170 l 338 109 q 155 -13 255 -13 q 79 24 106 -13 q 52 105 52 60 q 62 185 52 151 q 83 259 73 220 l 239 830 l 130 837 q 114 854 114 840 q 127 875 114 868 q 166 888 140 882 q 264 902 193 893 q 339 911 334 911 q 362 887 362 911 q 352 832 362 876 l 176 174 q 165 115 165 138 z "},"":{"ha":676,"x_min":-41,"x_max":702,"o":"m 578 202 l 600 210 q 664 206 645 210 l 587 0 l -35 0 l -41 12 l -26 50 q 55 65 32 50 q 108 145 93 90 q 235 739 235 634 q 205 790 235 775 q 130 807 176 805 q 127 833 127 819 q 138 857 127 848 l 501 857 l 486 807 q 404 791 429 807 q 347 711 360 763 q 324 613 341 686 q 295 490 307 541 q 272 388 283 439 q 213 88 213 122 q 322 50 213 50 q 474 71 431 50 q 540 121 516 91 q 578 201 564 151 l 578 202 m 562 713 l 516 771 q 570 812 555 797 q 584 845 584 827 q 568 905 584 869 q 551 954 551 942 q 570 991 551 975 q 621 1007 588 1007 q 678 978 654 1007 q 702 911 702 949 q 661 799 702 850 q 562 713 619 747 z "},"":{"ha":738,"x_min":52,"x_max":824,"o":"m 639 557 l 591 623 l 605 633 q 640 656 624 646 q 667 676 656 666 q 690 731 690 697 q 672 787 690 743 q 654 842 654 830 q 675 885 654 867 q 722 903 696 903 q 797 869 769 903 q 824 795 824 836 q 774 665 824 724 q 659 569 724 605 l 639 557 m 165 115 q 201 62 165 62 q 296 142 242 62 l 334 200 l 378 170 l 337 109 q 155 -13 254 -13 q 78 24 105 -13 q 52 105 52 60 q 62 185 52 151 q 83 259 72 220 l 239 830 l 130 837 q 113 854 113 840 q 126 875 113 868 q 165 888 139 882 q 263 902 193 893 q 338 911 334 911 q 361 887 361 911 q 351 832 361 876 l 175 174 q 165 115 165 138 z "},"":{"ha":630,"x_min":-54,"x_max":651,"o":"m 565 202 l 587 210 q 651 206 632 210 l 574 0 l -48 0 l -54 12 l -39 50 q 42 65 19 50 q 95 145 80 90 q 222 739 222 634 q 193 790 222 775 q 117 807 163 805 q 114 833 114 819 q 125 857 114 848 l 488 857 l 473 807 q 391 791 416 807 q 334 711 347 763 q 311 613 328 686 q 282 490 294 541 q 259 388 271 439 q 200 88 200 122 q 309 50 200 50 q 461 71 418 50 q 527 121 503 91 q 565 201 551 151 l 565 202 m 252 425 q 307 511 252 492 q 339 516 323 516 q 401 493 376 516 q 427 425 427 469 q 372 340 427 359 q 339 335 356 335 q 278 358 304 335 q 252 425 252 382 z "},"":{"ha":671,"x_min":52,"x_max":677,"o":"m 165 115 q 201 62 165 62 q 296 142 242 62 l 334 200 l 378 170 l 337 109 q 155 -13 254 -13 q 78 24 105 -13 q 52 105 52 60 q 62 185 52 151 q 83 259 72 220 l 239 830 l 130 837 q 113 854 113 840 q 126 875 113 868 q 165 888 139 882 q 263 902 193 893 q 338 911 334 911 q 361 887 361 911 q 351 832 361 876 l 175 174 q 165 115 165 138 m 503 413 q 557 498 503 479 q 589 504 573 504 q 651 480 626 504 q 677 413 677 457 q 622 328 677 347 q 589 323 606 323 q 528 346 554 323 q 503 413 503 370 z "},"":{"ha":676,"x_min":-41,"x_max":664,"o":"m 513 657 q 545 644 545 655 q 464 595 545 633 q 442 585 448 587 l 36 415 l 30 414 q 8 432 16 414 l 513 657 m 578 202 l 600 210 q 664 206 645 210 l 587 0 l -35 0 l -41 12 l -26 50 q 55 65 32 50 q 108 145 93 90 q 235 739 235 634 q 205 790 235 775 q 130 807 176 805 q 127 833 127 819 q 138 857 127 848 l 501 857 l 486 807 q 404 791 429 807 q 347 711 360 763 q 324 613 341 686 q 295 490 307 541 q 272 388 283 439 q 213 88 213 122 q 322 50 213 50 q 474 71 431 50 q 540 121 516 91 q 578 201 564 151 l 578 202 z "},"":{"ha":397,"x_min":-26,"x_max":463,"o":"m 431 657 q 463 644 463 655 q 382 595 463 633 q 361 585 366 587 l 2 415 l -4 414 q -26 432 -18 414 l 431 657 m 170 115 q 207 62 170 62 q 301 142 248 62 l 340 200 l 384 170 l 342 109 q 160 -13 260 -13 q 84 24 111 -13 q 57 105 57 60 q 67 185 57 151 q 88 259 77 220 l 244 830 l 135 837 q 119 854 119 840 q 132 875 119 868 q 171 888 144 882 q 269 902 198 893 q 344 911 339 911 q 367 887 367 911 q 357 832 367 876 l 180 174 q 170 115 170 138 z "},"":{"ha":939,"x_min":-41,"x_max":1036,"o":"m 688 149 q 819 748 819 728 q 780 797 819 783 q 715 807 753 807 q 706 837 706 817 l 708 857 l 1034 857 l 1036 837 q 1027 807 1036 817 q 945 785 973 807 q 905 709 917 762 l 742 -20 q 677 -27 705 -32 q 646 -16 649 -23 l 340 793 q 280 530 314 686 q 234 316 246 373 q 206 184 221 259 q 191 98 191 110 q 227 63 191 75 q 299 50 262 52 q 301 40 300 45 q 302 23 302 35 q 291 0 302 11 l -35 0 l -36 -1 l -41 12 l -26 50 q 54 65 31 50 q 105 145 94 92 q 115 190 108 158 q 133 265 123 222 q 154 359 142 308 q 178 461 166 410 q 240 750 240 732 q 232 777 240 768 q 210 791 223 786 q 160 804 195 798 q 125 818 125 809 q 134 857 125 835 l 429 857 l 688 149 m 504 952 q 504 957 504 952 q 578 1097 504 962 q 658 1236 652 1232 q 673 1240 664 1240 q 709 1221 691 1240 q 728 1191 728 1203 q 722 1173 728 1178 q 613 1048 684 1130 q 531 955 543 967 q 512 942 520 942 q 504 952 504 942 z "},"":{"ha":863,"x_min":12,"x_max":856,"o":"m 192 319 q 200 343 192 319 q 216 410 207 368 q 226 487 226 453 q 198 520 226 520 q 88 419 154 520 q 51 360 70 390 l 12 394 l 31 422 q 246 591 140 591 q 306 570 282 591 q 330 516 330 549 q 325 453 330 482 q 312 393 320 425 q 239 179 283 277 l 247 174 q 560 585 404 504 q 636 604 600 604 q 727 571 699 602 q 755 504 755 541 q 748 433 755 467 q 728 365 740 399 q 702 295 715 330 q 668 206 688 260 q 648 108 648 151 q 676 64 648 64 q 772 143 715 64 q 808 195 789 167 l 818 210 q 856 176 849 182 l 841 155 q 746 38 778 66 q 635 -13 688 -13 q 559 18 583 -13 q 536 89 536 48 q 543 168 536 130 q 562 242 551 205 q 586 315 573 279 q 637 473 637 451 q 604 517 637 517 q 339 224 513 517 q 263 93 289 138 q 227 31 237 47 q 171 -13 198 -13 q 117 57 117 -13 q 131 126 117 84 q 161 219 144 169 q 192 319 178 270 m 523 686 q 523 691 523 686 q 597 831 523 696 q 677 970 671 966 q 692 974 683 974 q 728 956 710 974 q 747 925 747 937 q 741 907 747 912 q 632 783 703 864 q 550 689 562 701 q 531 676 539 676 q 523 686 523 676 z "},"":{"ha":939,"x_min":-41,"x_max":1036,"o":"m 688 149 q 819 748 819 728 q 780 797 819 783 q 715 807 753 807 q 706 837 706 817 l 708 857 l 1034 857 l 1036 837 q 1027 807 1036 817 q 945 785 973 807 q 905 709 917 762 l 742 -20 q 677 -27 705 -32 q 646 -16 649 -23 l 340 793 q 280 530 314 686 q 234 316 246 373 q 206 184 221 259 q 191 98 191 110 q 227 63 191 75 q 299 50 262 52 q 301 40 300 45 q 302 23 302 35 q 291 0 302 11 l -35 0 l -36 -1 l -41 12 l -26 50 q 54 65 31 50 q 105 145 94 92 q 115 190 108 158 q 133 265 123 222 q 154 359 142 308 q 178 461 166 410 q 240 750 240 732 q 232 777 240 768 q 210 791 223 786 q 160 804 195 798 q 125 818 125 809 q 134 857 125 835 l 429 857 l 688 149 m 407 1259 l 528 1076 l 735 1257 l 747 1246 q 718 1205 734 1229 q 612 1058 647 1106 q 566 994 578 1009 q 510 956 538 956 q 470 991 483 956 q 453 1044 463 1010 q 435 1106 444 1078 q 419 1161 427 1134 q 405 1212 412 1187 q 394 1251 398 1236 l 407 1259 z "},"":{"ha":863,"x_min":12,"x_max":856,"o":"m 192 319 q 200 343 192 319 q 216 410 207 368 q 226 487 226 453 q 198 520 226 520 q 88 419 154 520 q 51 360 70 390 l 12 394 l 31 422 q 246 591 140 591 q 306 570 282 591 q 330 516 330 549 q 325 453 330 482 q 312 393 320 425 q 239 179 283 277 l 247 174 q 560 585 404 504 q 636 604 600 604 q 727 571 699 602 q 755 504 755 541 q 748 433 755 467 q 728 365 740 399 q 702 295 715 330 q 668 206 688 260 q 648 108 648 151 q 676 64 648 64 q 772 143 715 64 q 808 195 789 167 l 818 210 q 856 176 849 182 l 841 155 q 746 38 778 66 q 635 -13 688 -13 q 559 18 583 -13 q 536 89 536 48 q 543 168 536 130 q 562 242 551 205 q 586 315 573 279 q 637 473 637 451 q 604 517 637 517 q 339 224 513 517 q 263 93 289 138 q 227 31 237 47 q 171 -13 198 -13 q 117 57 117 -13 q 131 126 117 84 q 161 219 144 169 q 192 319 178 270 m 426 994 l 547 810 l 754 991 l 766 980 q 736 939 753 963 q 631 792 666 840 q 585 728 597 743 q 529 690 557 690 q 489 726 502 690 q 472 778 482 744 q 454 840 463 812 q 438 895 446 868 q 424 946 431 922 q 413 985 417 970 l 426 994 z "},"":{"ha":840,"x_min":68,"x_max":825,"o":"m 195 358 q 297 80 195 151 q 390 53 335 53 q 487 75 445 53 q 563 134 530 98 q 660 310 625 202 q 696 511 696 418 q 556 800 696 745 q 478 813 524 813 q 391 789 432 813 q 319 726 351 765 q 227 539 259 652 q 195 358 195 426 m 499 882 q 636 853 574 882 q 741 772 699 823 q 825 486 825 667 q 711 149 825 305 q 383 -23 585 -23 q 151 89 233 -23 q 68 380 68 201 q 178 713 68 560 q 499 882 299 882 m 398 952 q 398 957 398 952 q 472 1097 398 962 q 552 1236 546 1232 q 567 1240 558 1240 q 604 1221 585 1240 q 622 1191 622 1203 q 616 1173 622 1178 q 507 1048 578 1130 q 426 955 437 967 q 406 942 414 942 q 398 952 398 942 m 595 985 q 585 975 595 985 q 563 954 576 966 q 544 942 550 942 q 538 949 538 942 q 541 963 538 957 q 620 1097 562 1000 q 689 1213 679 1194 q 706 1236 700 1232 q 720 1240 711 1240 q 770 1204 749 1240 q 776 1186 776 1195 q 764 1166 776 1178 q 730 1129 752 1154 q 684 1079 707 1105 q 637 1029 660 1054 q 595 985 614 1004 z "},"":{"ha":663,"x_min":48,"x_max":692,"o":"m 431 126 q 480 221 461 163 q 500 342 500 278 q 466 494 500 449 q 388 539 432 539 q 231 457 300 539 q 162 245 162 376 q 199 101 162 151 q 292 52 235 52 q 431 126 372 52 m 529 98 q 427 17 486 47 q 309 -13 368 -13 q 121 55 195 -13 q 48 249 48 122 q 146 505 48 406 q 370 604 243 604 q 544 538 470 604 q 617 336 617 471 q 529 98 617 201 m 315 686 q 315 691 315 686 q 389 831 315 696 q 469 970 463 966 q 484 974 475 974 q 520 956 502 974 q 538 925 538 937 q 533 907 538 912 q 424 783 494 864 q 342 689 353 701 q 323 676 331 676 q 315 686 315 676 m 511 719 q 502 710 511 719 q 479 688 492 700 q 461 676 467 676 q 455 684 455 676 q 457 697 455 691 q 537 831 478 734 q 606 947 595 928 q 622 970 616 966 q 637 974 628 974 q 687 939 666 974 q 692 921 692 929 q 681 900 692 912 q 646 863 669 888 q 600 813 624 839 q 553 763 576 788 q 511 719 530 739 z "},"":{"ha":1228,"x_min":56,"x_max":1249,"o":"m 414 78 l 540 78 l 690 767 l 585 767 q 273 625 384 767 q 178 343 178 504 q 309 99 178 163 q 414 78 354 78 m 680 99 q 713 66 680 66 l 926 66 q 1092 205 1055 66 q 1116 225 1094 218 q 1151 231 1139 231 q 1175 213 1175 231 l 1173 211 l 1120 18 l 389 18 q 145 118 234 18 q 56 389 56 218 q 181 681 56 559 q 581 818 321 818 l 1249 818 l 1240 629 q 1228 616 1240 625 q 1198 607 1216 607 q 1176 625 1179 607 q 1143 729 1156 707 q 1071 770 1118 770 l 865 770 q 817 720 827 770 l 760 467 l 954 467 q 1030 506 998 467 q 1050 533 1042 521 q 1067 545 1059 545 l 1109 545 l 1051 321 l 1015 321 q 949 425 1000 425 l 751 425 l 683 121 q 680 99 680 109 z "},"":{"ha":1050,"x_min":43,"x_max":1006,"o":"m 600 286 q 625 284 614 284 l 625 285 q 787 327 701 285 q 890 460 890 378 q 871 526 890 503 q 805 566 839 566 q 743 553 770 566 q 693 518 715 541 q 627 413 652 477 q 600 286 602 348 m 301 26 l 302 26 q 396 84 351 26 q 481 301 460 165 q 488 378 488 342 q 458 510 488 458 q 372 562 429 562 q 264 502 315 562 q 167 282 193 418 q 159 203 159 241 q 194 75 159 124 q 301 26 229 26 m 960 189 q 1006 161 977 180 q 814 0 920 38 q 616 12 709 -38 q 530 87 564 39 l 522 98 l 513 87 q 312 -16 425 -16 q 121 69 198 -16 q 43 278 43 154 q 134 503 43 402 q 354 603 224 603 q 556 496 484 603 l 564 484 l 574 494 q 810 604 670 604 q 944 559 884 604 q 1004 436 1004 514 q 921 307 1004 357 q 669 241 838 257 q 599 236 627 238 l 599 225 l 598 210 q 638 100 598 150 q 739 51 679 51 q 918 140 839 51 q 960 189 940 164 z "},"":{"ha":848,"x_min":-41,"x_max":814,"o":"m 220 115 q 332 51 220 51 l 338 28 l 327 0 l -35 0 l -41 12 l -26 50 q 56 64 33 50 q 109 145 94 89 q 177 424 140 258 q 226 651 214 589 q 238 735 238 714 q 131 806 238 802 q 127 831 127 818 q 138 857 127 845 l 374 857 q 734 789 631 857 q 814 633 814 736 q 723 472 814 531 q 532 412 652 426 q 616 168 600 208 q 680 77 646 94 q 780 64 703 64 q 797 65 789 64 q 763 -7 797 12 q 721 -13 751 -13 q 660 -7 691 -13 q 606 15 629 -1 q 524 134 562 44 q 425 406 502 184 l 277 406 q 259 336 269 373 q 220 115 220 187 m 694 648 q 418 808 694 808 l 367 807 l 290 464 q 624 515 537 464 q 688 596 677 546 q 694 648 694 621 m 393 952 q 393 957 393 952 q 467 1097 393 962 q 547 1236 541 1232 q 562 1240 553 1240 q 598 1221 580 1240 q 616 1191 616 1203 q 611 1173 616 1178 q 502 1048 572 1130 q 420 955 431 967 q 401 942 409 942 q 393 952 393 942 z "},"":{"ha":597,"x_min":10,"x_max":636,"o":"m 134 -9 q 93 56 93 -9 q 109 130 93 87 q 138 216 124 174 q 185 381 168 308 q 202 472 202 454 q 196 509 202 498 q 172 520 190 520 q 112 484 143 520 q 47 391 81 447 l 10 426 q 97 531 62 501 q 227 591 165 591 q 301 505 301 591 q 248 279 301 439 q 215 180 232 232 l 228 175 l 290 286 q 322 342 304 310 q 361 411 340 375 q 464 550 411 494 q 573 605 517 605 q 616 587 597 605 q 636 546 636 568 q 620 508 636 523 q 581 482 604 493 q 532 462 557 471 q 487 443 506 453 q 443 409 467 433 q 394 351 419 385 q 299 209 347 290 q 226 72 252 129 q 184 12 205 33 q 134 -9 163 -9 m 387 686 q 387 691 387 686 q 460 831 387 696 q 541 970 534 966 q 555 974 547 974 q 592 956 574 974 q 610 925 610 937 q 605 907 610 912 q 496 783 566 864 q 414 689 425 701 q 395 676 403 676 q 387 686 387 676 z "},"":{"ha":848,"x_min":-41,"x_max":814,"o":"m 220 115 q 332 51 220 51 l 338 28 l 327 0 l -35 0 l -41 12 l -26 50 q 56 64 33 50 q 109 145 94 89 q 177 424 140 258 q 226 651 214 589 q 238 735 238 714 q 131 806 238 802 q 127 831 127 818 q 138 857 127 845 l 374 857 q 734 789 631 857 q 814 633 814 736 q 723 472 814 531 q 532 412 652 426 q 616 168 600 208 q 680 77 646 94 q 780 64 703 64 q 797 65 789 64 q 763 -7 797 12 q 721 -13 751 -13 q 660 -7 691 -13 q 606 15 629 -1 q 524 134 562 44 q 425 406 502 184 l 277 406 q 259 336 269 373 q 220 115 220 187 m 694 648 q 418 808 694 808 l 367 807 l 290 464 q 624 515 537 464 q 688 596 677 546 q 694 648 694 621 m 415 -326 q 351 -367 384 -353 q 301 -380 318 -380 q 284 -376 284 -380 q 312 -354 284 -363 q 353 -335 340 -345 q 394 -251 382 -312 l 380 -251 q 316 -232 335 -251 q 297 -187 297 -213 q 333 -106 297 -140 q 413 -73 368 -73 q 490 -157 490 -73 q 415 -326 490 -259 z "},"":{"ha":597,"x_min":10,"x_max":636,"o":"m 134 -9 q 93 56 93 -9 q 109 130 93 87 q 138 216 124 174 q 185 381 168 308 q 202 472 202 454 q 196 509 202 498 q 172 520 190 520 q 112 484 143 520 q 47 391 81 447 l 10 426 q 97 531 62 501 q 227 591 165 591 q 301 505 301 591 q 248 279 301 439 q 215 180 232 232 l 228 175 l 290 286 q 322 342 304 310 q 361 411 340 375 q 464 550 411 494 q 573 605 517 605 q 616 587 597 605 q 636 546 636 568 q 620 508 636 523 q 581 482 604 493 q 532 462 557 471 q 487 443 506 453 q 443 409 467 433 q 394 351 419 385 q 299 209 347 290 q 226 72 252 129 q 184 12 205 33 q 134 -9 163 -9 m 355 -326 q 291 -367 323 -353 q 241 -380 258 -380 q 224 -376 224 -380 q 252 -354 224 -363 q 292 -335 280 -345 q 334 -251 321 -312 l 319 -251 q 256 -232 275 -251 q 237 -187 237 -213 q 272 -106 237 -140 q 353 -73 308 -73 q 429 -157 429 -73 q 355 -326 429 -259 z "},"":{"ha":848,"x_min":-41,"x_max":814,"o":"m 220 115 q 332 51 220 51 l 338 28 l 327 0 l -35 0 l -41 12 l -26 50 q 56 64 33 50 q 109 145 94 89 q 177 424 140 258 q 226 651 214 589 q 238 735 238 714 q 131 806 238 802 q 127 831 127 818 q 138 857 127 845 l 374 857 q 734 789 631 857 q 814 633 814 736 q 723 472 814 531 q 532 412 652 426 q 616 168 600 208 q 680 77 646 94 q 780 64 703 64 q 797 65 789 64 q 763 -7 797 12 q 721 -13 751 -13 q 660 -7 691 -13 q 606 15 629 -1 q 524 134 562 44 q 425 406 502 184 l 277 406 q 259 336 269 373 q 220 115 220 187 m 694 648 q 418 808 694 808 l 367 807 l 290 464 q 624 515 537 464 q 688 596 677 546 q 694 648 694 621 m 296 1259 l 416 1076 l 624 1257 l 635 1246 q 606 1205 623 1229 q 501 1058 536 1106 q 455 994 467 1009 q 399 956 427 956 q 359 991 372 956 q 342 1044 352 1010 q 324 1106 332 1078 q 308 1161 315 1134 q 294 1212 300 1187 q 283 1251 287 1236 l 296 1259 z "},"":{"ha":597,"x_min":10,"x_max":636,"o":"m 134 -9 q 93 56 93 -9 q 109 130 93 87 q 138 216 124 174 q 185 381 168 308 q 202 472 202 454 q 196 509 202 498 q 172 520 190 520 q 112 484 143 520 q 47 391 81 447 l 10 426 q 97 531 62 501 q 227 591 165 591 q 301 505 301 591 q 248 279 301 439 q 215 180 232 232 l 228 175 l 290 286 q 322 342 304 310 q 361 411 340 375 q 464 550 411 494 q 573 605 517 605 q 616 587 597 605 q 636 546 636 568 q 620 508 636 523 q 581 482 604 493 q 532 462 557 471 q 487 443 506 453 q 443 409 467 433 q 394 351 419 385 q 299 209 347 290 q 226 72 252 129 q 184 12 205 33 q 134 -9 163 -9 m 290 994 l 410 810 l 618 991 l 629 980 q 600 939 617 963 q 495 792 530 840 q 449 728 460 743 q 393 690 420 690 q 353 726 366 690 q 336 778 346 744 q 318 840 326 812 q 302 895 309 868 q 288 946 294 922 q 277 985 281 970 l 290 994 z "},"":{"ha":690,"x_min":28,"x_max":715,"o":"m 361 47 q 520 197 520 47 q 410 373 520 279 q 347 427 379 400 q 227 542 261 498 q 173 673 173 611 q 250 831 173 780 q 433 882 328 882 q 619 835 538 882 q 715 680 715 779 q 700 641 715 658 q 661 624 686 624 q 624 638 636 624 q 603 673 612 652 q 586 719 595 694 q 419 813 552 813 q 298 739 329 813 q 288 685 288 716 q 303 625 288 654 q 342 568 318 595 q 398 514 367 541 q 461 461 429 488 q 581 346 548 389 q 635 210 635 276 q 555 36 635 93 q 355 -22 476 -22 q 131 48 233 -22 q 28 241 28 118 q 43 280 28 263 q 80 297 58 297 q 114 286 102 297 q 135 258 127 275 q 151 218 144 240 q 167 172 157 195 q 232 81 189 115 q 361 47 275 47 m 378 952 q 378 957 378 952 q 452 1097 378 962 q 532 1236 526 1232 q 547 1240 538 1240 q 583 1221 565 1240 q 602 1191 602 1203 q 596 1173 602 1178 q 487 1048 557 1130 q 405 955 416 967 q 386 942 394 942 q 378 952 378 942 z "},"":{"ha":498,"x_min":12,"x_max":511,"o":"m 172 478 q 240 380 172 431 q 304 335 270 358 q 435 129 435 245 q 382 21 435 56 q 250 -13 330 -13 q 98 22 170 -13 q 12 130 12 62 q 72 180 12 180 q 79 171 73 180 q 94 146 84 161 q 286 47 161 52 q 342 115 342 47 q 276 239 342 184 q 215 286 248 263 q 153 334 182 308 q 87 467 87 395 q 144 572 87 539 q 274 604 201 604 q 412 563 347 604 q 477 451 477 522 q 468 428 477 437 q 443 418 458 418 q 415 428 428 418 q 388 453 401 438 q 358 484 374 467 q 225 550 299 550 q 172 478 172 550 m 287 686 q 287 691 287 686 q 361 831 287 696 q 441 970 435 966 q 456 974 447 974 q 492 956 474 974 q 511 925 511 937 q 505 907 511 912 q 396 783 467 864 q 314 689 326 701 q 295 676 303 676 q 287 686 287 676 z "},"":{"ha":690,"x_min":28,"x_max":715,"o":"m 361 47 q 520 197 520 47 q 410 373 520 279 q 347 427 379 400 q 227 542 261 498 q 173 673 173 611 q 250 831 173 780 q 433 882 328 882 q 619 835 538 882 q 715 680 715 779 q 700 641 715 658 q 661 624 686 624 q 624 638 636 624 q 603 673 612 652 q 586 719 595 694 q 419 813 552 813 q 298 739 329 813 q 288 685 288 716 q 303 625 288 654 q 342 568 318 595 q 398 514 367 541 q 461 461 429 488 q 581 346 548 389 q 635 210 635 276 q 555 36 635 93 q 355 -22 476 -22 q 131 48 233 -22 q 28 241 28 118 q 43 280 28 263 q 80 297 58 297 q 114 286 102 297 q 135 258 127 275 q 151 218 144 240 q 167 172 157 195 q 232 81 189 115 q 361 47 275 47 m 380 -196 q 296 -131 380 -142 l 351 0 l 389 0 l 382 -103 q 472 -176 472 -115 q 419 -269 472 -232 q 300 -306 366 -306 q 227 -290 266 -306 l 234 -273 q 276 -282 254 -282 q 349 -258 318 -282 q 380 -196 380 -234 z "},"":{"ha":498,"x_min":12,"x_max":477,"o":"m 172 478 q 240 380 172 431 q 304 335 270 358 q 435 129 435 245 q 382 21 435 56 q 250 -13 330 -13 q 98 22 170 -13 q 12 130 12 62 q 72 180 12 180 q 79 171 73 180 q 94 146 84 161 q 286 47 161 52 q 342 115 342 47 q 276 239 342 184 q 215 286 248 263 q 153 334 182 308 q 87 467 87 395 q 144 572 87 539 q 274 604 201 604 q 412 563 347 604 q 477 451 477 522 q 468 428 477 437 q 443 418 458 418 q 415 428 428 418 q 388 453 401 438 q 358 484 374 467 q 225 550 299 550 q 172 478 172 550 m 252 -196 q 169 -131 252 -142 l 224 0 l 262 0 l 254 -103 q 345 -176 345 -115 q 292 -269 345 -232 q 172 -306 239 -306 q 99 -290 138 -306 l 106 -273 q 149 -282 126 -282 q 221 -258 191 -282 q 252 -196 252 -234 z "},"":{"ha":690,"x_min":28,"x_max":715,"o":"m 361 47 q 520 197 520 47 q 410 373 520 279 q 347 427 379 400 q 227 542 261 498 q 173 673 173 611 q 250 831 173 780 q 433 882 328 882 q 619 835 538 882 q 715 680 715 779 q 700 641 715 658 q 661 624 686 624 q 624 638 636 624 q 603 673 612 652 q 586 719 595 694 q 419 813 552 813 q 298 739 329 813 q 288 685 288 716 q 303 625 288 654 q 342 568 318 595 q 398 514 367 541 q 461 461 429 488 q 581 346 548 389 q 635 210 635 276 q 555 36 635 93 q 355 -22 476 -22 q 131 48 233 -22 q 28 241 28 118 q 43 280 28 263 q 80 297 58 297 q 114 286 102 297 q 135 258 127 275 q 151 218 144 240 q 167 172 157 195 q 232 81 189 115 q 361 47 275 47 m 281 1259 l 401 1076 l 609 1257 l 621 1246 q 591 1205 608 1229 q 486 1058 521 1106 q 440 994 452 1009 q 384 956 412 956 q 344 991 357 956 q 327 1044 337 1010 q 309 1106 317 1078 q 293 1161 300 1134 q 279 1212 286 1187 q 268 1251 272 1236 l 281 1259 z "},"":{"ha":498,"x_min":12,"x_max":530,"o":"m 172 478 q 240 380 172 431 q 304 335 270 358 q 435 129 435 245 q 382 21 435 56 q 250 -13 330 -13 q 98 22 170 -13 q 12 130 12 62 q 72 180 12 180 q 79 171 73 180 q 94 146 84 161 q 286 47 161 52 q 342 115 342 47 q 276 239 342 184 q 215 286 248 263 q 153 334 182 308 q 87 467 87 395 q 144 572 87 539 q 274 604 201 604 q 412 563 347 604 q 477 451 477 522 q 468 428 477 437 q 443 418 458 418 q 415 428 428 418 q 388 453 401 438 q 358 484 374 467 q 225 550 299 550 q 172 478 172 550 m 190 994 l 311 810 l 518 991 l 530 980 q 500 939 517 963 q 395 792 430 840 q 349 728 361 743 q 293 690 321 690 q 253 726 266 690 q 236 778 246 744 q 218 840 227 812 q 202 895 210 868 q 188 946 195 922 q 177 985 181 970 l 190 994 z "},"":{"ha":752,"x_min":33,"x_max":846,"o":"m 410 61 q 481 50 434 52 q 483 40 481 45 q 484 23 484 35 q 470 0 484 12 l 92 0 l 86 13 l 100 51 q 187 65 161 51 q 248 146 237 92 l 391 807 l 226 807 q 171 761 199 807 q 146 719 159 741 q 69 630 100 630 q 33 647 47 630 l 81 857 l 846 857 l 802 654 q 757 631 777 631 q 731 644 737 631 q 721 676 724 657 q 715 719 718 696 q 672 807 708 807 l 517 807 q 475 630 507 758 q 428 432 444 502 q 397 300 411 362 q 368 118 368 161 q 410 61 368 75 m 468 -326 q 404 -367 437 -353 q 354 -380 371 -380 q 337 -376 337 -380 q 365 -354 337 -363 q 406 -335 393 -345 q 447 -251 435 -312 l 433 -251 q 369 -232 388 -251 q 350 -187 350 -213 q 386 -106 350 -140 q 466 -73 421 -73 q 543 -157 543 -73 q 468 -326 543 -259 z "},"":{"ha":435,"x_min":47,"x_max":471,"o":"m 192 113 q 230 60 192 60 q 312 138 267 60 l 347 199 l 391 168 l 352 104 q 181 -14 273 -14 q 79 104 79 -14 l 79 104 q 106 259 79 170 l 185 525 l 47 525 l 67 591 l 218 591 q 232 629 223 605 q 250 680 240 652 q 298 785 275 747 q 353 837 328 837 q 380 818 372 837 q 382 811 382 814 l 382 810 q 373 784 380 802 q 358 742 367 766 q 323 644 334 674 q 305 591 313 614 l 471 591 l 456 524 l 295 524 l 205 175 q 197 145 201 161 q 192 113 192 129 m 288 -326 q 223 -367 256 -353 q 174 -380 191 -380 q 157 -376 157 -380 q 185 -354 157 -363 q 225 -335 213 -345 q 267 -251 254 -312 l 252 -251 q 189 -232 208 -251 q 170 -187 170 -213 q 205 -106 170 -140 q 286 -73 241 -73 q 362 -157 362 -73 q 288 -326 362 -259 z "},"":{"ha":752,"x_min":33,"x_max":846,"o":"m 410 61 q 481 50 434 52 q 483 40 481 45 q 484 23 484 35 q 470 0 484 12 l 92 0 l 86 13 l 100 51 q 187 65 161 51 q 248 146 237 92 l 391 807 l 226 807 q 171 761 199 807 q 146 719 159 741 q 69 630 100 630 q 33 647 47 630 l 81 857 l 846 857 l 802 654 q 757 631 777 631 q 731 644 737 631 q 721 676 724 657 q 715 719 718 696 q 672 807 708 807 l 517 807 q 475 630 507 758 q 428 432 444 502 q 397 300 411 362 q 368 118 368 161 q 410 61 368 75 m 349 1259 l 469 1076 l 677 1257 l 688 1246 q 659 1205 676 1229 q 554 1058 589 1106 q 508 994 519 1009 q 452 956 479 956 q 412 991 425 956 q 395 1044 405 1010 q 377 1106 385 1078 q 361 1161 368 1134 q 347 1212 353 1187 q 336 1251 340 1236 l 349 1259 z "},"":{"ha":766,"x_min":47,"x_max":718,"o":"m 192 113 q 230 60 192 60 q 312 138 267 60 l 347 199 l 391 168 l 352 104 q 181 -14 273 -14 q 79 104 79 -14 l 79 104 q 106 259 79 170 l 185 525 l 47 525 l 67 591 l 218 591 q 232 629 223 605 q 250 680 240 652 q 298 785 275 747 q 353 837 328 837 q 380 818 372 837 q 382 811 382 814 l 382 810 q 373 784 380 802 q 358 742 367 766 q 323 644 334 674 q 305 591 313 614 l 471 591 l 456 524 l 295 524 l 205 175 q 197 145 201 161 q 192 113 192 129 m 578 531 l 532 589 q 585 630 571 615 q 600 663 600 645 q 583 724 600 687 q 567 772 567 760 q 585 809 567 793 q 636 825 604 825 q 693 797 669 825 q 718 730 718 768 q 676 617 718 669 q 578 531 635 565 z "},"":{"ha":901,"x_min":96,"x_max":994,"o":"m 96 827 q 107 857 96 845 l 458 857 l 464 844 l 450 807 q 365 786 393 807 q 325 709 337 765 l 248 374 q 239 300 239 340 q 292 139 239 210 q 442 69 344 69 q 608 156 540 69 q 688 336 664 227 l 763 673 q 771 747 771 710 q 665 807 771 807 l 662 827 q 673 857 662 845 l 988 857 l 994 844 l 979 807 q 899 791 922 807 q 848 709 862 765 l 762 329 q 535 5 707 85 q 401 -23 475 -23 q 192 70 266 -23 q 119 294 119 163 q 130 378 119 338 l 209 703 q 212 731 212 715 q 186 788 212 769 q 120 807 159 807 l 99 807 l 96 827 m 636 968 l 252 968 l 264 1031 l 649 1031 l 636 968 z "},"":{"ha":840,"x_min":8,"x_max":835,"o":"m 241 604 q 328 522 328 604 q 270 313 328 460 q 211 115 211 165 q 221 83 211 96 q 247 70 231 70 q 287 91 264 70 q 337 145 310 111 q 393 221 363 178 q 450 307 422 263 q 503 390 477 350 q 544 453 528 429 q 576 503 560 477 q 696 604 642 604 q 728 584 717 604 q 739 542 739 564 q 733 496 739 521 l 634 163 q 623 97 623 132 q 650 62 623 62 q 699 83 677 62 q 757 155 721 104 l 796 210 l 835 179 l 796 125 q 721 31 749 56 q 607 -13 667 -13 q 528 50 547 -13 q 522 96 522 68 q 543 222 522 155 q 605 395 564 289 l 622 439 l 611 445 q 565 365 591 412 q 507 268 538 319 q 215 -13 337 -13 q 103 99 103 -13 q 125 224 103 159 q 187 393 155 314 q 220 490 220 473 q 186 528 220 528 q 77 419 142 528 q 57 387 66 401 q 44 366 49 372 l 8 398 q 168 585 77 532 q 241 604 203 604 m 606 702 l 221 702 l 234 766 l 618 766 l 606 702 z "},"":{"ha":901,"x_min":96,"x_max":994,"o":"m 96 827 q 107 857 96 845 l 458 857 l 464 844 l 450 807 q 365 786 393 807 q 325 709 337 765 l 248 374 q 239 300 239 340 q 292 139 239 210 q 442 69 344 69 q 608 156 540 69 q 688 336 664 227 l 763 673 q 771 747 771 710 q 665 807 771 807 l 662 827 q 673 857 662 845 l 988 857 l 994 844 l 979 807 q 899 791 922 807 q 848 709 862 765 l 762 329 q 535 5 707 85 q 401 -23 475 -23 q 192 70 266 -23 q 119 294 119 163 q 130 378 119 338 l 209 703 q 212 731 212 715 q 186 788 212 769 q 120 807 159 807 l 99 807 l 96 827 m 606 1180 q 634 1180 606 1180 q 692 1150 662 1180 q 722 1084 722 1120 q 680 982 722 1022 q 567 943 637 943 q 469 1002 496 943 q 461 1043 461 1019 q 472 1093 461 1067 q 504 1137 484 1118 q 606 1180 549 1180 m 680 1071 q 680 1089 680 1071 q 660 1126 680 1106 q 614 1147 641 1147 q 536 1116 567 1147 q 505 1050 505 1084 q 576 977 505 977 q 650 1006 620 977 q 680 1071 680 1036 z "},"":{"ha":840,"x_min":8,"x_max":835,"o":"m 241 604 q 328 522 328 604 q 270 313 328 460 q 211 115 211 165 q 221 83 211 96 q 247 70 231 70 q 287 91 264 70 q 337 145 310 111 q 393 221 363 178 q 450 307 422 263 q 503 390 477 350 q 544 453 528 429 q 576 503 560 477 q 696 604 642 604 q 728 584 717 604 q 739 542 739 564 q 733 496 739 521 l 634 163 q 623 97 623 132 q 650 62 623 62 q 699 83 677 62 q 757 155 721 104 l 796 210 l 835 179 l 796 125 q 721 31 749 56 q 607 -13 667 -13 q 528 50 547 -13 q 522 96 522 68 q 543 222 522 155 q 605 395 564 289 l 622 439 l 611 445 q 565 365 591 412 q 507 268 538 319 q 215 -13 337 -13 q 103 99 103 -13 q 125 224 103 159 q 187 393 155 314 q 220 490 220 473 q 186 528 220 528 q 77 419 142 528 q 57 387 66 401 q 44 366 49 372 l 8 398 q 168 585 77 532 q 241 604 203 604 m 529 913 q 557 913 529 913 q 615 883 585 913 q 646 818 646 853 q 603 716 646 755 q 490 676 561 676 q 393 735 419 676 q 385 777 385 753 q 396 826 385 801 q 427 871 407 851 q 529 913 473 913 m 603 805 q 603 822 603 805 q 584 860 603 840 q 537 880 564 880 q 459 849 490 880 q 428 784 428 818 q 500 710 428 710 q 573 740 543 710 q 603 805 603 770 z "},"":{"ha":901,"x_min":96,"x_max":994,"o":"m 96 827 q 107 857 96 845 l 458 857 l 464 844 l 450 807 q 365 786 393 807 q 325 709 337 765 l 248 374 q 239 300 239 340 q 292 139 239 210 q 442 69 344 69 q 608 156 540 69 q 688 336 664 227 l 763 673 q 771 747 771 710 q 665 807 771 807 l 662 827 q 673 857 662 845 l 988 857 l 994 844 l 979 807 q 899 791 922 807 q 848 709 862 765 l 762 329 q 535 5 707 85 q 401 -23 475 -23 q 192 70 266 -23 q 119 294 119 163 q 130 378 119 338 l 209 703 q 212 731 212 715 q 186 788 212 769 q 120 807 159 807 l 99 807 l 96 827 m 496 952 q 496 957 496 952 q 570 1097 496 962 q 650 1236 644 1232 q 665 1240 656 1240 q 702 1221 684 1240 q 720 1191 720 1203 q 715 1173 720 1178 q 606 1048 676 1130 q 524 955 535 967 q 505 942 513 942 q 496 952 496 942 m 693 985 q 684 975 693 985 q 661 954 674 966 q 643 942 648 942 q 637 949 637 942 q 639 963 637 957 q 719 1097 660 1000 q 788 1213 777 1194 q 804 1236 798 1232 q 819 1240 810 1240 q 869 1204 848 1240 q 874 1186 874 1195 q 862 1166 874 1178 q 828 1129 850 1154 q 782 1079 806 1105 q 735 1029 758 1054 q 693 985 712 1004 z "},"":{"ha":840,"x_min":8,"x_max":835,"o":"m 241 604 q 328 522 328 604 q 270 313 328 460 q 211 115 211 165 q 221 83 211 96 q 247 70 231 70 q 287 91 264 70 q 337 145 310 111 q 393 221 363 178 q 450 307 422 263 q 503 390 477 350 q 544 453 528 429 q 576 503 560 477 q 696 604 642 604 q 728 584 717 604 q 739 542 739 564 q 733 496 739 521 l 634 163 q 623 97 623 132 q 650 62 623 62 q 699 83 677 62 q 757 155 721 104 l 796 210 l 835 179 l 796 125 q 721 31 749 56 q 607 -13 667 -13 q 528 50 547 -13 q 522 96 522 68 q 543 222 522 155 q 605 395 564 289 l 622 439 l 611 445 q 565 365 591 412 q 507 268 538 319 q 215 -13 337 -13 q 103 99 103 -13 q 125 224 103 159 q 187 393 155 314 q 220 490 220 473 q 186 528 220 528 q 77 419 142 528 q 57 387 66 401 q 44 366 49 372 l 8 398 q 168 585 77 532 q 241 604 203 604 m 420 686 q 420 691 420 686 q 494 831 420 696 q 574 970 568 966 q 589 974 580 974 q 625 956 607 974 q 644 925 644 937 q 638 907 644 912 q 529 783 600 864 q 447 689 458 701 q 428 676 436 676 q 420 686 420 676 m 616 719 q 607 710 616 719 q 585 688 597 700 q 566 676 572 676 q 560 684 560 676 q 562 697 560 691 q 642 831 583 734 q 711 947 701 928 q 727 970 722 966 q 742 974 733 974 q 792 939 771 974 q 798 921 798 929 q 786 900 798 912 q 751 863 774 888 q 705 813 729 839 q 659 763 682 788 q 616 719 635 739 z "},"":{"ha":901,"x_min":96,"x_max":994,"o":"m 96 827 q 107 857 96 845 l 458 857 l 464 844 l 450 807 q 365 786 393 807 q 325 709 337 765 l 248 374 q 239 300 239 340 q 292 139 239 210 q 442 69 344 69 q 608 156 540 69 q 688 336 664 227 l 763 673 q 771 747 771 710 q 665 807 771 807 l 662 827 q 673 857 662 845 l 988 857 l 994 844 l 979 807 q 899 791 922 807 q 848 709 862 765 l 762 329 q 535 5 707 85 q 401 -23 475 -23 q 192 70 266 -23 q 119 294 119 163 q 130 378 119 338 l 209 703 q 212 731 212 715 q 186 788 212 769 q 120 807 159 807 l 99 807 l 96 827 m 431 -155 q 528 0 431 -62 l 569 0 q 505 -114 505 -57 q 534 -172 505 -152 q 596 -191 562 -191 q 670 -177 629 -191 l 668 -206 q 552 -241 611 -241 q 471 -224 493 -241 q 431 -155 431 -196 z "},"":{"ha":840,"x_min":8,"x_max":835,"o":"m 241 604 q 328 522 328 604 q 270 313 328 460 q 211 115 211 165 q 221 83 211 96 q 247 70 231 70 q 287 91 264 70 q 337 145 310 111 q 393 221 363 178 q 450 307 422 263 q 503 390 477 350 q 544 453 528 429 q 576 503 560 477 q 696 604 642 604 q 728 584 717 604 q 739 542 739 564 q 733 496 739 521 l 634 163 q 623 97 623 132 q 650 62 623 62 q 699 83 677 62 q 757 155 721 104 l 796 210 l 835 179 l 796 125 q 721 31 749 56 q 607 -13 667 -13 q 528 50 547 -13 q 522 96 522 68 q 543 222 522 155 q 605 395 564 289 l 622 439 l 611 445 q 565 365 591 412 q 507 268 538 319 q 215 -13 337 -13 q 103 99 103 -13 q 125 224 103 159 q 187 393 155 314 q 220 490 220 473 q 186 528 220 528 q 77 419 142 528 q 57 387 66 401 q 44 366 49 372 l 8 398 q 168 585 77 532 q 241 604 203 604 m 308 -155 q 404 0 308 -62 l 446 0 q 382 -114 382 -57 q 410 -172 382 -152 q 472 -191 439 -191 q 547 -177 506 -191 l 545 -206 q 429 -241 488 -241 q 347 -224 370 -241 q 308 -155 308 -196 z "},"":{"ha":759,"x_min":15,"x_max":870,"o":"m 538 808 q 535 810 538 808 q 531 823 531 812 q 540 857 531 834 l 865 857 q 870 831 870 848 q 860 804 870 814 q 703 714 772 804 l 387 309 q 377 261 383 286 q 351 113 351 155 q 422 53 351 59 q 458 50 441 51 q 460 26 460 44 q 450 0 460 9 l 103 0 q 98 17 98 0 q 112 51 98 33 q 239 127 213 51 q 257 218 252 167 q 269 300 262 269 l 153 724 q 68 803 133 795 q 20 806 47 806 q 15 821 15 806 q 24 857 15 837 l 361 857 q 365 831 365 847 q 356 806 365 814 q 254 735 254 806 q 279 602 254 686 q 313 485 303 519 q 333 420 323 450 q 347 369 342 391 q 381 411 357 381 q 435 480 405 441 q 621 756 621 718 q 576 803 621 799 q 538 808 545 805 m 649 1123 q 654 1129 649 1123 q 674 1141 660 1135 q 707 1147 688 1147 q 739 1134 726 1147 q 752 1102 752 1120 q 727 1046 752 1070 q 676 1023 702 1023 q 637 1036 650 1023 q 624 1066 624 1048 q 631 1098 624 1084 q 649 1123 637 1112 m 350 1123 q 356 1129 350 1123 q 376 1141 361 1135 q 409 1147 390 1147 q 440 1134 427 1147 q 454 1102 454 1120 q 429 1046 454 1070 q 377 1023 404 1023 q 338 1036 351 1023 q 326 1066 326 1048 q 332 1098 326 1084 q 350 1123 339 1112 z "},"":{"ha":722,"x_min":-8,"x_max":758,"o":"m 756 857 q 758 840 758 849 q 751 785 758 817 q 734 739 744 754 q 696 687 724 724 q 627 602 667 650 q 540 495 587 553 q 444 380 492 438 q 279 184 379 303 q 168 51 178 64 l 405 51 q 561 141 501 51 q 597 201 579 168 q 631 211 602 211 q 684 207 661 211 l 608 0 l 21 0 q -5 30 5 0 q -8 43 -8 37 q -5 55 -8 50 q 298 412 82 155 q 633 806 514 669 l 351 806 q 195 716 254 806 q 160 656 177 688 q 123 646 155 646 q 73 650 92 646 l 149 857 l 756 857 m 381 952 q 381 957 381 952 q 455 1097 381 962 q 535 1236 529 1232 q 550 1240 541 1240 q 587 1221 568 1240 q 605 1191 605 1203 q 600 1173 605 1178 q 490 1048 561 1130 q 409 955 420 967 q 389 942 397 942 q 381 952 381 942 z "},"":{"ha":587,"x_min":38,"x_max":569,"o":"m 458 55 q 511 77 511 55 l 511 80 q 500 94 511 88 q 477 109 490 100 q 445 154 445 130 q 460 190 445 178 q 492 201 475 201 q 548 179 526 201 q 569 117 569 157 q 518 18 569 49 q 407 -13 467 -13 q 310 0 348 -13 q 243 27 273 12 q 190 56 213 43 q 147 68 167 68 q 95 35 111 68 q 81 -14 83 14 l 50 -14 q 38 41 38 1 q 104 189 38 115 q 240 304 171 262 q 437 462 310 346 q 385 447 416 447 q 338 454 353 447 q 307 471 322 460 q 277 493 292 481 q 186 539 220 539 q 153 517 153 539 q 171 481 153 504 q 190 441 190 458 q 177 415 190 425 q 148 405 165 405 q 93 430 114 405 q 72 486 72 455 q 119 573 72 542 q 212 604 167 604 q 312 575 257 604 q 393 532 366 545 q 440 518 420 518 q 471 532 459 518 q 491 561 483 545 q 505 591 499 577 q 517 604 511 604 l 538 606 q 555 592 555 606 q 530 507 555 553 q 433 379 490 431 q 289 267 376 327 q 134 113 190 187 q 186 127 159 119 q 244 135 214 135 q 301 122 274 135 q 353 95 328 110 q 404 67 378 80 q 458 55 429 55 m 336 686 q 336 691 336 686 q 410 831 336 696 q 490 970 484 966 q 505 974 496 974 q 542 956 524 974 q 560 925 560 937 q 555 907 560 912 q 446 783 516 864 q 364 689 375 701 q 345 676 353 676 q 336 686 336 676 z "},"":{"ha":722,"x_min":-8,"x_max":758,"o":"m 756 857 q 758 840 758 849 q 751 785 758 817 q 734 739 744 754 q 696 687 724 724 q 627 602 667 650 q 540 495 587 553 q 444 380 492 438 q 279 184 379 303 q 168 51 178 64 l 405 51 q 561 141 501 51 q 597 201 579 168 q 631 211 602 211 q 684 207 661 211 l 608 0 l 21 0 q -5 30 5 0 q -8 43 -8 37 q -5 55 -8 50 q 298 412 82 155 q 633 806 514 669 l 351 806 q 195 716 254 806 q 160 656 177 688 q 123 646 155 646 q 73 650 92 646 l 149 857 l 756 857 m 440 1030 q 445 1036 440 1030 q 465 1047 451 1041 q 498 1054 479 1054 q 530 1040 517 1054 q 543 1008 543 1027 q 517 952 543 976 q 466 929 492 929 q 428 942 441 929 q 414 973 414 955 q 421 1005 414 991 q 440 1030 429 1019 z "},"":{"ha":587,"x_min":38,"x_max":569,"o":"m 458 55 q 511 77 511 55 l 511 80 q 500 94 511 88 q 477 109 490 100 q 445 154 445 130 q 460 190 445 178 q 492 201 475 201 q 548 179 526 201 q 569 117 569 157 q 518 18 569 49 q 407 -13 467 -13 q 310 0 348 -13 q 243 27 273 12 q 190 56 213 43 q 147 68 167 68 q 95 35 111 68 q 81 -14 83 14 l 50 -14 q 38 41 38 1 q 104 189 38 115 q 240 304 171 262 q 437 462 310 346 q 385 447 416 447 q 338 454 353 447 q 307 471 322 460 q 277 493 292 481 q 186 539 220 539 q 153 517 153 539 q 171 481 153 504 q 190 441 190 458 q 177 415 190 425 q 148 405 165 405 q 93 430 114 405 q 72 486 72 455 q 119 573 72 542 q 212 604 167 604 q 312 575 257 604 q 393 532 366 545 q 440 518 420 518 q 471 532 459 518 q 491 561 483 545 q 505 591 499 577 q 517 604 511 604 l 538 606 q 555 592 555 606 q 530 507 555 553 q 433 379 490 431 q 289 267 376 327 q 134 113 190 187 q 186 127 159 119 q 244 135 214 135 q 301 122 274 135 q 353 95 328 110 q 404 67 378 80 q 458 55 429 55 m 332 764 q 338 770 332 764 q 357 782 343 775 q 390 788 372 788 q 422 774 409 788 q 435 743 435 761 q 410 687 435 710 q 358 663 384 663 q 320 676 333 663 q 307 707 307 689 q 314 739 307 725 q 332 764 321 753 z "},"":{"ha":722,"x_min":-8,"x_max":758,"o":"m 756 857 q 758 840 758 849 q 751 785 758 817 q 734 739 744 754 q 696 687 724 724 q 627 602 667 650 q 540 495 587 553 q 444 380 492 438 q 279 184 379 303 q 168 51 178 64 l 405 51 q 561 141 501 51 q 597 201 579 168 q 631 211 602 211 q 684 207 661 211 l 608 0 l 21 0 q -5 30 5 0 q -8 43 -8 37 q -5 55 -8 50 q 298 412 82 155 q 633 806 514 669 l 351 806 q 195 716 254 806 q 160 656 177 688 q 123 646 155 646 q 73 650 92 646 l 149 857 l 756 857 m 284 1259 l 405 1076 l 612 1257 l 624 1246 q 595 1205 612 1229 q 490 1058 524 1106 q 444 994 455 1009 q 388 956 415 956 q 347 991 360 956 q 331 1044 340 1010 q 312 1106 321 1078 q 296 1161 304 1134 q 282 1212 289 1187 q 271 1251 275 1236 l 284 1259 z "},"":{"ha":587,"x_min":38,"x_max":579,"o":"m 458 55 q 511 77 511 55 l 511 80 q 500 94 511 88 q 477 109 490 100 q 445 154 445 130 q 460 190 445 178 q 492 201 475 201 q 548 179 526 201 q 569 117 569 157 q 518 18 569 49 q 407 -13 467 -13 q 310 0 348 -13 q 243 27 273 12 q 190 56 213 43 q 147 68 167 68 q 95 35 111 68 q 81 -14 83 14 l 50 -14 q 38 41 38 1 q 104 189 38 115 q 240 304 171 262 q 437 462 310 346 q 385 447 416 447 q 338 454 353 447 q 307 471 322 460 q 277 493 292 481 q 186 539 220 539 q 153 517 153 539 q 171 481 153 504 q 190 441 190 458 q 177 415 190 425 q 148 405 165 405 q 93 430 114 405 q 72 486 72 455 q 119 573 72 542 q 212 604 167 604 q 312 575 257 604 q 393 532 366 545 q 440 518 420 518 q 471 532 459 518 q 491 561 483 545 q 505 591 499 577 q 517 604 511 604 l 538 606 q 555 592 555 606 q 530 507 555 553 q 433 379 490 431 q 289 267 376 327 q 134 113 190 187 q 186 127 159 119 q 244 135 214 135 q 301 122 274 135 q 353 95 328 110 q 404 67 378 80 q 458 55 429 55 m 239 994 l 360 810 l 568 991 l 579 980 q 550 939 567 963 q 445 792 479 840 q 399 728 410 743 q 343 690 370 690 q 302 726 315 690 q 286 778 296 744 q 268 840 276 812 q 252 895 259 868 q 237 946 244 922 q 227 985 231 970 l 239 994 z "},"":{"ha":522,"x_min":9,"x_max":598,"o":"m 9 -198 q 138 191 67 -113 l 209 493 l 71 493 l 85 554 l 223 554 l 242 644 q 384 865 279 817 q 456 882 422 882 q 558 858 519 882 q 598 778 598 833 q 583 745 598 760 q 548 730 568 730 q 518 737 528 730 q 502 755 509 744 q 488 778 494 766 q 435 826 463 826 q 355 771 385 826 q 326 656 326 717 q 341 554 326 596 l 505 554 l 490 493 l 328 493 l 264 229 q 231 84 247 154 q 192 -45 215 14 q 135 -148 170 -104 q 43 -214 100 -192 l 9 -198 z "},"":{"ha":1158,"x_min":0,"x_max":0,"o":""},"":{"ha":1508,"x_min":-41,"x_max":1491,"o":"m 418 60 q 601 152 520 60 q 710 350 670 230 q 749 544 749 471 q 734 661 749 617 q 690 737 720 705 q 519 807 629 807 l 460 807 q 388 795 414 807 q 352 744 362 783 l 205 60 l 418 60 m 513 857 q 774 762 666 857 q 883 517 883 667 q 824 273 883 393 q 662 76 765 153 q 431 0 558 0 l -36 0 l -41 12 l -28 50 q 52 64 29 50 q 105 144 90 89 q 235 742 235 644 q 177 802 235 795 q 141 805 162 803 q 119 820 119 808 q 134 857 119 841 l 513 857 m 1379 55 q 1432 77 1432 55 l 1432 80 q 1422 94 1432 88 q 1399 109 1412 100 q 1367 154 1367 130 q 1381 190 1367 178 q 1414 201 1396 201 q 1469 179 1448 201 q 1491 117 1491 157 q 1439 18 1491 49 q 1329 -13 1388 -13 q 1232 0 1270 -13 q 1164 27 1194 12 q 1112 56 1135 43 q 1069 68 1088 68 q 1017 35 1033 68 q 1002 -14 1005 14 l 971 -14 q 960 41 960 1 q 1026 189 960 115 q 1162 304 1093 262 q 1359 462 1232 346 q 1306 447 1337 447 q 1259 454 1275 447 q 1229 471 1244 460 q 1198 493 1213 481 q 1108 539 1142 539 q 1074 517 1074 539 q 1093 481 1074 504 q 1112 441 1112 458 q 1099 415 1112 425 q 1069 405 1086 405 q 1015 430 1036 405 q 994 486 994 455 q 1041 573 994 542 q 1134 604 1088 604 q 1233 575 1179 604 q 1315 532 1288 545 q 1361 518 1342 518 q 1393 532 1381 518 q 1413 561 1404 545 q 1427 591 1421 577 q 1438 604 1432 604 l 1459 606 q 1476 592 1476 606 q 1452 507 1476 553 q 1354 379 1411 431 q 1211 267 1297 327 q 1055 113 1112 187 q 1108 127 1081 119 q 1165 135 1135 135 q 1222 122 1196 135 q 1275 95 1249 110 q 1325 67 1300 80 q 1379 55 1351 55 m 330 1259 l 451 1076 l 659 1257 l 670 1246 q 641 1205 658 1229 q 536 1058 570 1106 q 490 994 501 1009 q 434 956 461 956 q 393 991 406 956 q 377 1044 387 1010 q 358 1106 367 1078 q 342 1161 350 1134 q 328 1212 335 1187 q 317 1251 321 1236 l 330 1259 z "},"":{"ha":1158,"x_min":0,"x_max":0,"o":""},"":{"ha":1190,"x_min":-41,"x_max":1280,"o":"m 578 202 l 600 210 q 664 206 645 210 l 587 0 l -35 0 l -41 12 l -26 50 q 55 65 32 50 q 108 145 93 90 q 235 739 235 634 q 205 790 235 775 q 130 807 176 805 q 127 833 127 819 q 138 857 127 848 l 501 857 l 486 807 q 404 791 429 807 q 347 711 360 763 q 324 613 341 686 q 295 490 307 541 q 272 388 283 439 q 213 88 213 122 q 322 50 213 50 q 474 71 431 50 q 540 121 516 91 q 578 201 564 151 l 578 202 m 1276 857 q 1280 841 1280 857 q 1266 807 1280 825 q 1185 792 1208 807 q 1135 710 1145 766 l 1033 176 q 892 -127 991 -47 q 728 -181 825 -181 q 629 -167 670 -181 q 532 -87 532 -134 q 549 -44 532 -57 q 589 -31 567 -31 q 630 -45 610 -31 q 671 -75 650 -59 q 712 -105 691 -92 q 763 -119 734 -119 q 815 -97 791 -119 q 858 -36 839 -75 q 894 87 877 3 l 1027 720 q 1030 753 1030 738 q 932 807 1030 803 q 929 831 929 813 q 939 857 929 848 l 1276 857 z "},"":{"ha":1081,"x_min":-41,"x_max":1093,"o":"m 578 202 l 600 210 q 664 206 645 210 l 587 0 l -35 0 l -41 12 l -26 50 q 55 65 32 50 q 108 145 93 90 q 235 739 235 634 q 205 790 235 775 q 130 807 176 805 q 127 833 127 819 q 138 857 127 848 l 501 857 l 486 807 q 404 791 429 807 q 347 711 360 763 q 324 613 341 686 q 295 490 307 541 q 272 388 283 439 q 213 88 213 122 q 322 50 213 50 q 474 71 431 50 q 540 121 516 91 q 578 201 564 151 l 578 202 m 1039 741 q 957 791 981 741 q 949 833 949 807 q 967 875 949 860 q 1006 890 986 890 q 1068 867 1042 890 q 1093 807 1093 844 q 1076 755 1093 769 q 1039 741 1058 741 m 915 485 q 878 534 915 534 q 803 471 842 534 l 766 411 l 732 437 q 819 553 796 529 q 921 604 867 604 q 1023 495 1023 604 q 1008 392 1023 454 l 953 176 q 903 -7 920 42 q 812 -170 867 -111 q 666 -229 756 -229 q 533 -182 575 -229 q 518 -140 518 -165 q 561 -100 518 -100 q 601 -110 583 -100 q 648 -144 618 -121 q 707 -167 679 -167 q 751 -151 736 -167 q 775 -113 766 -136 q 789 -66 785 -91 q 802 2 794 -41 q 826 107 810 44 q 858 234 842 170 l 903 416 q 915 485 915 460 z "},"":{"ha":802,"x_min":57,"x_max":814,"o":"m 170 115 q 207 62 170 62 q 301 142 248 62 l 340 200 l 384 170 l 342 109 q 160 -13 260 -13 q 84 24 111 -13 q 57 105 57 60 q 67 185 57 151 q 88 259 77 220 l 244 830 l 135 837 q 119 854 119 840 q 132 875 119 868 q 171 888 144 882 q 269 902 198 893 q 344 911 339 911 q 367 887 367 911 q 357 832 367 876 l 180 174 q 170 115 170 138 m 760 741 q 677 791 701 741 q 669 833 669 807 q 688 875 669 860 q 726 890 707 890 q 788 867 763 890 q 814 807 814 844 q 796 755 814 769 q 760 741 779 741 m 635 485 q 599 534 635 534 q 524 471 562 534 l 486 411 l 453 437 q 540 553 517 529 q 642 604 588 604 q 744 495 744 604 q 728 392 744 454 l 673 176 q 623 -7 640 42 q 532 -170 588 -111 q 386 -229 477 -229 q 254 -182 296 -229 q 239 -140 239 -165 q 281 -100 239 -100 q 321 -110 304 -100 q 369 -144 338 -121 q 428 -167 399 -167 q 472 -151 456 -167 q 496 -113 487 -136 q 510 -66 505 -91 q 523 2 515 -41 q 547 107 531 44 q 578 234 563 170 l 624 416 q 635 485 635 460 z "},"":{"ha":1453,"x_min":-41,"x_max":1544,"o":"m 688 149 q 819 748 819 728 q 780 797 819 783 q 715 807 753 807 q 706 837 706 817 l 708 857 l 1034 857 l 1036 837 q 1027 807 1036 817 q 945 785 973 807 q 905 709 917 762 l 742 -20 q 677 -27 705 -32 q 646 -16 649 -23 l 340 793 q 280 530 314 686 q 234 316 246 373 q 206 184 221 259 q 191 98 191 110 q 227 63 191 75 q 299 50 262 52 q 301 40 300 45 q 302 23 302 35 q 291 0 302 11 l -35 0 l -36 -1 l -41 12 l -26 50 q 54 65 31 50 q 105 145 94 92 q 115 190 108 158 q 133 265 123 222 q 154 359 142 308 q 178 461 166 410 q 240 750 240 732 q 232 777 240 768 q 210 791 223 786 q 160 804 195 798 q 125 818 125 809 q 134 857 125 835 l 429 857 l 688 149 m 1539 857 q 1544 841 1544 857 q 1529 807 1544 825 q 1449 792 1471 807 q 1398 710 1409 766 l 1296 176 q 1156 -127 1254 -47 q 991 -181 1088 -181 q 892 -167 933 -181 q 795 -87 795 -134 q 812 -44 795 -57 q 852 -31 830 -31 q 893 -45 873 -31 q 934 -75 913 -59 q 976 -105 954 -92 q 1026 -119 997 -119 q 1078 -97 1055 -119 q 1121 -36 1102 -75 q 1157 87 1140 3 l 1290 720 q 1293 753 1293 738 q 1195 807 1293 803 q 1192 831 1192 813 q 1202 857 1192 848 l 1539 857 z "}}}
